{
.appVersion = "1342";
DisplayStrings = (
"HH/Placeholder HO/Placeholder OO\012OAOBCDEFGHIJKOLMN\012OPQROSOTOUOVOWOXOYOZO\012Fueon/space minimlunldnnnn/space nn/idotless nnjnn\012AWARD/space Wonder/space Volcan/space You/space Yuca\012Tomate/space Tuto/space Tamarindo/space Vanidad\012Vida/space Tiro/space Kolo/space Ka/space Rolando/space KORO\012HHFALTAHHH/space ATADURA/space LYON/space ALVARO\012HHAVAROHH",
"a´/acutecomb á/abreve âäà/amacron/aogonek åãª/abreveacute/abrevedotbelow/abrevegrave/abrevehookabove/abrevetilde/acircumflexacute/acircumflexdotbelow/acircumflexgrave/acircumflexhookabove/acircumflextilde/adotbelow/ahookabove/abreve",
"aaá/acutecomb/dotbelowcomb/gravecomb/brevecomb/brevecomb_gravecomb/macroncomb/dieresiscomb ÄäëËÏïÖöÜü/Wdieresis/wdieresis/ydieresis/Ydieresis/brevecomb_hookabovecomb/circumflexcomb_hookabovecomb/circumflexcomb/circumflexcomb_hookabovecomb/circumflexcomb_tildecomb/circumflexcomb_gravecomb/hookabovecomb/tildecomb/tilde/brevecomb_tildecomb/circumflexcomb_tildecomb/dotaccent/dotbelowcomb i/idotless/dotaccentcomb/Cdotaccent/cdotaccent/Edotaccent/edotaccent/Gdotaccent/gdotaccent I/Idotaccent/ogonekcomb A/space nnfoannnng/ogonekcomb/Aogonek a/aogonek E/Eogonek e/eogonek I/Iogonek/iogonek HU/Uogonek u/uogonek/idotless/iogonek/Zdotaccent/zdotaccent/idotaccent/hungarumlaut/hungarumlautcomb/ohungarumlaut/uhungarumlaut/dieresiscomb ÄäëËÏïÖöÜü/Wdieresis/wdieresis/ydieresis/Ydieresis/dotaccentcomb/hungarumlautcomb/caroncomb.alt/circumflexcomb/caroncomb/abreve/brevecomb/ringcomb/macroncomb/commaturnedabovecomb/horncomb/commaaccentcomb/cedillacomb/ogonekcomb",
"¸/cedillacomb/cedillacomb ¸CÇcç/Tcaron/cedillacomb/Tcedilla/commaaccentcomb/Tcommaaccent/Tcedilla t/tcedilla/Scedilla/scedilla",
"/brevecomb_gravecomb/abrevegrave",
"+/minus ×÷=±¬<>/notequal/approxequal",

glyphs = (
{
glyphname = a;
lastChange = "2021-06-09 03:33:40 +0000";
layers = (
{
anchors = (
{
name = bottom;
position = "{239, 0}";
},
{
name = ogonek;
position = "{292, 13}";
},
{
name = top;
position = "{250, 472}";
}
);
background = {
anchors = (
{
name = bottom;
position = "{239, 0}";
},
{
name = ogonek;
position = "{389, 33}";
},
{
name = top;
position = "{239, 472}";
}
);
paths = (
{
closed = 1;
nodes = (
"285 -8 OFFCURVE",
"341 -1 OFFCURVE",
"382 13 CURVE SMOOTH",
"402 20 OFFCURVE",
"407 27 OFFCURVE",
"408 34 CURVE SMOOTH",
"416 122 OFFCURVE",
"418 192 OFFCURVE",
"416 299 CURVE SMOOTH",
"414 394 OFFCURVE",
"397 477 OFFCURVE",
"233 477 CURVE SMOOTH",
"173 477 OFFCURVE",
"128 464 OFFCURVE",
"97 442 CURVE SMOOTH",
"95 441 OFFCURVE",
"94 439 OFFCURVE",
"94 437 CURVE SMOOTH",
"98 412 LINE SMOOTH",
"98 409 OFFCURVE",
"102 409 OFFCURVE",
"105 412 CURVE",
"133 433 OFFCURVE",
"180 446 OFFCURVE",
"233 446 CURVE SMOOTH",
"337 446 OFFCURVE",
"380 409 OFFCURVE",
"380 309 CURVE SMOOTH",
"380 289 OFFCURVE",
"373 282 OFFCURVE",
"363 284 CURVE SMOOTH",
"338 290 OFFCURVE",
"285 296 OFFCURVE",
"237 296 CURVE SMOOTH",
"153 296 OFFCURVE",
"60 267 OFFCURVE",
"60 133 CURVE SMOOTH",
"60 17 OFFCURVE",
"139 -8 OFFCURVE",
"233 -8 CURVE SMOOTH"
);
},
{
closed = 1;
nodes = (
"156 21 OFFCURVE",
"93 48 OFFCURVE",
"93 133 CURVE SMOOTH",
"93 245 OFFCURVE",
"176 267 OFFCURVE",
"228 267 CURVE SMOOTH",
"292 267 OFFCURVE",
"342 258 OFFCURVE",
"364 255 CURVE SMOOTH",
"375 253 OFFCURVE",
"381 244 OFFCURVE",
"381 228 CURVE SMOOTH",
"381 175 OFFCURVE",
"379 103 OFFCURVE",
"372 59 CURVE SMOOTH",
"366 26 OFFCURVE",
"262 21 OFFCURVE",
"236 21 CURVE SMOOTH"
);
}
);
};
layerId = "707362F1-A677-446A-8636-E10BE3A7FAFF";
paths = (
{
closed = 1;
nodes = (
"285 -8 OFFCURVE",
"341 -1 OFFCURVE",
"382 13 CURVE SMOOTH",
"402 20 OFFCURVE",
"407 27 OFFCURVE",
"408 34 CURVE SMOOTH",
"416 122 OFFCURVE",
"418 192 OFFCURVE",
"416 299 CURVE SMOOTH",
"414 394 OFFCURVE",
"397 477 OFFCURVE",
"233 477 CURVE SMOOTH",
"173 477 OFFCURVE",
"128 464 OFFCURVE",
"97 442 CURVE SMOOTH",
"95 441 OFFCURVE",
"94 439 OFFCURVE",
"94 437 CURVE SMOOTH",
"98 412 LINE SMOOTH",
"98 409 OFFCURVE",
"102 409 OFFCURVE",
"105 412 CURVE",
"133 433 OFFCURVE",
"180 446 OFFCURVE",
"233 446 CURVE SMOOTH",
"337 446 OFFCURVE",
"380 409 OFFCURVE",
"380 309 CURVE SMOOTH",
"380 289 OFFCURVE",
"373 282 OFFCURVE",
"363 284 CURVE SMOOTH",
"338 290 OFFCURVE",
"285 296 OFFCURVE",
"237 296 CURVE SMOOTH",
"153 296 OFFCURVE",
"60 267 OFFCURVE",
"60 133 CURVE SMOOTH",
"60 17 OFFCURVE",
"139 -8 OFFCURVE",
"233 -8 CURVE SMOOTH"
);
},
{
closed = 1;
nodes = (
"156 21 OFFCURVE",
"93 48 OFFCURVE",
"93 133 CURVE SMOOTH",
"93 245 OFFCURVE",
"176 267 OFFCURVE",
"228 267 CURVE SMOOTH",
"292 267 OFFCURVE",
"342 258 OFFCURVE",
"364 255 CURVE SMOOTH",
"375 253 OFFCURVE",
"381 244 OFFCURVE",
"381 228 CURVE SMOOTH",
"381 175 OFFCURVE",
"379 103 OFFCURVE",
"372 59 CURVE SMOOTH",
"366 26 OFFCURVE",
"262 21 OFFCURVE",
"236 21 CURVE SMOOTH"
);
}
);
width = 489;
},
{
anchors = (
{
name = bottom;
position = "{234, 0}";
},
{
name = ogonek;
position = "{368, 20}";
},
{
name = top;
position = "{244, 472}";
}
);
background = {
anchors = (
{
name = bottom;
position = "{234, 0}";
},
{
name = ogonek;
position = "{421, 10}";
},
{
name = top;
position = "{234, 472}";
}
);
paths = (
{
closed = 1;
nodes = (
"264 -7 OFFCURVE",
"373 1 OFFCURVE",
"408 20 CURVE SMOOTH",
"424 28 OFFCURVE",
"426 32 OFFCURVE",
"430 50 CURVE",
"438 130 OFFCURVE",
"438 210 OFFCURVE",
"438 290 CURVE SMOOTH",
"438 386 OFFCURVE",
"415 477 OFFCURVE",
"230 477 CURVE SMOOTH",
"170 477 OFFCURVE",
"110 460 OFFCURVE",
"76 439 CURVE SMOOTH",
"61 430 OFFCURVE",
"59 427 OFFCURVE",
"63 407 CURVE SMOOTH",
"73 345 LINE SMOOTH",
"76 328 OFFCURVE",
"78 326 OFFCURVE",
"96 334 CURVE SMOOTH",
"128 349 OFFCURVE",
"177 376 OFFCURVE",
"227 376 CURVE SMOOTH",
"271 376 OFFCURVE",
"300 362 OFFCURVE",
"300 322 CURVE SMOOTH",
"300 313 OFFCURVE",
"299 309 OFFCURVE",
"292 312 CURVE",
"271 315 OFFCURVE",
"249 316 OFFCURVE",
"225 316 CURVE SMOOTH",
"158 316 OFFCURVE",
"30 289 OFFCURVE",
"30 147 CURVE SMOOTH",
"30 18 OFFCURVE",
"126 -7 OFFCURVE",
"230 -7 CURVE SMOOTH"
);
},
{
closed = 1;
nodes = (
"194 80 OFFCURVE",
"174 110 OFFCURVE",
"174 147 CURVE SMOOTH",
"174 216 OFFCURVE",
"216 227 OFFCURVE",
"238 227 CURVE SMOOTH",
"245 227 OFFCURVE",
"270 228 OFFCURVE",
"282 218 CURVE SMOOTH",
"287 214 OFFCURVE",
"290 209 OFFCURVE",
"290 202 CURVE SMOOTH",
"292 169 OFFCURVE",
"288 135 OFFCURVE",
"286 104 CURVE SMOOTH",
"284 85 OFFCURVE",
"258 80 OFFCURVE",
"238 80 CURVE SMOOTH"
);
}
);
};
layerId = "D1BC8BBB-1669-4C46-BC21-42BF6808B2B9";
paths = (
{
closed = 1;
nodes = (
"264 -7 OFFCURVE",
"373 1 OFFCURVE",
"408 20 CURVE SMOOTH",
"424 28 OFFCURVE",
"426 32 OFFCURVE",
"430 50 CURVE",
"438 130 OFFCURVE",
"438 210 OFFCURVE",
"438 290 CURVE SMOOTH",
"438 386 OFFCURVE",
"415 477 OFFCURVE",
"230 477 CURVE SMOOTH",
"170 477 OFFCURVE",
"110 460 OFFCURVE",
"76 439 CURVE SMOOTH",
"61 430 OFFCURVE",
"60 427 OFFCURVE",
"63 407 CURVE SMOOTH",
"73 345 LINE SMOOTH",
"76 328 OFFCURVE",
"78 326 OFFCURVE",
"96 334 CURVE SMOOTH",
"128 349 OFFCURVE",
"177 376 OFFCURVE",
"227 376 CURVE SMOOTH",
"271 376 OFFCURVE",
"300 362 OFFCURVE",
"300 322 CURVE SMOOTH",
"300 313 OFFCURVE",
"299 309 OFFCURVE",
"292 312 CURVE",
"271 315 OFFCURVE",
"249 316 OFFCURVE",
"225 316 CURVE SMOOTH",
"158 316 OFFCURVE",
"30 289 OFFCURVE",
"30 147 CURVE SMOOTH",
"30 18 OFFCURVE",
"126 -7 OFFCURVE",
"230 -7 CURVE SMOOTH"
);
},
{
closed = 1;
nodes = (
"194 80 OFFCURVE",
"174 110 OFFCURVE",
"174 147 CURVE SMOOTH",
"174 216 OFFCURVE",
"216 227 OFFCURVE",
"238 227 CURVE SMOOTH",
"245 227 OFFCURVE",
"270 228 OFFCURVE",
"282 218 CURVE SMOOTH",
"287 214 OFFCURVE",
"290 209 OFFCURVE",
"290 202 CURVE SMOOTH",
"292 169 OFFCURVE",
"288 135 OFFCURVE",
"286 104 CURVE SMOOTH",
"284 85 OFFCURVE",
"258 80 OFFCURVE",
"238 80 CURVE SMOOTH"
);
}
);
width = 466;
}
);
leftKerningGroup = a;
note = a;
rightKerningGroup = n;
rightMetricsKey = n;
unicode = 0061;
},
{
glyphname = b;
lastChange = "2021-06-09 01:46:52 +0000";
layers = (
{
anchors = (
{
name = bottom;
position = "{230, 0}";
},
{
name = top;
position = "{230, 708}";
}
);
background = {
anchors = (
{
name = bottom;
position = "{230, 0}";
},
{
name = top;
position = "{230, 708}";
}
);
paths = (
{
closed = 1;
nodes = (
"345 -6 OFFCURVE",
"417 63 OFFCURVE",
"417 224 CURVE SMOOTH",
"417 427 OFFCURVE",
"316 476 OFFCURVE",
"232 476 CURVE SMOOTH",
"182 476 OFFCURVE",
"128 465 OFFCURVE",
"104 457 CURVE SMOOTH",
"92 452 OFFCURVE",
"86 459 OFFCURVE",
"86 472 CURVE SMOOTH",
"86 481 OFFCURVE",
"92 650 OFFCURVE",
"96 700 CURVE SMOOTH",
"96 702 OFFCURVE",
"97 708 OFFCURVE",
"90 708 CURVE SMOOTH",
"69 708 LINE SMOOTH",
"64 708 OFFCURVE",
"63 703 OFFCURVE",
"63 701 CURVE SMOOTH",
"53 565 OFFCURVE",
"50 417 OFFCURVE",
"53 287 CURVE SMOOTH",
"54 203 OFFCURVE",
"59 99 OFFCURVE",
"63 66 CURVE SMOOTH",
"68 24 OFFCURVE",
"68 24 OFFCURVE",
"95 14 CURVE SMOOTH",
"103 11 OFFCURVE",
"161 -6 OFFCURVE",
"228 -6 CURVE SMOOTH"
);
},
{
closed = 1;
nodes = (
"178 22 OFFCURVE",
"136 33 OFFCURVE",
"112 41 CURVE SMOOTH",
"103 45 OFFCURVE",
"97 50 OFFCURVE",
"96 65 CURVE SMOOTH",
"86 191 OFFCURVE",
"84 373 OFFCURVE",
"88 407 CURVE SMOOTH",
"89 420 OFFCURVE",
"98 425 OFFCURVE",
"106 426 CURVE SMOOTH",
"121 428 OFFCURVE",
"193 446 OFFCURVE",
"226 446 CURVE SMOOTH",
"295 446 OFFCURVE",
"384 411 OFFCURVE",
"384 228 CURVE SMOOTH",
"384 74 OFFCURVE",
"316 22 OFFCURVE",
"226 22 CURVE SMOOTH"
);
}
);
};
layerId = "707362F1-A677-446A-8636-E10BE3A7FAFF";
paths = (
{
closed = 1;
nodes = (
"345 -6 OFFCURVE",
"417 63 OFFCURVE",
"417 224 CURVE SMOOTH",
"417 427 OFFCURVE",
"316 476 OFFCURVE",
"232 476 CURVE SMOOTH",
"182 476 OFFCURVE",
"128 465 OFFCURVE",
"104 457 CURVE SMOOTH",
"92 452 OFFCURVE",
"86 459 OFFCURVE",
"86 472 CURVE SMOOTH",
"86 481 OFFCURVE",
"92 650 OFFCURVE",
"96 700 CURVE SMOOTH",
"96 702 OFFCURVE",
"97 708 OFFCURVE",
"90 708 CURVE SMOOTH",
"69 708 LINE SMOOTH",
"64 708 OFFCURVE",
"63 703 OFFCURVE",
"63 701 CURVE SMOOTH",
"53 565 OFFCURVE",
"50 417 OFFCURVE",
"53 287 CURVE SMOOTH",
"54 203 OFFCURVE",
"59 99 OFFCURVE",
"63 66 CURVE SMOOTH",
"68 24 OFFCURVE",
"68 24 OFFCURVE",
"95 14 CURVE SMOOTH",
"103 11 OFFCURVE",
"161 -6 OFFCURVE",
"228 -6 CURVE SMOOTH"
);
},
{
closed = 1;
nodes = (
"178 22 OFFCURVE",
"136 33 OFFCURVE",
"112 41 CURVE SMOOTH",
"103 45 OFFCURVE",
"97 50 OFFCURVE",
"96 65 CURVE SMOOTH",
"86 191 OFFCURVE",
"84 373 OFFCURVE",
"88 407 CURVE SMOOTH",
"89 420 OFFCURVE",
"98 425 OFFCURVE",
"106 426 CURVE SMOOTH",
"121 428 OFFCURVE",
"193 446 OFFCURVE",
"226 446 CURVE SMOOTH",
"295 446 OFFCURVE",
"384 411 OFFCURVE",
"384 228 CURVE SMOOTH",
"384 74 OFFCURVE",
"316 22 OFFCURVE",
"226 22 CURVE SMOOTH"
);
}
);
width = 467;
},
{
anchors = (
{
name = bottom;
position = "{241, 0}";
},
{
name = top;
position = "{241, 687}";
}
);
background = {
anchors = (
{
name = bottom;
position = "{241, 0}";
},
{
name = top;
position = "{241, 687}";
}
);
paths = (
{
closed = 1;
nodes = (
"370 -6 OFFCURVE",
"450 67 OFFCURVE",
"450 229 CURVE SMOOTH",
"450 431 OFFCURVE",
"344 476 OFFCURVE",
"246 476 CURVE SMOOTH",
"232 476 OFFCURVE",
"209 470 OFFCURVE",
"197 468 CURVE SMOOTH",
"190 467 OFFCURVE",
"183 466 OFFCURVE",
"183 477 CURVE SMOOTH",
"183 538 OFFCURVE",
"193 621 OFFCURVE",
"203 681 CURVE SMOOTH",
"206 704 OFFCURVE",
"210 708 OFFCURVE",
"187 708 CURVE SMOOTH",
"78 708 LINE SMOOTH",
"67 708 OFFCURVE",
"59 707 OFFCURVE",
"58 697 CURVE SMOOTH",
"42 590 OFFCURVE",
"32 433 OFFCURVE",
"32 263 CURVE SMOOTH",
"32 201 OFFCURVE",
"34 90 OFFCURVE",
"45 52 CURVE SMOOTH",
"49 35 OFFCURVE",
"53 28 OFFCURVE",
"85 18 CURVE SMOOTH",
"108 9 OFFCURVE",
"168 -6 OFFCURVE",
"238 -6 CURVE SMOOTH"
);
},
{
closed = 1;
nodes = (
"218 106 OFFCURVE",
"201 110 OFFCURVE",
"190 114 CURVE",
"187 117 OFFCURVE",
"186 119 OFFCURVE",
"186 126 CURVE SMOOTH",
"184 195 OFFCURVE",
"183 263 OFFCURVE",
"183 332 CURVE SMOOTH",
"183 340 OFFCURVE",
"184 342 OFFCURVE",
"189 343 CURVE SMOOTH",
"203 348 OFFCURVE",
"223 354 OFFCURVE",
"237 354 CURVE SMOOTH",
"264 354 OFFCURVE",
"301 339 OFFCURVE",
"301 228 CURVE SMOOTH",
"301 135 OFFCURVE",
"273 106 OFFCURVE",
"237 106 CURVE SMOOTH"
);
}
);
};
layerId = "D1BC8BBB-1669-4C46-BC21-42BF6808B2B9";
paths = (
{
closed = 1;
nodes = (
"370 -6 OFFCURVE",
"450 67 OFFCURVE",
"450 229 CURVE SMOOTH",
"450 431 OFFCURVE",
"344 476 OFFCURVE",
"246 476 CURVE SMOOTH",
"232 476 OFFCURVE",
"209 470 OFFCURVE",
"197 468 CURVE SMOOTH",
"190 467 OFFCURVE",
"183 466 OFFCURVE",
"183 477 CURVE SMOOTH",
"183 538 OFFCURVE",
"193 621 OFFCURVE",
"203 681 CURVE SMOOTH",
"206 704 OFFCURVE",
"210 708 OFFCURVE",
"187 708 CURVE SMOOTH",
"78 708 LINE SMOOTH",
"67 708 OFFCURVE",
"59 707 OFFCURVE",
"58 697 CURVE SMOOTH",
"42 590 OFFCURVE",
"32 433 OFFCURVE",
"32 263 CURVE SMOOTH",
"32 201 OFFCURVE",
"34 90 OFFCURVE",
"45 52 CURVE SMOOTH",
"49 35 OFFCURVE",
"53 28 OFFCURVE",
"85 18 CURVE SMOOTH",
"108 9 OFFCURVE",
"168 -6 OFFCURVE",
"238 -6 CURVE SMOOTH"
);
},
{
closed = 1;
nodes = (
"218 106 OFFCURVE",
"201 110 OFFCURVE",
"190 114 CURVE",
"187 117 OFFCURVE",
"186 119 OFFCURVE",
"186 126 CURVE SMOOTH",
"184 195 OFFCURVE",
"183 263 OFFCURVE",
"183 332 CURVE SMOOTH",
"183 340 OFFCURVE",
"184 342 OFFCURVE",
"189 343 CURVE SMOOTH",
"203 348 OFFCURVE",
"223 354 OFFCURVE",
"237 354 CURVE SMOOTH",
"264 354 OFFCURVE",
"301 339 OFFCURVE",
"301 228 CURVE SMOOTH",
"301 135 OFFCURVE",
"273 106 OFFCURVE",
"237 106 CURVE SMOOTH"
);
}
);
width = 490;
}
);
leftKerningGroup = b;
leftMetricsKey = "=h-8";
note = b;
rightKerningGroup = o;
unicode = 0062;
},
{
glyphname = c;
lastChange = "2021-06-09 01:46:57 +0000";
layers = (
{
anchors = (
{
name = bottom;
position = "{237, 0}";
},
{
name = top;
position = "{232, 472}";
}
);
background = {
anchors = (
{
name = bottom;
position = "{197, 0}";
},
{
name = top;
position = "{230, 472}";
}
);
paths = (
{
closed = 1;
nodes = (
"283 -5 OFFCURVE",
"326 4 OFFCURVE",
"356 24 CURVE",
"359 25 OFFCURVE",
"360 27 OFFCURVE",
"359 31 CURVE",
"350 47 LINE",
"349 50 OFFCURVE",
"346 50 OFFCURVE",
"343 48 CURVE",
"315 35 OFFCURVE",
"280 25 OFFCURVE",
"232 25 CURVE SMOOTH",
"112 25 OFFCURVE",
"73 109 OFFCURVE",
"73 236 CURVE SMOOTH",
"73 335 OFFCURVE",
"106 452 OFFCURVE",
"231 452 CURVE SMOOTH",
"274 452 OFFCURVE",
"322 438 OFFCURVE",
"344 413 CURVE SMOOTH",
"348 409 OFFCURVE",
"353 408 OFFCURVE",
"353 415 CURVE SMOOTH",
"353 438 LINE SMOOTH",
"353 445 OFFCURVE",
"353 445 OFFCURVE",
"348 450 CURVE SMOOTH",
"322 471 OFFCURVE",
"284 483 OFFCURVE",
"231 483 CURVE SMOOTH",
"80 483 OFFCURVE",
"40 365 OFFCURVE",
"40 237 CURVE SMOOTH",
"40 100 OFFCURVE",
"77 -5 OFFCURVE",
"232 -5 CURVE SMOOTH"
);
},
{
closed = 1;
nodes = (
"283 -5 OFFCURVE",
"326 4 OFFCURVE",
"356 24 CURVE",
"359 25 OFFCURVE",
"360 27 OFFCURVE",
"359 31 CURVE",
"350 47 LINE",
"349 50 OFFCURVE",
"346 50 OFFCURVE",
"343 48 CURVE",
"315 35 OFFCURVE",
"280 25 OFFCURVE",
"232 25 CURVE SMOOTH",
"112 25 OFFCURVE",
"73 109 OFFCURVE",
"73 236 CURVE SMOOTH",
"73 335 OFFCURVE",
"106 452 OFFCURVE",
"231 452 CURVE SMOOTH",
"274 452 OFFCURVE",
"322 438 OFFCURVE",
"344 413 CURVE SMOOTH",
"348 409 OFFCURVE",
"353 408 OFFCURVE",
"353 415 CURVE SMOOTH",
"353 438 LINE SMOOTH",
"353 445 OFFCURVE",
"353 445 OFFCURVE",
"348 450 CURVE SMOOTH",
"322 471 OFFCURVE",
"284 483 OFFCURVE",
"231 483 CURVE SMOOTH",
"80 483 OFFCURVE",
"40 365 OFFCURVE",
"40 237 CURVE SMOOTH",
"40 100 OFFCURVE",
"77 -5 OFFCURVE",
"232 -5 CURVE SMOOTH"
);
}
);
};
layerId = "707362F1-A677-446A-8636-E10BE3A7FAFF";
paths = (
{
closed = 1;
nodes = (
"283 -5 OFFCURVE",
"326 4 OFFCURVE",
"356 24 CURVE SMOOTH",
"359 25 OFFCURVE",
"361 27 OFFCURVE",
"359 31 CURVE SMOOTH",
"350 47 LINE SMOOTH",
"348 50 OFFCURVE",
"346 50 OFFCURVE",
"343 48 CURVE SMOOTH",
"315 35 OFFCURVE",
"280 25 OFFCURVE",
"232 25 CURVE SMOOTH",
"112 25 OFFCURVE",
"73 108 OFFCURVE",
"73 233 CURVE SMOOTH",
"73 331 OFFCURVE",
"106 446 OFFCURVE",
"231 446 CURVE SMOOTH",
"274 446 OFFCURVE",
"322 432 OFFCURVE",
"344 407 CURVE SMOOTH",
"348 403 OFFCURVE",
"353 402 OFFCURVE",
"353 409 CURVE SMOOTH",
"353 432 LINE SMOOTH",
"353 439 OFFCURVE",
"353 439 OFFCURVE",
"348 444 CURVE SMOOTH",
"322 465 OFFCURVE",
"284 477 OFFCURVE",
"231 477 CURVE SMOOTH",
"80 477 OFFCURVE",
"40 360 OFFCURVE",
"40 234 CURVE SMOOTH",
"40 99 OFFCURVE",
"77 -5 OFFCURVE",
"232 -5 CURVE SMOOTH"
);
}
);
width = 384;
},
{
anchors = (
{
name = bottom;
position = "{255, 0}";
},
{
name = top;
position = "{247, 472}";
}
);
background = {
anchors = (
{
name = bottom;
position = "{217, 0}";
},
{
name = top;
position = "{217, 472}";
}
);
paths = (
{
closed = 1;
nodes = (
"301 -5 OFFCURVE",
"362 7 OFFCURVE",
"398 34 CURVE SMOOTH",
"408 41 OFFCURVE",
"410 46 OFFCURVE",
"405 58 CURVE SMOOTH",
"378 122 LINE SMOOTH",
"372 135 OFFCURVE",
"363 137 OFFCURVE",
"350 131 CURVE SMOOTH",
"313 114 OFFCURVE",
"286 106 OFFCURVE",
"258 106 CURVE SMOOTH",
"208 106 OFFCURVE",
"176 153 OFFCURVE",
"176 236 CURVE SMOOTH",
"176 302 OFFCURVE",
"207 360 OFFCURVE",
"267 360 CURVE SMOOTH",
"307 360 OFFCURVE",
"343 355 OFFCURVE",
"380 326 CURVE SMOOTH",
"387 320 OFFCURVE",
"397 320 OFFCURVE",
"397 332 CURVE SMOOTH",
"397 415 LINE SMOOTH",
"397 425 OFFCURVE",
"395 428 OFFCURVE",
"384 439 CURVE",
"349 467 OFFCURVE",
"305 478 OFFCURVE",
"247 478 CURVE SMOOTH",
"74 478 OFFCURVE",
"30 360 OFFCURVE",
"30 237 CURVE SMOOTH",
"30 105 OFFCURVE",
"71 -5 OFFCURVE",
"248 -5 CURVE SMOOTH"
);
}
);
};
layerId = "D1BC8BBB-1669-4C46-BC21-42BF6808B2B9";
paths = (
{
closed = 1;
nodes = (
"301 -8 OFFCURVE",
"362 4 OFFCURVE",
"398 31 CURVE SMOOTH",
"408 38 OFFCURVE",
"410 43 OFFCURVE",
"405 55 CURVE SMOOTH",
"378 119 LINE SMOOTH",
"372 132 OFFCURVE",
"363 134 OFFCURVE",
"350 128 CURVE SMOOTH",
"313 111 OFFCURVE",
"286 103 OFFCURVE",
"258 103 CURVE SMOOTH",
"208 103 OFFCURVE",
"176 151 OFFCURVE",
"176 236 CURVE SMOOTH",
"176 303 OFFCURVE",
"207 362 OFFCURVE",
"267 362 CURVE SMOOTH",
"307 362 OFFCURVE",
"343 357 OFFCURVE",
"380 326 CURVE SMOOTH",
"387 320 OFFCURVE",
"397 320 OFFCURVE",
"397 332 CURVE SMOOTH",
"397 417 LINE SMOOTH",
"397 427 OFFCURVE",
"395 430 OFFCURVE",
"384 441 CURVE",
"349 469 OFFCURVE",
"305 480 OFFCURVE",
"247 480 CURVE SMOOTH",
"74 480 OFFCURVE",
"30 361 OFFCURVE",
"30 237 CURVE SMOOTH",
"30 103 OFFCURVE",
"71 -8 OFFCURVE",
"248 -8 CURVE SMOOTH"
);
}
);
width = 418;
}
);
leftKerningGroup = o;
note = c;
rightKerningGroup = c;
unicode = 0063;
},
{
glyphname = d;
lastChange = "2021-06-09 03:28:10 +0000";
layers = (
{
anchors = (
{
name = bottom;
position = "{239, 0}";
},
{
name = center;
position = "{239, 236}";
},
{
name = top;
position = "{391, 708}";
},
{
name = topright;
position = "{457, 708}";
}
);
background = {
anchors = (
{
name = bottom;
position = "{239, 0}";
},
{
name = center;
position = "{239, 236}";
},
{
name = top;
position = "{391, 708}";
},
{
name = topright;
position = "{457, 708}";
}
);
paths = (
{
closed = 1;
nodes = (
"50 142 OFFCURVE",
"68 78 OFFCURVE",
"104 39 CURVE SMOOTH",
"136 4 OFFCURVE",
"190 -9 OFFCURVE",
"245 -10 CURVE SMOOTH",
"300 -10 OFFCURVE",
"356 2 OFFCURVE",
"393 18 CURVE SMOOTH",
"406 24 OFFCURVE",
"408 31 OFFCURVE",
"408 37 CURVE SMOOTH",
"421 257 OFFCURVE",
"419 480 OFFCURVE",
"408 704 CURVE SMOOTH",
"408 707 OFFCURVE",
"405 708 OFFCURVE",
"404 708 CURVE SMOOTH",
"378 708 LINE SMOOTH",
"376 708 OFFCURVE",
"374 707 OFFCURVE",
"374 704 CURVE",
"374 704 OFFCURVE",
"380 520 OFFCURVE",
"380 465 CURVE SMOOTH",
"380 452 OFFCURVE",
"376 454 OFFCURVE",
"357 459 CURVE SMOOTH",
"331 465 OFFCURVE",
"287 472 OFFCURVE",
"241 472 CURVE SMOOTH",
"156 472 OFFCURVE",
"50 433 OFFCURVE",
"50 230 CURVE SMOOTH"
);
},
{
closed = 1;
nodes = (
"83 414 OFFCURVE",
"176 440 OFFCURVE",
"241 440 CURVE SMOOTH",
"274 440 OFFCURVE",
"326 433 OFFCURVE",
"365 424 CURVE",
"373 421 OFFCURVE",
"382 415 OFFCURVE",
"382 401 CURVE SMOOTH",
"384 367 OFFCURVE",
"382 145 OFFCURVE",
"374 55 CURVE SMOOTH",
"374 48 OFFCURVE",
"366 45 OFFCURVE",
"357 40 CURVE SMOOTH",
"295 12 OFFCURVE",
"182 7 OFFCURVE",
"133 57 CURVE SMOOTH",
"101 88 OFFCURVE",
"83 144 OFFCURVE",
"83 230 CURVE SMOOTH"
);
}
);
};
layerId = "707362F1-A677-446A-8636-E10BE3A7FAFF";
paths = (
{
closed = 1;
nodes = (
"50 142 OFFCURVE",
"68 78 OFFCURVE",
"104 39 CURVE SMOOTH",
"136 4 OFFCURVE",
"190 -9 OFFCURVE",
"245 -10 CURVE SMOOTH",
"300 -10 OFFCURVE",
"356 2 OFFCURVE",
"393 18 CURVE SMOOTH",
"406 24 OFFCURVE",
"408 31 OFFCURVE",
"408 37 CURVE SMOOTH",
"421 257 OFFCURVE",
"419 480 OFFCURVE",
"408 704 CURVE SMOOTH",
"408 707 OFFCURVE",
"405 708 OFFCURVE",
"404 708 CURVE SMOOTH",
"378 708 LINE SMOOTH",
"376 708 OFFCURVE",
"374 707 OFFCURVE",
"374 704 CURVE",
"374 704 OFFCURVE",
"380 520 OFFCURVE",
"380 465 CURVE SMOOTH",
"380 452 OFFCURVE",
"376 454 OFFCURVE",
"357 459 CURVE SMOOTH",
"331 465 OFFCURVE",
"287 472 OFFCURVE",
"241 472 CURVE SMOOTH",
"156 472 OFFCURVE",
"50 433 OFFCURVE",
"50 230 CURVE SMOOTH"
);
},
{
closed = 1;
nodes = (
"83 414 OFFCURVE",
"176 440 OFFCURVE",
"241 440 CURVE SMOOTH",
"274 440 OFFCURVE",
"326 433 OFFCURVE",
"365 424 CURVE",
"373 421 OFFCURVE",
"382 415 OFFCURVE",
"382 401 CURVE SMOOTH",
"384 367 OFFCURVE",
"382 145 OFFCURVE",
"374 55 CURVE SMOOTH",
"374 48 OFFCURVE",
"366 45 OFFCURVE",
"357 40 CURVE SMOOTH",
"295 12 OFFCURVE",
"182 7 OFFCURVE",
"133 57 CURVE SMOOTH",
"101 88 OFFCURVE",
"83 144 OFFCURVE",
"83 230 CURVE SMOOTH"
);
}
);
width = 497;
},
{
anchors = (
{
name = bottom;
position = "{248, 0}";
},
{
name = center;
position = "{248, 236}";
},
{
name = top;
position = "{248, 687}";
},
{
name = topright;
position = "{475, 684}";
}
);
background = {
anchors = (
{
name = bottom;
position = "{248, 0}";
},
{
name = center;
position = "{248, 236}";
},
{
name = top;
position = "{248, 687}";
},
{
name = topright;
position = "{475, 684}";
}
);
paths = (
{
closed = 1;
nodes = (
"33 130 OFFCURVE",
"62 64 OFFCURVE",
"115 28 CURVE SMOOTH",
"148 5 OFFCURVE",
"192 -6 OFFCURVE",
"244 -6 CURVE SMOOTH",
"313 -6 OFFCURVE",
"374 9 OFFCURVE",
"398 18 CURVE SMOOTH",
"430 28 OFFCURVE",
"433 35 OFFCURVE",
"438 52 CURVE SMOOTH",
"464 129 OFFCURVE",
"456 528 OFFCURVE",
"439 676 CURVE SMOOTH",
"438 686 OFFCURVE",
"431 687 OFFCURVE",
"420 687 CURVE SMOOTH",
"310 687 LINE SMOOTH",
"295 687 OFFCURVE",
"290 687 OFFCURVE",
"294 660 CURVE SMOOTH",
"300 599 OFFCURVE",
"309 538 OFFCURVE",
"308 477 CURVE SMOOTH",
"308 466 OFFCURVE",
"301 467 OFFCURVE",
"294 468 CURVE SMOOTH",
"282 470 OFFCURVE",
"259 476 OFFCURVE",
"244 476 CURVE SMOOTH",
"146 476 OFFCURVE",
"39 431 OFFCURVE",
"35 229 CURVE SMOOTH"
);
},
{
closed = 1;
nodes = (
"187 339 OFFCURVE",
"225 354 OFFCURVE",
"253 354 CURVE SMOOTH",
"266 354 OFFCURVE",
"286 348 OFFCURVE",
"300 343 CURVE SMOOTH",
"305 342 OFFCURVE",
"306 340 OFFCURVE",
"306 332 CURVE SMOOTH",
"305 263 OFFCURVE",
"302 195 OFFCURVE",
"299 126 CURVE SMOOTH",
"299 119 OFFCURVE",
"297 117 OFFCURVE",
"295 114 CURVE",
"282 110 OFFCURVE",
"266 106 OFFCURVE",
"248 106 CURVE SMOOTH",
"210 106 OFFCURVE",
"183 135 OFFCURVE",
"185 228 CURVE SMOOTH"
);
}
);
};
layerId = "D1BC8BBB-1669-4C46-BC21-42BF6808B2B9";
paths = (
{
closed = 1;
nodes = (
"33 130 OFFCURVE",
"62 64 OFFCURVE",
"115 28 CURVE SMOOTH",
"148 5 OFFCURVE",
"192 -6 OFFCURVE",
"244 -6 CURVE SMOOTH",
"313 -6 OFFCURVE",
"374 9 OFFCURVE",
"398 18 CURVE SMOOTH",
"430 28 OFFCURVE",
"433 35 OFFCURVE",
"438 52 CURVE SMOOTH",
"464 129 OFFCURVE",
"456 528 OFFCURVE",
"439 676 CURVE SMOOTH",
"438 686 OFFCURVE",
"431 687 OFFCURVE",
"420 687 CURVE SMOOTH",
"310 687 LINE SMOOTH",
"295 687 OFFCURVE",
"290 687 OFFCURVE",
"294 660 CURVE SMOOTH",
"300 599 OFFCURVE",
"309 538 OFFCURVE",
"308 477 CURVE SMOOTH",
"308 466 OFFCURVE",
"301 467 OFFCURVE",
"294 468 CURVE SMOOTH",
"282 470 OFFCURVE",
"259 476 OFFCURVE",
"244 476 CURVE SMOOTH",
"146 476 OFFCURVE",
"39 431 OFFCURVE",
"35 229 CURVE SMOOTH"
);
},
{
closed = 1;
nodes = (
"187 339 OFFCURVE",
"225 354 OFFCURVE",
"253 354 CURVE SMOOTH",
"266 354 OFFCURVE",
"286 348 OFFCURVE",
"300 343 CURVE SMOOTH",
"305 342 OFFCURVE",
"306 340 OFFCURVE",
"306 332 CURVE SMOOTH",
"305 263 OFFCURVE",
"302 195 OFFCURVE",
"299 126 CURVE SMOOTH",
"299 119 OFFCURVE",
"297 117 OFFCURVE",
"295 114 CURVE",
"282 110 OFFCURVE",
"266 106 OFFCURVE",
"248 106 CURVE SMOOTH",
"210 106 OFFCURVE",
"183 135 OFFCURVE",
"185 228 CURVE SMOOTH"
);
}
);
width = 487;
}
);
leftKerningGroup = o;
note = d;
rightKerningGroup = d;
unicode = 0064;
},
{
color = 0;
glyphname = e;
lastChange = "2021-06-09 05:15:09 +0000";
layers = (
{
anchors = (
{
name = bottom;
position = "{227, 0}";
},
{
name = ogonek;
position = "{266, 11}";
},
{
name = top;
position = "{232, 472}";
}
);
background = {
anchors = (
{
name = bottom;
position = "{227, 0}";
},
{
name = ogonek;
position = "{256, 10}";
},
{
name = top;
position = "{227, 472}";
}
);
paths = (
{
closed = 1;
nodes = (
"45 100 OFFCURVE",
"80 -5 OFFCURVE",
"237 -5 CURVE SMOOTH",
"303 -5 OFFCURVE",
"367 6 OFFCURVE",
"408 38 CURVE",
"412 40 OFFCURVE",
"412 42 OFFCURVE",
"411 45 CURVE SMOOTH",
"404 59 LINE SMOOTH",
"400 66 OFFCURVE",
"393 61 OFFCURVE",
"390 59 CURVE SMOOTH",
"349 33 OFFCURVE",
"285 25 OFFCURVE",
"237 25 CURVE SMOOTH",
"122 25 OFFCURVE",
"80 103 OFFCURVE",
"78 216 CURVE SMOOTH",
"78 229 OFFCURVE",
"87 229 OFFCURVE",
"89 229 CURVE SMOOTH",
"390 229 LINE SMOOTH",
"405 229 OFFCURVE",
"413 231 OFFCURVE",
"413 276 CURVE SMOOTH",
"413 374 OFFCURVE",
"392 483 OFFCURVE",
"236 483 CURVE SMOOTH",
"85 483 OFFCURVE",
"45 365 OFFCURVE",
"45 237 CURVE SMOOTH"
);
},
{
closed = 1;
nodes = (
"379 263 OFFCURVE",
"372 261 OFFCURVE",
"358 261 CURVE",
"269 261 OFFCURVE",
"180 261 OFFCURVE",
"91 261 CURVE SMOOTH",
"79 261 OFFCURVE",
"79 265 OFFCURVE",
"79 275 CURVE SMOOTH",
"83 349 OFFCURVE",
"118 452 OFFCURVE",
"236 452 CURVE SMOOTH",
"357 452 OFFCURVE",
"379 365 OFFCURVE",
"379 281 CURVE SMOOTH"
);
},
{
closed = 1;
nodes = (
"45 100 OFFCURVE",
"80 -5 OFFCURVE",
"237 -5 CURVE SMOOTH",
"303 -5 OFFCURVE",
"367 6 OFFCURVE",
"408 38 CURVE",
"412 40 OFFCURVE",
"412 42 OFFCURVE",
"411 45 CURVE SMOOTH",
"404 59 LINE SMOOTH",
"400 66 OFFCURVE",
"393 61 OFFCURVE",
"390 59 CURVE SMOOTH",
"349 33 OFFCURVE",
"285 25 OFFCURVE",
"237 25 CURVE SMOOTH",
"122 25 OFFCURVE",
"80 103 OFFCURVE",
"78 216 CURVE SMOOTH",
"78 229 OFFCURVE",
"87 229 OFFCURVE",
"89 229 CURVE SMOOTH",
"390 229 LINE SMOOTH",
"405 229 OFFCURVE",
"413 231 OFFCURVE",
"413 276 CURVE SMOOTH",
"413 374 OFFCURVE",
"392 483 OFFCURVE",
"236 483 CURVE SMOOTH",
"85 483 OFFCURVE",
"45 365 OFFCURVE",
"45 237 CURVE SMOOTH"
);
},
{
closed = 1;
nodes = (
"379 263 OFFCURVE",
"372 261 OFFCURVE",
"358 261 CURVE",
"269 261 OFFCURVE",
"180 261 OFFCURVE",
"91 261 CURVE SMOOTH",
"79 261 OFFCURVE",
"79 265 OFFCURVE",
"79 275 CURVE SMOOTH",
"83 349 OFFCURVE",
"118 452 OFFCURVE",
"236 452 CURVE SMOOTH",
"357 452 OFFCURVE",
"379 365 OFFCURVE",
"379 281 CURVE SMOOTH"
);
}
);
};
layerId = "707362F1-A677-446A-8636-E10BE3A7FAFF";
paths = (
{
closed = 1;
nodes = (
"45 103 OFFCURVE",
"80 0 OFFCURVE",
"237 0 CURVE SMOOTH",
"303 0 OFFCURVE",
"367 11 OFFCURVE",
"408 43 CURVE",
"412 45 OFFCURVE",
"412 47 OFFCURVE",
"411 50 CURVE SMOOTH",
"404 64 LINE SMOOTH",
"400 71 OFFCURVE",
"393 66 OFFCURVE",
"390 64 CURVE SMOOTH",
"349 38 OFFCURVE",
"285 30 OFFCURVE",
"237 30 CURVE SMOOTH",
"122 30 OFFCURVE",
"80 106 OFFCURVE",
"78 216 CURVE SMOOTH",
"78 229 OFFCURVE",
"87 229 OFFCURVE",
"89 229 CURVE SMOOTH",
"390 229 LINE SMOOTH",
"405 229 OFFCURVE",
"413 231 OFFCURVE",
"413 276 CURVE SMOOTH",
"413 371 OFFCURVE",
"392 477 OFFCURVE",
"236 477 CURVE SMOOTH",
"85 477 OFFCURVE",
"45 362 OFFCURVE",
"45 237 CURVE SMOOTH"
);
},
{
closed = 1;
nodes = (
"379 263 OFFCURVE",
"372 261 OFFCURVE",
"358 261 CURVE",
"269 261 OFFCURVE",
"180 261 OFFCURVE",
"91 261 CURVE SMOOTH",
"79 261 OFFCURVE",
"79 265 OFFCURVE",
"79 275 CURVE SMOOTH",
"83 347 OFFCURVE",
"118 447 OFFCURVE",
"236 447 CURVE SMOOTH",
"357 447 OFFCURVE",
"379 363 OFFCURVE",
"379 281 CURVE SMOOTH"
);
}
);
width = 453;
},
{
anchors = (
{
name = bottom;
position = "{240, 0}";
},
{
name = ogonek;
position = "{319, 10}";
},
{
name = top;
position = "{250, 472}";
}
);
background = {
anchors = (
{
name = bottom;
position = "{240, 0}";
},
{
name = ogonek;
position = "{292, 10}";
},
{
name = top;
position = "{240, 472}";
}
);
paths = (
{
closed = 1;
nodes = (
"30 105 OFFCURVE",
"70 -5 OFFCURVE",
"248 -5 CURVE SMOOTH",
"315 -5 OFFCURVE",
"391 8 OFFCURVE",
"438 41 CURVE SMOOTH",
"454 52 OFFCURVE",
"459 54 OFFCURVE",
"450 72 CURVE SMOOTH",
"426 119 LINE SMOOTH",
"414 143 OFFCURVE",
"407 137 OFFCURVE",
"388 126 CURVE SMOOTH",
"374 118 OFFCURVE",
"330 98 OFFCURVE",
"284 98 CURVE SMOOTH",
"223 98 OFFCURVE",
"187 138 OFFCURVE",
"182 186 CURVE",
"182 195 OFFCURVE",
"182 198 OFFCURVE",
"191 198 CURVE SMOOTH",
"406 198 LINE SMOOTH",
"434 198 OFFCURVE",
"448 214 OFFCURVE",
"448 271 CURVE SMOOTH",
"448 367 OFFCURVE",
"425 478 OFFCURVE",
"247 478 CURVE SMOOTH",
"74 478 OFFCURVE",
"30 360 OFFCURVE",
"30 237 CURVE SMOOTH"
);
},
{
closed = 1;
nodes = (
"301 277 OFFCURVE",
"301 275 OFFCURVE",
"292 275 CURVE SMOOTH",
"256 275 OFFCURVE",
"219 275 OFFCURVE",
"183 275 CURVE SMOOTH",
"177 275 OFFCURVE",
"176 278 OFFCURVE",
"178 300 CURVE SMOOTH",
"183 332 OFFCURVE",
"201 368 OFFCURVE",
"243 368 CURVE SMOOTH",
"280 368 OFFCURVE",
"300 345 OFFCURVE",
"300 295 CURVE SMOOTH"
);
}
);
};
layerId = "D1BC8BBB-1669-4C46-BC21-42BF6808B2B9";
paths = (
{
closed = 1;
nodes = (
"30 103 OFFCURVE",
"70 -8 OFFCURVE",
"248 -8 CURVE SMOOTH",
"315 -8 OFFCURVE",
"391 5 OFFCURVE",
"438 38 CURVE SMOOTH",
"454 49 OFFCURVE",
"459 51 OFFCURVE",
"450 69 CURVE SMOOTH",
"426 116 LINE SMOOTH",
"414 140 OFFCURVE",
"407 134 OFFCURVE",
"388 123 CURVE SMOOTH",
"374 115 OFFCURVE",
"330 95 OFFCURVE",
"284 95 CURVE SMOOTH",
"223 95 OFFCURVE",
"187 136 OFFCURVE",
"182 186 CURVE",
"182 195 OFFCURVE",
"182 198 OFFCURVE",
"191 198 CURVE SMOOTH",
"406 198 LINE SMOOTH",
"434 198 OFFCURVE",
"448 214 OFFCURVE",
"448 271 CURVE SMOOTH",
"448 368 OFFCURVE",
"425 480 OFFCURVE",
"247 480 CURVE SMOOTH",
"74 480 OFFCURVE",
"30 361 OFFCURVE",
"30 237 CURVE SMOOTH"
);
},
{
closed = 1;
nodes = (
"301 277 OFFCURVE",
"301 275 OFFCURVE",
"292 275 CURVE SMOOTH",
"256 275 OFFCURVE",
"219 275 OFFCURVE",
"183 275 CURVE SMOOTH",
"177 275 OFFCURVE",
"176 278 OFFCURVE",
"178 300 CURVE SMOOTH",
"183 333 OFFCURVE",
"201 370 OFFCURVE",
"243 370 CURVE SMOOTH",
"280 370 OFFCURVE",
"300 346 OFFCURVE",
"300 295 CURVE SMOOTH"
);
}
);
width = 479;
}
);
leftKerningGroup = o;
leftMetricsKey = o;
note = e;
rightKerningGroup = e;
unicode = 0065;
},
{
glyphname = f;
lastChange = "2021-06-09 01:47:14 +0000";
layers = (
{
anchors = (
{
name = bottom;
position = "{159, 0}";
},
{
name = top;
position = "{159, 708}";
}
);
background = {
anchors = (
{
name = bottom;
position = "{159, 0}";
},
{
name = top;
position = "{159, 708}";
}
);
paths = (
{
closed = 1;
nodes = (
"112 0 OFFCURVE",
"114 -1 OFFCURVE",
"116 -1 CURVE SMOOTH",
"142 -1 LINE SMOOTH",
"144 -1 OFFCURVE",
"145 0 OFFCURVE",
"145 2 CURVE SMOOTH",
"137 110 OFFCURVE",
"134 320 OFFCURVE",
"134 433 CURVE SMOOTH",
"134 439 OFFCURVE",
"139 442 OFFCURVE",
"143 442 CURVE SMOOTH",
"309 442 LINE SMOOTH",
"310 442 OFFCURVE",
"313 446 OFFCURVE",
"313 446 CURVE",
"313 468 LINE SMOOTH",
"313 470 OFFCURVE",
"310 472 OFFCURVE",
"309 472 CURVE SMOOTH",
"142 472 LINE SMOOTH",
"136 472 OFFCURVE",
"134 476 OFFCURVE",
"134 481 CURVE SMOOTH",
"133 530 OFFCURVE",
"134 578 OFFCURVE",
"152 622 CURVE SMOOTH",
"171 664 OFFCURVE",
"211 681 OFFCURVE",
"282 681 CURVE SMOOTH",
"320 681 OFFCURVE",
"346 675 OFFCURVE",
"359 669 CURVE SMOOTH",
"361 668 OFFCURVE",
"363 668 OFFCURVE",
"363 670 CURVE",
"367 686 LINE SMOOTH",
"367 687 OFFCURVE",
"368 689 OFFCURVE",
"365 691 CURVE SMOOTH",
"354 697 OFFCURVE",
"319 712 OFFCURVE",
"282 712 CURVE SMOOTH",
"210 712 OFFCURVE",
"158 691 OFFCURVE",
"130 650 CURVE SMOOTH",
"97 601 OFFCURVE",
"99 537 OFFCURVE",
"100 480 CURVE SMOOTH",
"100 473 OFFCURVE",
"98 472 OFFCURVE",
"92 472 CURVE SMOOTH",
"24 472 LINE SMOOTH",
"21 472 OFFCURVE",
"20 468 OFFCURVE",
"20 468 CURVE",
"20 446 LINE",
"20 446 OFFCURVE",
"21 442 OFFCURVE",
"24 442 CURVE SMOOTH",
"92 442 LINE SMOOTH",
"98 442 OFFCURVE",
"100 438 OFFCURVE",
"100 433 CURVE SMOOTH",
"101 278 OFFCURVE",
"103 105 OFFCURVE",
"112 2 CURVE SMOOTH"
);
}
);
};
layerId = "707362F1-A677-446A-8636-E10BE3A7FAFF";
paths = (
{
closed = 1;
nodes = (
"112 0 OFFCURVE",
"114 -1 OFFCURVE",
"116 -1 CURVE SMOOTH",
"142 -1 LINE SMOOTH",
"144 -1 OFFCURVE",
"145 0 OFFCURVE",
"145 2 CURVE SMOOTH",
"137 110 OFFCURVE",
"134 320 OFFCURVE",
"134 433 CURVE SMOOTH",
"134 439 OFFCURVE",
"139 442 OFFCURVE",
"143 442 CURVE SMOOTH",
"309 442 LINE SMOOTH",
"310 442 OFFCURVE",
"313 446 OFFCURVE",
"313 446 CURVE",
"313 468 LINE SMOOTH",
"313 470 OFFCURVE",
"310 472 OFFCURVE",
"309 472 CURVE SMOOTH",
"142 472 LINE SMOOTH",
"136 472 OFFCURVE",
"134 476 OFFCURVE",
"134 481 CURVE SMOOTH",
"133 530 OFFCURVE",
"134 578 OFFCURVE",
"152 622 CURVE SMOOTH",
"171 664 OFFCURVE",
"211 681 OFFCURVE",
"282 681 CURVE SMOOTH",
"320 681 OFFCURVE",
"346 675 OFFCURVE",
"359 669 CURVE SMOOTH",
"361 668 OFFCURVE",
"363 668 OFFCURVE",
"363 670 CURVE",
"367 686 LINE SMOOTH",
"367 687 OFFCURVE",
"368 689 OFFCURVE",
"365 691 CURVE SMOOTH",
"354 697 OFFCURVE",
"319 712 OFFCURVE",
"282 712 CURVE SMOOTH",
"210 712 OFFCURVE",
"158 691 OFFCURVE",
"130 650 CURVE SMOOTH",
"97 601 OFFCURVE",
"99 537 OFFCURVE",
"100 480 CURVE SMOOTH",
"100 473 OFFCURVE",
"98 472 OFFCURVE",
"92 472 CURVE SMOOTH",
"24 472 LINE SMOOTH",
"21 472 OFFCURVE",
"20 468 OFFCURVE",
"20 468 CURVE",
"20 446 LINE",
"20 446 OFFCURVE",
"21 442 OFFCURVE",
"24 442 CURVE SMOOTH",
"92 442 LINE SMOOTH",
"98 442 OFFCURVE",
"100 438 OFFCURVE",
"100 433 CURVE SMOOTH",
"101 278 OFFCURVE",
"103 105 OFFCURVE",
"112 2 CURVE SMOOTH"
);
}
);
width = 323;
},
{
anchors = (
{
name = bottom;
position = "{204, 0}";
},
{
name = top;
position = "{204, 687}";
}
);
background = {
anchors = (
{
name = bottom;
position = "{204, 0}";
},
{
name = top;
position = "{204, 687}";
}
);
paths = (
{
closed = 1;
nodes = (
"101 4 OFFCURVE",
"105 0 OFFCURVE",
"112 0 CURVE SMOOTH",
"230 0 LINE SMOOTH",
"240 0 OFFCURVE",
"241 2 OFFCURVE",
"240 18 CURVE SMOOTH",
"240 39 OFFCURVE",
"227 201 OFFCURVE",
"227 356 CURVE SMOOTH",
"227 363 OFFCURVE",
"228 366 OFFCURVE",
"237 366 CURVE SMOOTH",
"349 366 LINE SMOOTH",
"364 366 OFFCURVE",
"366 367 OFFCURVE",
"366 382 CURVE SMOOTH",
"366 453 LINE SMOOTH",
"366 471 OFFCURVE",
"366 472 OFFCURVE",
"351 472 CURVE SMOOTH",
"236 472 LINE SMOOTH",
"228 472 OFFCURVE",
"228 473 OFFCURVE",
"228 481 CURVE SMOOTH",
"228 491 OFFCURVE",
"228 501 OFFCURVE",
"228 511 CURVE SMOOTH",
"228 586 OFFCURVE",
"262 608 OFFCURVE",
"300 608 CURVE SMOOTH",
"330 609 OFFCURVE",
"361 596 OFFCURVE",
"381 583 CURVE SMOOTH",
"391 576 OFFCURVE",
"395 577 OFFCURVE",
"401 595 CURVE SMOOTH",
"422 658 LINE",
"425 671 OFFCURVE",
"423 675 OFFCURVE",
"400 688 CURVE SMOOTH",
"385 695 OFFCURVE",
"345 712 OFFCURVE",
"304 712 CURVE SMOOTH",
"212 712 OFFCURVE",
"151 686 OFFCURVE",
"117 638 CURVE SMOOTH",
"90 600 OFFCURVE",
"83 562 OFFCURVE",
"83 484 CURVE SMOOTH",
"83 473 OFFCURVE",
"82 472 OFFCURVE",
"76 472 CURVE SMOOTH",
"38 472 LINE SMOOTH",
"23 472 OFFCURVE",
"20 473 OFFCURVE",
"20 455 CURVE SMOOTH",
"20 381 LINE SMOOTH",
"20 366 OFFCURVE",
"24 366 OFFCURVE",
"35 366 CURVE SMOOTH",
"74 366 LINE SMOOTH",
"80 366 OFFCURVE",
"83 363 OFFCURVE",
"83 355 CURVE SMOOTH",
"82 271 OFFCURVE",
"88 96 OFFCURVE",
"99 19 CURVE SMOOTH"
);
}
);
};
layerId = "D1BC8BBB-1669-4C46-BC21-42BF6808B2B9";
paths = (
{
closed = 1;
nodes = (
"101 4 OFFCURVE",
"105 0 OFFCURVE",
"112 0 CURVE SMOOTH",
"230 0 LINE SMOOTH",
"240 0 OFFCURVE",
"241 2 OFFCURVE",
"240 18 CURVE SMOOTH",
"240 39 OFFCURVE",
"227 201 OFFCURVE",
"227 356 CURVE SMOOTH",
"227 363 OFFCURVE",
"228 366 OFFCURVE",
"237 366 CURVE SMOOTH",
"349 366 LINE SMOOTH",
"364 366 OFFCURVE",
"366 367 OFFCURVE",
"366 382 CURVE SMOOTH",
"366 453 LINE SMOOTH",
"366 471 OFFCURVE",
"366 472 OFFCURVE",
"351 472 CURVE SMOOTH",
"236 472 LINE SMOOTH",
"228 472 OFFCURVE",
"228 473 OFFCURVE",
"228 481 CURVE SMOOTH",
"228 491 OFFCURVE",
"228 501 OFFCURVE",
"228 511 CURVE SMOOTH",
"228 586 OFFCURVE",
"262 608 OFFCURVE",
"300 608 CURVE SMOOTH",
"330 609 OFFCURVE",
"361 596 OFFCURVE",
"381 583 CURVE SMOOTH",
"391 576 OFFCURVE",
"395 577 OFFCURVE",
"401 595 CURVE SMOOTH",
"422 658 LINE",
"425 671 OFFCURVE",
"423 675 OFFCURVE",
"400 688 CURVE SMOOTH",
"385 695 OFFCURVE",
"345 712 OFFCURVE",
"304 712 CURVE SMOOTH",
"212 712 OFFCURVE",
"151 686 OFFCURVE",
"117 638 CURVE SMOOTH",
"90 600 OFFCURVE",
"83 562 OFFCURVE",
"83 484 CURVE SMOOTH",
"83 473 OFFCURVE",
"82 472 OFFCURVE",
"76 472 CURVE SMOOTH",
"38 472 LINE SMOOTH",
"23 472 OFFCURVE",
"20 473 OFFCURVE",
"20 455 CURVE SMOOTH",
"20 381 LINE SMOOTH",
"20 366 OFFCURVE",
"24 366 OFFCURVE",
"35 366 CURVE SMOOTH",
"74 366 LINE SMOOTH",
"80 366 OFFCURVE",
"83 363 OFFCURVE",
"83 355 CURVE SMOOTH",
"82 271 OFFCURVE",
"88 96 OFFCURVE",
"99 19 CURVE SMOOTH"
);
}
);
width = 383;
}
);
leftKerningGroup = f;
note = f;
rightKerningGroup = f;
unicode = 0066;
},
{
glyphname = g;
lastChange = "2021-06-09 03:28:16 +0000";
layers = (
{
anchors = (
{
name = bottom;
position = "{238, -200}";
},
{
name = top;
position = "{238, 472}";
}
);
background = {
anchors = (
{
name = bottom;
position = "{238, -200}";
},
{
name = top;
position = "{238, 472}";
}
);
paths = (
{
closed = 1;
nodes = (
"43 104 OFFCURVE",
"95 9 OFFCURVE",
"232 9 CURVE SMOOTH",
"273 9 OFFCURVE",
"318 19 OFFCURVE",
"353 29 CURVE SMOOTH",
"363 32 OFFCURVE",
"372 35 OFFCURVE",
"371 26 CURVE SMOOTH",
"371 23 OFFCURVE",
"370 20 OFFCURVE",
"370 18 CURVE SMOOTH",
"354 -74 OFFCURVE",
"292 -112 OFFCURVE",
"219 -112 CURVE SMOOTH",
"164 -112 OFFCURVE",
"121 -93 OFFCURVE",
"83 -73 CURVE SMOOTH",
"81 -72 OFFCURVE",
"76 -71 OFFCURVE",
"75 -74 CURVE",
"72 -79 OFFCURVE",
"69 -85 OFFCURVE",
"66 -90 CURVE",
"65 -93 OFFCURVE",
"64 -94 OFFCURVE",
"72 -100 CURVE SMOOTH",
"112 -129 OFFCURVE",
"168 -140 OFFCURVE",
"213 -140 CURVE SMOOTH",
"327 -140 OFFCURVE",
"391 -91 OFFCURVE",
"404 22 CURVE SMOOTH",
"423 183 OFFCURVE",
"415 327 OFFCURVE",
"405 415 CURVE SMOOTH",
"403 439 OFFCURVE",
"397 450 OFFCURVE",
"385 454 CURVE SMOOTH",
"347 470 OFFCURVE",
"294 478 OFFCURVE",
"243 478 CURVE SMOOTH",
"89 478 OFFCURVE",
"46 374 OFFCURVE",
"45 242 CURVE SMOOTH"
);
},
{
closed = 1;
nodes = (
"78 364 OFFCURVE",
"121 448 OFFCURVE",
"245 448 CURVE SMOOTH",
"285 448 OFFCURVE",
"333 441 OFFCURVE",
"352 432 CURVE SMOOTH",
"371 423 OFFCURVE",
"373 407 OFFCURVE",
"374 397 CURVE SMOOTH",
"381 323 OFFCURVE",
"387 178 OFFCURVE",
"379 87 CURVE SMOOTH",
"378 76 OFFCURVE",
"365 64 OFFCURVE",
"346 57 CURVE SMOOTH",
"316 46 OFFCURVE",
"278 41 OFFCURVE",
"241 41 CURVE SMOOTH",
"118 41 OFFCURVE",
"78 123 OFFCURVE",
"78 242 CURVE SMOOTH"
);
}
);
};
layerId = "707362F1-A677-446A-8636-E10BE3A7FAFF";
paths = (
{
closed = 1;
nodes = (
"43 104 OFFCURVE",
"95 9 OFFCURVE",
"232 9 CURVE SMOOTH",
"273 9 OFFCURVE",
"318 19 OFFCURVE",
"353 29 CURVE SMOOTH",
"363 32 OFFCURVE",
"372 35 OFFCURVE",
"371 26 CURVE SMOOTH",
"371 23 OFFCURVE",
"370 20 OFFCURVE",
"370 18 CURVE SMOOTH",
"354 -74 OFFCURVE",
"292 -112 OFFCURVE",
"219 -112 CURVE SMOOTH",
"164 -112 OFFCURVE",
"121 -93 OFFCURVE",
"83 -73 CURVE SMOOTH",
"81 -72 OFFCURVE",
"76 -71 OFFCURVE",
"75 -74 CURVE",
"72 -79 OFFCURVE",
"69 -85 OFFCURVE",
"66 -90 CURVE",
"65 -93 OFFCURVE",
"64 -94 OFFCURVE",
"72 -100 CURVE SMOOTH",
"112 -129 OFFCURVE",
"168 -140 OFFCURVE",
"213 -140 CURVE SMOOTH",
"327 -140 OFFCURVE",
"391 -91 OFFCURVE",
"404 22 CURVE SMOOTH",
"423 183 OFFCURVE",
"415 327 OFFCURVE",
"405 415 CURVE SMOOTH",
"403 439 OFFCURVE",
"397 450 OFFCURVE",
"385 454 CURVE SMOOTH",
"347 470 OFFCURVE",
"294 478 OFFCURVE",
"243 478 CURVE SMOOTH",
"89 478 OFFCURVE",
"46 374 OFFCURVE",
"45 242 CURVE SMOOTH"
);
},
{
closed = 1;
nodes = (
"78 364 OFFCURVE",
"121 448 OFFCURVE",
"245 448 CURVE SMOOTH",
"285 448 OFFCURVE",
"333 441 OFFCURVE",
"352 432 CURVE SMOOTH",
"371 423 OFFCURVE",
"373 407 OFFCURVE",
"374 397 CURVE SMOOTH",
"381 323 OFFCURVE",
"387 178 OFFCURVE",
"379 87 CURVE SMOOTH",
"378 76 OFFCURVE",
"365 64 OFFCURVE",
"346 57 CURVE SMOOTH",
"316 46 OFFCURVE",
"278 41 OFFCURVE",
"241 41 CURVE SMOOTH",
"118 41 OFFCURVE",
"78 123 OFFCURVE",
"78 242 CURVE SMOOTH"
);
}
);
width = 496;
},
{
anchors = (
{
name = bottom;
position = "{244, -122}";
},
{
name = top;
position = "{244, 472}";
}
);
background = {
anchors = (
{
name = bottom;
position = "{244, -122}";
},
{
name = top;
position = "{244, 472}";
}
);
paths = (
{
closed = 1;
nodes = (
"30 105 OFFCURVE",
"133 45 OFFCURVE",
"235 45 CURVE SMOOTH",
"250 45 OFFCURVE",
"267 46 OFFCURVE",
"274 47 CURVE SMOOTH",
"287 49 OFFCURVE",
"289 40 OFFCURVE",
"288 31 CURVE SMOOTH",
"288 29 OFFCURVE",
"287 28 OFFCURVE",
"287 27 CURVE SMOOTH",
"281 -17 OFFCURVE",
"232 -21 OFFCURVE",
"209 -21 CURVE SMOOTH",
"186 -21 OFFCURVE",
"126 1 OFFCURVE",
"108 14 CURVE SMOOTH",
"92 25 OFFCURVE",
"90 24 OFFCURVE",
"79 6 CURVE SMOOTH",
"72 -5 OFFCURVE",
"53 -38 OFFCURVE",
"47 -48 CURVE SMOOTH",
"40 -59 OFFCURVE",
"48 -71 OFFCURVE",
"53 -75 CURVE SMOOTH",
"108 -115 OFFCURVE",
"172 -127 OFFCURVE",
"223 -127 CURVE SMOOTH",
"349 -127 OFFCURVE",
"425 -74 OFFCURVE",
"440 42 CURVE SMOOTH",
"454 153 OFFCURVE",
"454 281 OFFCURVE",
"441 394 CURVE SMOOTH",
"437 430 OFFCURVE",
"437 440 OFFCURVE",
"400 454 CURVE SMOOTH",
"360 469 OFFCURVE",
"306 478 OFFCURVE",
"253 478 CURVE SMOOTH",
"77 478 OFFCURVE",
"30 378 OFFCURVE",
"30 242 CURVE SMOOTH"
);
},
{
closed = 1;
nodes = (
"184 335 OFFCURVE",
"198 383 OFFCURVE",
"246 383 CURVE SMOOTH",
"267 383 OFFCURVE",
"276 380 OFFCURVE",
"287 375 CURVE SMOOTH",
"292 373 OFFCURVE",
"295 360 OFFCURVE",
"295 354 CURVE SMOOTH",
"297 328 OFFCURVE",
"300 221 OFFCURVE",
"297 176 CURVE SMOOTH",
"296 165 OFFCURVE",
"293 160 OFFCURVE",
"286 157 CURVE SMOOTH",
"275 152 OFFCURVE",
"261 151 OFFCURVE",
"246 151 CURVE SMOOTH",
"196 151 OFFCURVE",
"183 201 OFFCURVE",
"183 267 CURVE SMOOTH"
);
}
);
};
layerId = "D1BC8BBB-1669-4C46-BC21-42BF6808B2B9";
paths = (
{
closed = 1;
nodes = (
"30 105 OFFCURVE",
"133 45 OFFCURVE",
"235 45 CURVE SMOOTH",
"250 45 OFFCURVE",
"267 46 OFFCURVE",
"274 47 CURVE SMOOTH",
"287 49 OFFCURVE",
"289 40 OFFCURVE",
"288 31 CURVE SMOOTH",
"288 29 OFFCURVE",
"287 28 OFFCURVE",
"287 27 CURVE SMOOTH",
"281 -17 OFFCURVE",
"232 -21 OFFCURVE",
"209 -21 CURVE SMOOTH",
"186 -21 OFFCURVE",
"126 1 OFFCURVE",
"108 14 CURVE SMOOTH",
"92 25 OFFCURVE",
"90 24 OFFCURVE",
"79 6 CURVE SMOOTH",
"72 -5 OFFCURVE",
"53 -38 OFFCURVE",
"47 -48 CURVE SMOOTH",
"40 -59 OFFCURVE",
"48 -71 OFFCURVE",
"53 -75 CURVE SMOOTH",
"108 -115 OFFCURVE",
"172 -127 OFFCURVE",
"223 -127 CURVE SMOOTH",
"349 -127 OFFCURVE",
"425 -74 OFFCURVE",
"440 42 CURVE SMOOTH",
"454 153 OFFCURVE",
"454 281 OFFCURVE",
"441 394 CURVE SMOOTH",
"437 430 OFFCURVE",
"437 440 OFFCURVE",
"400 454 CURVE SMOOTH",
"360 469 OFFCURVE",
"306 478 OFFCURVE",
"253 478 CURVE SMOOTH",
"77 478 OFFCURVE",
"30 378 OFFCURVE",
"30 242 CURVE SMOOTH"
);
},
{
closed = 1;
nodes = (
"184 335 OFFCURVE",
"198 383 OFFCURVE",
"246 383 CURVE SMOOTH",
"267 383 OFFCURVE",
"276 380 OFFCURVE",
"287 375 CURVE SMOOTH",
"292 373 OFFCURVE",
"295 360 OFFCURVE",
"295 354 CURVE SMOOTH",
"297 328 OFFCURVE",
"300 221 OFFCURVE",
"297 176 CURVE SMOOTH",
"296 165 OFFCURVE",
"293 160 OFFCURVE",
"286 157 CURVE SMOOTH",
"275 152 OFFCURVE",
"261 151 OFFCURVE",
"246 151 CURVE SMOOTH",
"196 151 OFFCURVE",
"183 201 OFFCURVE",
"183 267 CURVE SMOOTH"
);
}
);
width = 483;
}
);
leftKerningGroup = o;
note = g;
rightKerningGroup = g;
rightMetricsKey = d;
unicode = 0067;
},
{
glyphname = h;
lastChange = "2021-06-09 01:47:25 +0000";
layers = (
{
anchors = (
{
name = bottom;
position = "{229, 0}";
},
{
name = center;
position = "{229, 354}";
},
{
name = top;
position = "{229, 708}";
}
);
background = {
anchors = (
{
name = bottom;
position = "{229, 0}";
},
{
name = center;
position = "{229, 354}";
},
{
name = top;
position = "{229, 708}";
}
);
paths = (
{
closed = 1;
nodes = (
"60 1 OFFCURVE",
"61 0 OFFCURVE",
"64 0 CURVE SMOOTH",
"89 0 LINE SMOOTH",
"92 0 OFFCURVE",
"93 1 OFFCURVE",
"93 4 CURVE SMOOTH",
"93 401 LINE SMOOTH",
"93 419 OFFCURVE",
"102 424 OFFCURVE",
"111 426 CURVE SMOOTH",
"150 435 OFFCURVE",
"198 444 OFFCURVE",
"231 444 CURVE SMOOTH",
"296 444 OFFCURVE",
"370 414 OFFCURVE",
"370 230 CURVE SMOOTH",
"370 157 OFFCURVE",
"367 74 OFFCURVE",
"361 7 CURVE SMOOTH",
"361 1 OFFCURVE",
"362 0 OFFCURVE",
"368 0 CURVE SMOOTH",
"373 0 OFFCURVE",
"379 0 OFFCURVE",
"384 0 CURVE SMOOTH",
"390 0 OFFCURVE",
"393 1 OFFCURVE",
"393 5 CURVE SMOOTH",
"399 70 OFFCURVE",
"403 156 OFFCURVE",
"403 230 CURVE SMOOTH",
"403 433 OFFCURVE",
"316 476 OFFCURVE",
"231 476 CURVE SMOOTH",
"185 476 OFFCURVE",
"144 465 OFFCURVE",
"104 454 CURVE SMOOTH",
"94 451 OFFCURVE",
"93 455 OFFCURVE",
"93 463 CURVE SMOOTH",
"93 543 OFFCURVE",
"93 624 OFFCURVE",
"93 704 CURVE SMOOTH",
"93 707 OFFCURVE",
"92 708 OFFCURVE",
"89 708 CURVE SMOOTH",
"81 708 OFFCURVE",
"72 708 OFFCURVE",
"64 708 CURVE SMOOTH",
"61 708 OFFCURVE",
"60 707 OFFCURVE",
"60 704 CURVE SMOOTH",
"60 471 OFFCURVE",
"60 237 OFFCURVE",
"60 4 CURVE SMOOTH"
);
}
);
};
layerId = "707362F1-A677-446A-8636-E10BE3A7FAFF";
paths = (
{
closed = 1;
nodes = (
"60 1 OFFCURVE",
"61 0 OFFCURVE",
"64 0 CURVE SMOOTH",
"89 0 LINE SMOOTH",
"92 0 OFFCURVE",
"93 1 OFFCURVE",
"93 4 CURVE SMOOTH",
"93 401 LINE SMOOTH",
"93 419 OFFCURVE",
"102 424 OFFCURVE",
"111 426 CURVE SMOOTH",
"150 435 OFFCURVE",
"198 444 OFFCURVE",
"231 444 CURVE SMOOTH",
"296 444 OFFCURVE",
"370 414 OFFCURVE",
"370 230 CURVE SMOOTH",
"370 157 OFFCURVE",
"367 74 OFFCURVE",
"361 7 CURVE SMOOTH",
"361 1 OFFCURVE",
"362 0 OFFCURVE",
"368 0 CURVE SMOOTH",
"373 0 OFFCURVE",
"379 0 OFFCURVE",
"384 0 CURVE SMOOTH",
"390 0 OFFCURVE",
"393 1 OFFCURVE",
"393 5 CURVE SMOOTH",
"399 70 OFFCURVE",
"403 156 OFFCURVE",
"403 230 CURVE SMOOTH",
"403 433 OFFCURVE",
"316 476 OFFCURVE",
"231 476 CURVE SMOOTH",
"185 476 OFFCURVE",
"144 465 OFFCURVE",
"104 454 CURVE SMOOTH",
"94 451 OFFCURVE",
"93 455 OFFCURVE",
"93 463 CURVE SMOOTH",
"93 543 OFFCURVE",
"93 624 OFFCURVE",
"93 704 CURVE SMOOTH",
"93 707 OFFCURVE",
"92 708 OFFCURVE",
"89 708 CURVE SMOOTH",
"81 708 OFFCURVE",
"72 708 OFFCURVE",
"64 708 CURVE SMOOTH",
"61 708 OFFCURVE",
"60 707 OFFCURVE",
"60 704 CURVE SMOOTH",
"60 471 OFFCURVE",
"60 237 OFFCURVE",
"60 4 CURVE SMOOTH"
);
}
);
width = 458;
},
{
anchors = (
{
name = bottom;
position = "{236, 0}";
},
{
name = center;
position = "{236, 344}";
},
{
name = top;
position = "{236, 687}";
}
);
background = {
anchors = (
{
name = bottom;
position = "{236, 0}";
},
{
name = center;
position = "{236, 344}";
},
{
name = top;
position = "{236, 687}";
}
);
paths = (
{
closed = 1;
nodes = (
"40 6 OFFCURVE",
"46 0 OFFCURVE",
"56 0 CURVE SMOOTH",
"173 0 LINE SMOOTH",
"181 0 OFFCURVE",
"187 6 OFFCURVE",
"187 14 CURVE SMOOTH",
"187 347 LINE SMOOTH",
"187 358 OFFCURVE",
"192 365 OFFCURVE",
"200 368 CURVE SMOOTH",
"206 371 OFFCURVE",
"213 372 OFFCURVE",
"220 372 CURVE SMOOTH",
"288 372 OFFCURVE",
"288 294 OFFCURVE",
"286 190 CURVE SMOOTH",
"284 135 OFFCURVE",
"280 78 OFFCURVE",
"274 27 CURVE",
"269 0 OFFCURVE",
"267 0 OFFCURVE",
"291 0 CURVE SMOOTH",
"327 0 OFFCURVE",
"363 0 OFFCURVE",
"399 0 CURVE SMOOTH",
"410 0 OFFCURVE",
"417 1 OFFCURVE",
"418 11 CURVE",
"428 65 OFFCURVE",
"438 163 OFFCURVE",
"435 249 CURVE SMOOTH",
"429 407 OFFCURVE",
"389 479 OFFCURVE",
"260 479 CURVE SMOOTH",
"238 479 OFFCURVE",
"206 473 OFFCURVE",
"200 471 CURVE SMOOTH",
"194 468 OFFCURVE",
"187 468 OFFCURVE",
"187 480 CURVE SMOOTH",
"187 551 OFFCURVE",
"187 623 OFFCURVE",
"187 694 CURVE SMOOTH",
"187 702 OFFCURVE",
"181 708 OFFCURVE",
"173 708 CURVE SMOOTH",
"134 708 OFFCURVE",
"95 708 OFFCURVE",
"56 708 CURVE SMOOTH",
"46 708 OFFCURVE",
"40 702 OFFCURVE",
"40 694 CURVE SMOOTH",
"40 467 OFFCURVE",
"40 241 OFFCURVE",
"40 14 CURVE SMOOTH"
);
}
);
};
layerId = "D1BC8BBB-1669-4C46-BC21-42BF6808B2B9";
paths = (
{
closed = 1;
nodes = (
"40 6 OFFCURVE",
"46 0 OFFCURVE",
"56 0 CURVE SMOOTH",
"173 0 LINE SMOOTH",
"181 0 OFFCURVE",
"187 6 OFFCURVE",
"187 14 CURVE SMOOTH",
"187 347 LINE SMOOTH",
"187 358 OFFCURVE",
"192 365 OFFCURVE",
"200 368 CURVE SMOOTH",
"206 371 OFFCURVE",
"213 372 OFFCURVE",
"220 372 CURVE SMOOTH",
"288 372 OFFCURVE",
"288 294 OFFCURVE",
"286 190 CURVE SMOOTH",
"284 135 OFFCURVE",
"280 78 OFFCURVE",
"274 27 CURVE",
"269 0 OFFCURVE",
"267 0 OFFCURVE",
"291 0 CURVE SMOOTH",
"327 0 OFFCURVE",
"363 0 OFFCURVE",
"399 0 CURVE SMOOTH",
"410 0 OFFCURVE",
"417 1 OFFCURVE",
"418 11 CURVE",
"428 65 OFFCURVE",
"438 163 OFFCURVE",
"435 249 CURVE SMOOTH",
"429 407 OFFCURVE",
"389 479 OFFCURVE",
"260 479 CURVE SMOOTH",
"238 479 OFFCURVE",
"206 473 OFFCURVE",
"200 471 CURVE SMOOTH",
"194 468 OFFCURVE",
"187 468 OFFCURVE",
"187 480 CURVE SMOOTH",
"187 551 OFFCURVE",
"187 623 OFFCURVE",
"187 694 CURVE SMOOTH",
"187 702 OFFCURVE",
"181 708 OFFCURVE",
"173 708 CURVE SMOOTH",
"134 708 OFFCURVE",
"95 708 OFFCURVE",
"56 708 CURVE SMOOTH",
"46 708 OFFCURVE",
"40 702 OFFCURVE",
"40 694 CURVE SMOOTH",
"40 467 OFFCURVE",
"40 241 OFFCURVE",
"40 14 CURVE SMOOTH"
);
}
);
width = 471;
}
);
leftKerningGroup = h;
note = h;
rightKerningGroup = n;
unicode = 0068;
},
{
glyphname = i;
lastChange = "2021-06-09 03:30:10 +0000";
layers = (
{
anchors = (
{
name = bottom;
position = "{103, 0}";
}
);
background = {
anchors = (
{
name = bottom;
position = "{88, 0}";
}
);
paths = (
{
closed = 1;
nodes = (
"120 617 OFFCURVE",
"118 624 OFFCURVE",
"98 624 CURVE SMOOTH",
"79 624 OFFCURVE",
"75 617 OFFCURVE",
"75 603 CURVE SMOOTH",
"75 588 OFFCURVE",
"79 582 OFFCURVE",
"98 582 CURVE SMOOTH",
"118 582 OFFCURVE",
"120 588 OFFCURVE",
"120 603 CURVE SMOOTH"
);
},
{
closed = 1;
nodes = (
"115 468 LINE SMOOTH",
"115 471 OFFCURVE",
"113 472 OFFCURVE",
"112 472 CURVE SMOOTH",
"86 472 LINE SMOOTH",
"83 472 OFFCURVE",
"82 471 OFFCURVE",
"82 468 CURVE SMOOTH",
"82 4 LINE SMOOTH",
"82 1 OFFCURVE",
"83 0 OFFCURVE",
"86 0 CURVE SMOOTH",
"112 0 LINE SMOOTH",
"113 0 OFFCURVE",
"115 1 OFFCURVE",
"115 4 CURVE SMOOTH"
);
}
);
};
layerId = "707362F1-A677-446A-8636-E10BE3A7FAFF";
paths = (
{
closed = 1;
nodes = (
"120 617 OFFCURVE",
"118 624 OFFCURVE",
"98 624 CURVE SMOOTH",
"79 624 OFFCURVE",
"75 617 OFFCURVE",
"75 603 CURVE SMOOTH",
"75 588 OFFCURVE",
"79 582 OFFCURVE",
"98 582 CURVE SMOOTH",
"118 582 OFFCURVE",
"120 588 OFFCURVE",
"120 603 CURVE SMOOTH"
);
},
{
closed = 1;
nodes = (
"115 468 LINE SMOOTH",
"115 471 OFFCURVE",
"113 472 OFFCURVE",
"112 472 CURVE SMOOTH",
"86 472 LINE SMOOTH",
"83 472 OFFCURVE",
"82 471 OFFCURVE",
"82 468 CURVE SMOOTH",
"82 4 LINE SMOOTH",
"82 1 OFFCURVE",
"83 0 OFFCURVE",
"86 0 CURVE SMOOTH",
"112 0 LINE SMOOTH",
"113 0 OFFCURVE",
"115 1 OFFCURVE",
"115 4 CURVE SMOOTH"
);
}
);
width = 195;
},
{
anchors = (
{
name = bottom;
position = "{112, 0}";
}
);
background = {
anchors = (
{
name = bottom;
position = "{112, 0}";
}
);
paths = (
{
closed = 1;
nodes = (
"188 640 OFFCURVE",
"177 667 OFFCURVE",
"112 667 CURVE SMOOTH",
"53 667 OFFCURVE",
"35 640 OFFCURVE",
"35 601 CURVE SMOOTH",
"35 556 OFFCURVE",
"53 532 OFFCURVE",
"112 532 CURVE SMOOTH",
"173 532 OFFCURVE",
"188 556 OFFCURVE",
"188 601 CURVE SMOOTH"
);
},
{
closed = 1;
nodes = (
"185 458 LINE SMOOTH",
"185 466 OFFCURVE",
"178 472 OFFCURVE",
"170 472 CURVE SMOOTH",
"53 472 LINE SMOOTH",
"45 472 OFFCURVE",
"39 466 OFFCURVE",
"39 458 CURVE SMOOTH",
"39 14 LINE SMOOTH",
"39 6 OFFCURVE",
"45 0 OFFCURVE",
"53 0 CURVE SMOOTH",
"170 0 LINE SMOOTH",
"178 0 OFFCURVE",
"185 6 OFFCURVE",
"185 14 CURVE SMOOTH"
);
}
);
};
layerId = "D1BC8BBB-1669-4C46-BC21-42BF6808B2B9";
paths = (
{
closed = 1;
nodes = (
"188 640 OFFCURVE",
"177 667 OFFCURVE",
"112 667 CURVE SMOOTH",
"53 667 OFFCURVE",
"35 640 OFFCURVE",
"35 601 CURVE SMOOTH",
"35 556 OFFCURVE",
"53 532 OFFCURVE",
"112 532 CURVE SMOOTH",
"173 532 OFFCURVE",
"188 556 OFFCURVE",
"188 601 CURVE SMOOTH"
);
},
{
closed = 1;
nodes = (
"185 458 LINE SMOOTH",
"185 466 OFFCURVE",
"178 472 OFFCURVE",
"170 472 CURVE SMOOTH",
"53 472 LINE SMOOTH",
"45 472 OFFCURVE",
"39 466 OFFCURVE",
"39 458 CURVE SMOOTH",
"39 14 LINE SMOOTH",
"39 6 OFFCURVE",
"45 0 OFFCURVE",
"53 0 CURVE SMOOTH",
"170 0 LINE SMOOTH",
"178 0 OFFCURVE",
"185 6 OFFCURVE",
"185 14 CURVE SMOOTH"
);
}
);
width = 215;
}
);
leftKerningGroup = i;
leftMetricsKey = "=n-5";
note = i;
rightKerningGroup = i;
rightMetricsKey = "=d-5";
unicode = 0069;
},
{
glyphname = j;
lastChange = "2021-06-09 03:30:36 +0000";
layers = (
{
background = {
paths = (
{
closed = 1;
nodes = (
"-104 -77 OFFCURVE",
"-85 -84 OFFCURVE",
"-81 -85 CURVE SMOOTH",
"-62 -91 OFFCURVE",
"-35 -94 OFFCURVE",
"-12 -94 CURVE SMOOTH",
"89 -94 OFFCURVE",
"116 -37 OFFCURVE",
"116 63 CURVE SMOOTH",
"116 468 LINE SMOOTH",
"116 471 OFFCURVE",
"113 472 OFFCURVE",
"112 472 CURVE SMOOTH",
"86 472 LINE SMOOTH",
"84 472 OFFCURVE",
"83 471 OFFCURVE",
"83 468 CURVE SMOOTH",
"83 63 LINE SMOOTH",
"83 -21 OFFCURVE",
"66 -65 OFFCURVE",
"-16 -65 CURVE SMOOTH",
"-38 -65 OFFCURVE",
"-64 -60 OFFCURVE",
"-84 -52 CURVE SMOOTH",
"-88 -50 OFFCURVE",
"-90 -51 OFFCURVE",
"-92 -55 CURVE SMOOTH",
"-99 -68 LINE SMOOTH"
);
},
{
closed = 1;
nodes = (
"122 617 OFFCURVE",
"119 624 OFFCURVE",
"99 624 CURVE SMOOTH",
"80 624 OFFCURVE",
"77 617 OFFCURVE",
"77 603 CURVE SMOOTH",
"77 588 OFFCURVE",
"80 582 OFFCURVE",
"99 582 CURVE SMOOTH",
"119 582 OFFCURVE",
"122 588 OFFCURVE",
"122 603 CURVE SMOOTH"
);
}
);
};
layerId = "707362F1-A677-446A-8636-E10BE3A7FAFF";
paths = (
{
closed = 1;
nodes = (
"-104 -77 OFFCURVE",
"-85 -84 OFFCURVE",
"-81 -85 CURVE SMOOTH",
"-62 -91 OFFCURVE",
"-35 -94 OFFCURVE",
"-12 -94 CURVE SMOOTH",
"89 -94 OFFCURVE",
"116 -37 OFFCURVE",
"116 63 CURVE SMOOTH",
"116 468 LINE SMOOTH",
"116 471 OFFCURVE",
"113 472 OFFCURVE",
"112 472 CURVE SMOOTH",
"86 472 LINE SMOOTH",
"84 472 OFFCURVE",
"83 471 OFFCURVE",
"83 468 CURVE SMOOTH",
"83 63 LINE SMOOTH",
"83 -21 OFFCURVE",
"66 -65 OFFCURVE",
"-16 -65 CURVE SMOOTH",
"-38 -65 OFFCURVE",
"-64 -60 OFFCURVE",
"-84 -52 CURVE SMOOTH",
"-88 -50 OFFCURVE",
"-90 -51 OFFCURVE",
"-92 -55 CURVE SMOOTH",
"-99 -68 LINE SMOOTH"
);
},
{
closed = 1;
nodes = (
"122 617 OFFCURVE",
"119 624 OFFCURVE",
"99 624 CURVE SMOOTH",
"80 624 OFFCURVE",
"77 617 OFFCURVE",
"77 603 CURVE SMOOTH",
"77 588 OFFCURVE",
"80 582 OFFCURVE",
"99 582 CURVE SMOOTH",
"119 582 OFFCURVE",
"122 588 OFFCURVE",
"122 603 CURVE SMOOTH"
);
}
);
width = 182;
},
{
background = {
paths = (
{
closed = 1;
nodes = (
"-88 -44 OFFCURVE",
"-86 -48 OFFCURVE",
"-62 -63 CURVE SMOOTH",
"-36 -78 OFFCURVE",
"3 -86 OFFCURVE",
"40 -86 CURVE SMOOTH",
"156 -86 OFFCURVE",
"194 -22 OFFCURVE",
"194 84 CURVE SMOOTH",
"194 458 LINE SMOOTH",
"194 466 OFFCURVE",
"187 472 OFFCURVE",
"179 472 CURVE SMOOTH",
"62 472 LINE SMOOTH",
"54 472 OFFCURVE",
"48 466 OFFCURVE",
"48 458 CURVE SMOOTH",
"48 84 LINE SMOOTH",
"48 40 OFFCURVE",
"22 14 OFFCURVE",
"1 12 CURVE SMOOTH",
"-8 11 OFFCURVE",
"-19 14 OFFCURVE",
"-31 20 CURVE SMOOTH",
"-41 25 OFFCURVE",
"-48 29 OFFCURVE",
"-54 18 CURVE SMOOTH",
"-80 -31 LINE SMOOTH"
);
},
{
closed = 1;
nodes = (
"196 640 OFFCURVE",
"185 667 OFFCURVE",
"120 667 CURVE SMOOTH",
"61 667 OFFCURVE",
"43 640 OFFCURVE",
"43 601 CURVE SMOOTH",
"43 556 OFFCURVE",
"61 532 OFFCURVE",
"120 532 CURVE SMOOTH",
"181 532 OFFCURVE",
"196 556 OFFCURVE",
"196 601 CURVE SMOOTH"
);
}
);
};
layerId = "D1BC8BBB-1669-4C46-BC21-42BF6808B2B9";
paths = (
{
closed = 1;
nodes = (
"-88 -84 OFFCURVE",
"-86 -88 OFFCURVE",
"-62 -103 CURVE SMOOTH",
"-36 -118 OFFCURVE",
"3 -126 OFFCURVE",
"40 -126 CURVE SMOOTH",
"156 -126 OFFCURVE",
"194 -62 OFFCURVE",
"194 44 CURVE SMOOTH",
"194 458 LINE SMOOTH",
"194 466 OFFCURVE",
"187 472 OFFCURVE",
"179 472 CURVE SMOOTH",
"62 472 LINE SMOOTH",
"54 472 OFFCURVE",
"48 466 OFFCURVE",
"48 458 CURVE SMOOTH",
"48 44 LINE SMOOTH",
"48 0 OFFCURVE",
"22 -26 OFFCURVE",
"1 -28 CURVE SMOOTH",
"-8 -29 OFFCURVE",
"-19 -26 OFFCURVE",
"-31 -20 CURVE SMOOTH",
"-41 -15 OFFCURVE",
"-48 -11 OFFCURVE",
"-54 -22 CURVE SMOOTH",
"-80 -71 LINE SMOOTH"
);
},
{
closed = 1;
nodes = (
"196 640 OFFCURVE",
"185 667 OFFCURVE",
"120 667 CURVE SMOOTH",
"61 667 OFFCURVE",
"43 640 OFFCURVE",
"43 601 CURVE SMOOTH",
"43 556 OFFCURVE",
"61 532 OFFCURVE",
"120 532 CURVE SMOOTH",
"181 532 OFFCURVE",
"196 556 OFFCURVE",
"196 601 CURVE SMOOTH"
);
}
);
width = 226;
}
);
leftKerningGroup = j;
note = j;
rightKerningGroup = j;
unicode = 006A;
},
{
glyphname = k;
lastChange = "2021-06-09 03:48:59 +0000";
layers = (
{
anchors = (
{
name = bottom;
position = "{221, 0}";
},
{
name = top;
position = "{221, 708}";
}
);
background = {
anchors = (
{
name = bottom;
position = "{221, 0}";
},
{
name = top;
position = "{221, 708}";
}
);
paths = (
{
closed = 1;
nodes = (
"80 1 OFFCURVE",
"81 0 OFFCURVE",
"84 0 CURVE SMOOTH",
"109 0 LINE SMOOTH",
"112 0 OFFCURVE",
"113 1 OFFCURVE",
"113 4 CURVE SMOOTH",
"113 240 LINE SMOOTH",
"113 243 OFFCURVE",
"115 247 OFFCURVE",
"119 247 CURVE SMOOTH",
"204 247 OFFCURVE",
"216 246 OFFCURVE",
"229 230 CURVE SMOOTH",
"289 164 OFFCURVE",
"347 7 OFFCURVE",
"347 7 CURVE",
"351 -1 OFFCURVE",
"351 0 OFFCURVE",
"356 0 CURVE SMOOTH",
"365 0 OFFCURVE",
"374 0 OFFCURVE",
"383 0 CURVE SMOOTH",
"388 0 OFFCURVE",
"388 4 OFFCURVE",
"386 8 CURVE SMOOTH",
"383 14 OFFCURVE",
"308 195 OFFCURVE",
"252 255 CURVE SMOOTH",
"250 257 OFFCURVE",
"247 260 OFFCURVE",
"245 262 CURVE",
"249 267 OFFCURVE",
"253 272 OFFCURVE",
"258 277 CURVE SMOOTH",
"316 351 OFFCURVE",
"366 466 OFFCURVE",
"366 466 CURVE",
"368 471 OFFCURVE",
"366 472 OFFCURVE",
"362 472 CURVE SMOOTH",
"336 472 LINE SMOOTH",
"332 472 OFFCURVE",
"330 471 OFFCURVE",
"328 465 CURVE",
"308 415 OFFCURVE",
"268 335 OFFCURVE",
"223 286 CURVE SMOOTH",
"213 275 OFFCURVE",
"209 275 OFFCURVE",
"196 275 CURVE SMOOTH",
"170 275 OFFCURVE",
"145 275 OFFCURVE",
"119 275 CURVE SMOOTH",
"114 275 OFFCURVE",
"113 278 OFFCURVE",
"113 281 CURVE SMOOTH",
"113 704 LINE SMOOTH",
"113 707 OFFCURVE",
"112 708 OFFCURVE",
"109 708 CURVE SMOOTH",
"84 708 LINE SMOOTH",
"81 708 OFFCURVE",
"80 707 OFFCURVE",
"80 704 CURVE SMOOTH",
"80 4 LINE SMOOTH"
);
}
);
};
layerId = "707362F1-A677-446A-8636-E10BE3A7FAFF";
paths = (
{
closed = 1;
nodes = (
"80 1 OFFCURVE",
"81 0 OFFCURVE",
"84 0 CURVE SMOOTH",
"109 0 LINE SMOOTH",
"112 0 OFFCURVE",
"113 1 OFFCURVE",
"113 4 CURVE SMOOTH",
"113 240 LINE SMOOTH",
"113 243 OFFCURVE",
"115 247 OFFCURVE",
"119 247 CURVE SMOOTH",
"204 247 OFFCURVE",
"216 246 OFFCURVE",
"229 230 CURVE SMOOTH",
"289 164 OFFCURVE",
"347 7 OFFCURVE",
"347 7 CURVE",
"351 -1 OFFCURVE",
"351 0 OFFCURVE",
"356 0 CURVE SMOOTH",
"365 0 OFFCURVE",
"374 0 OFFCURVE",
"383 0 CURVE SMOOTH",
"388 0 OFFCURVE",
"388 4 OFFCURVE",
"386 8 CURVE SMOOTH",
"383 14 OFFCURVE",
"308 195 OFFCURVE",
"252 255 CURVE SMOOTH",
"250 257 OFFCURVE",
"247 260 OFFCURVE",
"245 262 CURVE",
"249 267 OFFCURVE",
"253 272 OFFCURVE",
"258 277 CURVE SMOOTH",
"316 351 OFFCURVE",
"366 466 OFFCURVE",
"366 466 CURVE",
"368 471 OFFCURVE",
"366 472 OFFCURVE",
"362 472 CURVE SMOOTH",
"336 472 LINE SMOOTH",
"332 472 OFFCURVE",
"330 471 OFFCURVE",
"328 465 CURVE",
"308 415 OFFCURVE",
"268 335 OFFCURVE",
"223 286 CURVE SMOOTH",
"213 275 OFFCURVE",
"209 275 OFFCURVE",
"196 275 CURVE SMOOTH",
"170 275 OFFCURVE",
"145 275 OFFCURVE",
"119 275 CURVE SMOOTH",
"114 275 OFFCURVE",
"113 278 OFFCURVE",
"113 281 CURVE SMOOTH",
"113 704 LINE SMOOTH",
"113 707 OFFCURVE",
"112 708 OFFCURVE",
"109 708 CURVE SMOOTH",
"84 708 LINE SMOOTH",
"81 708 OFFCURVE",
"80 707 OFFCURVE",
"80 704 CURVE SMOOTH",
"80 4 LINE SMOOTH"
);
}
);
width = 422;
},
{
anchors = (
{
name = bottom;
position = "{243, 0}";
},
{
name = top;
position = "{243, 687}";
}
);
background = {
anchors = (
{
name = bottom;
position = "{243, 0}";
},
{
name = top;
position = "{243, 687}";
}
);
paths = (
{
closed = 1;
nodes = (
"40 1 OFFCURVE",
"41 0 OFFCURVE",
"44 0 CURVE SMOOTH",
"183 0 LINE SMOOTH",
"186 0 OFFCURVE",
"187 1 OFFCURVE",
"187 4 CURVE SMOOTH",
"187 185 LINE SMOOTH",
"187 193 OFFCURVE",
"187 198 OFFCURVE",
"189 201 CURVE SMOOTH",
"198 214 OFFCURVE",
"216 183 OFFCURVE",
"223 168 CURVE SMOOTH",
"235 144 OFFCURVE",
"310 7 OFFCURVE",
"310 7 CURVE",
"314 -1 OFFCURVE",
"314 0 OFFCURVE",
"319 0 CURVE SMOOTH",
"328 0 OFFCURVE",
"448 0 OFFCURVE",
"457 0 CURVE SMOOTH",
"462 0 OFFCURVE",
"462 4 OFFCURVE",
"460 8 CURVE SMOOTH",
"457 14 OFFCURVE",
"384 197 OFFCURVE",
"326 255 CURVE SMOOTH",
"324 257 OFFCURVE",
"316 260 OFFCURVE",
"314 262 CURVE",
"318 267 OFFCURVE",
"321 270 OFFCURVE",
"327 277 CURVE SMOOTH",
"382 343 OFFCURVE",
"425 441 OFFCURVE",
"430 455 CURVE",
"432 460 OFFCURVE",
"435 472 OFFCURVE",
"422 472 CURVE SMOOTH",
"304 472 LINE SMOOTH",
"285 472 OFFCURVE",
"280 472 OFFCURVE",
"274 458 CURVE SMOOTH",
"254 408 OFFCURVE",
"242 383 OFFCURVE",
"217 343 CURVE SMOOTH",
"209 330 OFFCURVE",
"206 326 OFFCURVE",
"197 317 CURVE SMOOTH",
"195 315 OFFCURVE",
"191 312 OFFCURVE",
"189 312 CURVE SMOOTH",
"187 312 OFFCURVE",
"187 320 OFFCURVE",
"187 323 CURVE SMOOTH",
"187 674 LINE SMOOTH",
"187 677 OFFCURVE",
"186 678 OFFCURVE",
"183 678 CURVE SMOOTH",
"44 678 LINE SMOOTH",
"41 678 OFFCURVE",
"40 677 OFFCURVE",
"40 674 CURVE SMOOTH",
"40 4 LINE SMOOTH"
);
}
);
};
layerId = "D1BC8BBB-1669-4C46-BC21-42BF6808B2B9";
paths = (
{
closed = 1;
nodes = (
"40 1 OFFCURVE",
"41 0 OFFCURVE",
"44 0 CURVE SMOOTH",
"183 0 LINE SMOOTH",
"186 0 OFFCURVE",
"187 1 OFFCURVE",
"187 4 CURVE SMOOTH",
"187 185 LINE SMOOTH",
"187 193 OFFCURVE",
"187 198 OFFCURVE",
"189 201 CURVE SMOOTH",
"198 214 OFFCURVE",
"216 183 OFFCURVE",
"223 168 CURVE SMOOTH",
"235 144 OFFCURVE",
"310 7 OFFCURVE",
"310 7 CURVE",
"314 -1 OFFCURVE",
"314 0 OFFCURVE",
"319 0 CURVE SMOOTH",
"328 0 OFFCURVE",
"448 0 OFFCURVE",
"457 0 CURVE SMOOTH",
"462 0 OFFCURVE",
"462 4 OFFCURVE",
"460 8 CURVE SMOOTH",
"457 14 OFFCURVE",
"384 197 OFFCURVE",
"326 255 CURVE SMOOTH",
"324 257 OFFCURVE",
"316 260 OFFCURVE",
"314 262 CURVE",
"318 267 OFFCURVE",
"321 270 OFFCURVE",
"327 277 CURVE SMOOTH",
"382 343 OFFCURVE",
"425 441 OFFCURVE",
"430 455 CURVE",
"432 460 OFFCURVE",
"435 472 OFFCURVE",
"422 472 CURVE SMOOTH",
"304 472 LINE SMOOTH",
"285 472 OFFCURVE",
"280 472 OFFCURVE",
"274 458 CURVE SMOOTH",
"254 408 OFFCURVE",
"242 383 OFFCURVE",
"217 343 CURVE SMOOTH",
"209 330 OFFCURVE",
"206 326 OFFCURVE",
"197 317 CURVE SMOOTH",
"195 315 OFFCURVE",
"191 312 OFFCURVE",
"189 312 CURVE SMOOTH",
"187 312 OFFCURVE",
"187 320 OFFCURVE",
"187 323 CURVE SMOOTH",
"187 674 LINE SMOOTH",
"187 677 OFFCURVE",
"186 678 OFFCURVE",
"183 678 CURVE SMOOTH",
"44 678 LINE SMOOTH",
"41 678 OFFCURVE",
"40 677 OFFCURVE",
"40 674 CURVE SMOOTH",
"40 4 LINE SMOOTH"
);
}
);
width = 455;
}
);
leftKerningGroup = l;
leftMetricsKey = n;
note = k;
rightKerningGroup = k;
unicode = 006B;
},
{
glyphname = l;
lastChange = "2021-06-09 01:47:39 +0000";
layers = (
{
anchors = (
{
name = bottom;
position = "{97, 0}";
},
{
name = center;
position = "{97, 354}";
},
{
name = top;
position = "{97, 708}";
},
{
name = topright;
position = "{173, 708}";
}
);
background = {
anchors = (
{
name = bottom;
position = "{97, 0}";
},
{
name = center;
position = "{97, 354}";
},
{
name = top;
position = "{97, 708}";
},
{
name = topright;
position = "{173, 708}";
}
);
paths = (
{
closed = 1;
nodes = (
"80 1 OFFCURVE",
"81 0 OFFCURVE",
"83 0 CURVE SMOOTH",
"109 0 LINE SMOOTH",
"111 0 OFFCURVE",
"113 1 OFFCURVE",
"113 4 CURVE SMOOTH",
"113 704 LINE SMOOTH",
"113 707 OFFCURVE",
"111 708 OFFCURVE",
"109 708 CURVE SMOOTH",
"83 708 LINE SMOOTH",
"81 708 OFFCURVE",
"80 707 OFFCURVE",
"80 704 CURVE SMOOTH",
"80 4 LINE SMOOTH"
);
}
);
};
layerId = "707362F1-A677-446A-8636-E10BE3A7FAFF";
paths = (
{
closed = 1;
nodes = (
"80 1 OFFCURVE",
"81 0 OFFCURVE",
"83 0 CURVE SMOOTH",
"109 0 LINE SMOOTH",
"111 0 OFFCURVE",
"113 1 OFFCURVE",
"113 4 CURVE SMOOTH",
"113 704 LINE SMOOTH",
"113 707 OFFCURVE",
"111 708 OFFCURVE",
"109 708 CURVE SMOOTH",
"83 708 LINE SMOOTH",
"81 708 OFFCURVE",
"80 707 OFFCURVE",
"80 704 CURVE SMOOTH",
"80 4 LINE SMOOTH"
);
}
);
width = 193;
},
{
anchors = (
{
name = bottom;
position = "{114, 0}";
},
{
name = center;
position = "{114, 344}";
},
{
name = top;
position = "{114, 687}";
},
{
name = topright;
position = "{232, 687}";
}
);
background = {
anchors = (
{
name = bottom;
position = "{114, 0}";
},
{
name = center;
position = "{114, 344}";
},
{
name = top;
position = "{114, 687}";
},
{
name = topright;
position = "{232, 687}";
}
);
paths = (
{
closed = 1;
nodes = (
"40 6 OFFCURVE",
"46 0 OFFCURVE",
"56 0 CURVE SMOOTH",
"171 0 LINE SMOOTH",
"181 0 OFFCURVE",
"187 6 OFFCURVE",
"187 14 CURVE SMOOTH",
"187 694 LINE SMOOTH",
"187 702 OFFCURVE",
"181 708 OFFCURVE",
"171 708 CURVE SMOOTH",
"56 708 LINE SMOOTH",
"46 708 OFFCURVE",
"40 702 OFFCURVE",
"40 694 CURVE SMOOTH",
"40 14 LINE SMOOTH"
);
}
);
};
layerId = "D1BC8BBB-1669-4C46-BC21-42BF6808B2B9";
paths = (
{
closed = 1;
nodes = (
"40 6 OFFCURVE",
"46 0 OFFCURVE",
"56 0 CURVE SMOOTH",
"171 0 LINE SMOOTH",
"181 0 OFFCURVE",
"187 6 OFFCURVE",
"187 14 CURVE SMOOTH",
"187 694 LINE SMOOTH",
"187 702 OFFCURVE",
"181 708 OFFCURVE",
"171 708 CURVE SMOOTH",
"56 708 LINE SMOOTH",
"46 708 OFFCURVE",
"40 702 OFFCURVE",
"40 694 CURVE SMOOTH",
"40 14 LINE SMOOTH"
);
}
);
width = 227;
}
);
leftKerningGroup = l;
leftMetricsKey = n;
note = l;
rightKerningGroup = l;
unicode = 006C;
},
{
color = 4;
glyphname = m;
lastChange = "2021-06-09 03:33:40 +0000";
layers = (
{
anchors = (
{
name = bottom;
position = "{384, 0}";
},
{
name = top;
position = "{384, 472}";
}
);
background = {
anchors = (
{
name = bottom;
position = "{384, 0}";
},
{
name = top;
position = "{384, 472}";
}
);
paths = (
{
closed = 1;
nodes = (
"109 0 LINE SMOOTH",
"112 0 OFFCURVE",
"113 1 OFFCURVE",
"113 4 CURVE SMOOTH",
"113 401 LINE SMOOTH",
"113 415 OFFCURVE",
"121 424 OFFCURVE",
"133 428 CURVE SMOOTH",
"157 437 OFFCURVE",
"189 445 OFFCURVE",
"222 445 CURVE SMOOTH",
"332 445 OFFCURVE",
"367 368 OFFCURVE",
"367 253 CURVE SMOOTH",
"367 7 LINE SMOOTH",
"367 2 OFFCURVE",
"369 0 OFFCURVE",
"374 0 CURVE SMOOTH",
"392 0 LINE SMOOTH",
"399 0 OFFCURVE",
"400 3 OFFCURVE",
"400 8 CURVE SMOOTH",
"401 121 OFFCURVE",
"401 182 OFFCURVE",
"400 340 CURVE SMOOTH",
"400 404 OFFCURVE",
"451 445 OFFCURVE",
"512 445 CURVE SMOOTH",
"617 445 OFFCURVE",
"653 354 OFFCURVE",
"653 257 CURVE SMOOTH",
"653 152 OFFCURVE",
"646 28 OFFCURVE",
"645 6 CURVE SMOOTH",
"645 2 OFFCURVE",
"647 0 OFFCURVE",
"652 0 CURVE SMOOTH",
"671 0 LINE SMOOTH",
"675 0 OFFCURVE",
"678 2 OFFCURVE",
"678 7 CURVE SMOOTH",
"679 41 OFFCURVE",
"687 150 OFFCURVE",
"687 253 CURVE SMOOTH",
"687 378 OFFCURVE",
"649 476 OFFCURVE",
"507 476 CURVE SMOOTH",
"459 476 OFFCURVE",
"393 447 OFFCURVE",
"373 398 CURVE",
"348 445 OFFCURVE",
"301 476 OFFCURVE",
"220 476 CURVE SMOOTH",
"171 476 OFFCURVE",
"117 459 OFFCURVE",
"97 451 CURVE SMOOTH",
"86 446 OFFCURVE",
"80 439 OFFCURVE",
"80 421 CURVE SMOOTH",
"80 4 LINE SMOOTH",
"80 1 OFFCURVE",
"81 0 OFFCURVE",
"84 0 CURVE SMOOTH"
);
}
);
};
layerId = "707362F1-A677-446A-8636-E10BE3A7FAFF";
paths = (
{
closed = 1;
nodes = (
"109 0 LINE SMOOTH",
"112 0 OFFCURVE",
"113 1 OFFCURVE",
"113 4 CURVE SMOOTH",
"113 401 LINE SMOOTH",
"113 415 OFFCURVE",
"121 424 OFFCURVE",
"133 428 CURVE SMOOTH",
"157 437 OFFCURVE",
"189 445 OFFCURVE",
"222 445 CURVE SMOOTH",
"332 445 OFFCURVE",
"367 368 OFFCURVE",
"367 253 CURVE SMOOTH",
"367 7 LINE SMOOTH",
"367 2 OFFCURVE",
"369 0 OFFCURVE",
"374 0 CURVE SMOOTH",
"392 0 LINE SMOOTH",
"399 0 OFFCURVE",
"400 3 OFFCURVE",
"400 8 CURVE SMOOTH",
"401 121 OFFCURVE",
"401 182 OFFCURVE",
"400 340 CURVE SMOOTH",
"400 404 OFFCURVE",
"451 445 OFFCURVE",
"512 445 CURVE SMOOTH",
"617 445 OFFCURVE",
"653 354 OFFCURVE",
"653 257 CURVE SMOOTH",
"653 152 OFFCURVE",
"646 28 OFFCURVE",
"645 6 CURVE SMOOTH",
"645 2 OFFCURVE",
"647 0 OFFCURVE",
"652 0 CURVE SMOOTH",
"671 0 LINE SMOOTH",
"675 0 OFFCURVE",
"678 2 OFFCURVE",
"678 7 CURVE SMOOTH",
"679 41 OFFCURVE",
"687 150 OFFCURVE",
"687 253 CURVE SMOOTH",
"687 378 OFFCURVE",
"649 476 OFFCURVE",
"507 476 CURVE SMOOTH",
"459 476 OFFCURVE",
"393 447 OFFCURVE",
"373 398 CURVE",
"348 445 OFFCURVE",
"301 476 OFFCURVE",
"220 476 CURVE SMOOTH",
"171 476 OFFCURVE",
"117 459 OFFCURVE",
"97 451 CURVE SMOOTH",
"86 446 OFFCURVE",
"80 439 OFFCURVE",
"80 421 CURVE SMOOTH",
"80 4 LINE SMOOTH",
"80 1 OFFCURVE",
"81 0 OFFCURVE",
"84 0 CURVE SMOOTH"
);
}
);
width = 759;
},
{
anchors = (
{
name = bottom;
position = "{364, 0}";
},
{
name = top;
position = "{364, 472}";
}
);
background = {
anchors = (
{
name = bottom;
position = "{364, 0}";
},
{
name = top;
position = "{364, 472}";
}
);
paths = (
{
closed = 1;
nodes = (
"171 0 LINE SMOOTH",
"181 0 OFFCURVE",
"186 5 OFFCURVE",
"186 18 CURVE SMOOTH",
"186 344 LINE SMOOTH",
"186 353 OFFCURVE",
"189 356 OFFCURVE",
"196 359 CURVE SMOOTH",
"203 362 OFFCURVE",
"211 363 OFFCURVE",
"219 363 CURVE SMOOTH",
"272 363 OFFCURVE",
"287 316 OFFCURVE",
"287 253 CURVE SMOOTH",
"287 10 LINE SMOOTH",
"287 2 OFFCURVE",
"289 0 OFFCURVE",
"296 0 CURVE SMOOTH",
"420 0 LINE SMOOTH",
"431 0 OFFCURVE",
"434 6 OFFCURVE",
"434 15 CURVE SMOOTH",
"434 123 OFFCURVE",
"434 230 OFFCURVE",
"434 338 CURVE SMOOTH",
"434 357 OFFCURVE",
"438 363 OFFCURVE",
"473 363 CURVE SMOOTH",
"531 363 OFFCURVE",
"535 283 OFFCURVE",
"535 254 CURVE SMOOTH",
"535 173 OFFCURVE",
"532 87 OFFCURVE",
"526 21 CURVE SMOOTH",
"524 4 OFFCURVE",
"525 0 OFFCURVE",
"535 0 CURVE SMOOTH",
"659 0 LINE SMOOTH",
"665 0 OFFCURVE",
"668 1 OFFCURVE",
"669 10 CURVE SMOOTH",
"681 97 OFFCURVE",
"687 147 OFFCURVE",
"687 250 CURVE SMOOTH",
"687 375 OFFCURVE",
"646 476 OFFCURVE",
"487 476 CURVE SMOOTH",
"439 476 OFFCURVE",
"407 461 OFFCURVE",
"365 438 CURVE",
"326 463 OFFCURVE",
"287 476 OFFCURVE",
"219 476 CURVE SMOOTH",
"178 476 OFFCURVE",
"103 460 OFFCURVE",
"63 447 CURVE SMOOTH",
"47 442 OFFCURVE",
"40 435 OFFCURVE",
"40 422 CURVE SMOOTH",
"40 15 LINE SMOOTH",
"40 6 OFFCURVE",
"45 0 OFFCURVE",
"57 0 CURVE SMOOTH"
);
}
);
};
layerId = "D1BC8BBB-1669-4C46-BC21-42BF6808B2B9";
paths = (
{
closed = 1;
nodes = (
"171 0 LINE SMOOTH",
"181 0 OFFCURVE",
"186 5 OFFCURVE",
"186 18 CURVE SMOOTH",
"186 344 LINE SMOOTH",
"186 353 OFFCURVE",
"189 356 OFFCURVE",
"196 359 CURVE SMOOTH",
"203 362 OFFCURVE",
"211 363 OFFCURVE",
"219 363 CURVE SMOOTH",
"272 363 OFFCURVE",
"287 316 OFFCURVE",
"287 253 CURVE SMOOTH",
"287 10 LINE SMOOTH",
"287 2 OFFCURVE",
"289 0 OFFCURVE",
"296 0 CURVE SMOOTH",
"420 0 LINE SMOOTH",
"431 0 OFFCURVE",
"434 6 OFFCURVE",
"434 15 CURVE SMOOTH",
"434 123 OFFCURVE",
"434 230 OFFCURVE",
"434 338 CURVE SMOOTH",
"434 357 OFFCURVE",
"438 363 OFFCURVE",
"473 363 CURVE SMOOTH",
"531 363 OFFCURVE",
"535 283 OFFCURVE",
"535 254 CURVE SMOOTH",
"535 173 OFFCURVE",
"532 87 OFFCURVE",
"526 21 CURVE SMOOTH",
"524 4 OFFCURVE",
"525 0 OFFCURVE",
"535 0 CURVE SMOOTH",
"659 0 LINE SMOOTH",
"665 0 OFFCURVE",
"668 1 OFFCURVE",
"669 10 CURVE SMOOTH",
"681 97 OFFCURVE",
"687 147 OFFCURVE",
"687 250 CURVE SMOOTH",
"687 375 OFFCURVE",
"646 476 OFFCURVE",
"487 476 CURVE SMOOTH",
"439 476 OFFCURVE",
"407 461 OFFCURVE",
"365 438 CURVE",
"326 463 OFFCURVE",
"287 476 OFFCURVE",
"219 476 CURVE SMOOTH",
"178 476 OFFCURVE",
"103 460 OFFCURVE",
"63 447 CURVE SMOOTH",
"47 442 OFFCURVE",
"40 435 OFFCURVE",
"40 422 CURVE SMOOTH",
"40 15 LINE SMOOTH",
"40 6 OFFCURVE",
"45 0 OFFCURVE",
"57 0 CURVE SMOOTH"
);
}
);
width = 715;
}
);
leftKerningGroup = n;
leftMetricsKey = n;
note = m;
rightKerningGroup = n;
rightMetricsKey = n;
unicode = 006D;
},
{
color = 4;
glyphname = n;
lastChange = "2021-06-09 03:33:34 +0000";
layers = (
{
anchors = (
{
name = bottom;
position = "{253, 0}";
},
{
name = top;
position = "{253, 472}";
}
);
background = {
anchors = (
{
name = bottom;
position = "{253, 0}";
},
{
name = top;
position = "{253, 472}";
}
);
paths = (
{
closed = 1;
nodes = (
"109 0 LINE SMOOTH",
"112 0 OFFCURVE",
"113 1 OFFCURVE",
"113 4 CURVE SMOOTH",
"113 136 OFFCURVE",
"113 269 OFFCURVE",
"113 401 CURVE SMOOTH",
"113 415 OFFCURVE",
"124 420 OFFCURVE",
"131 422 CURVE SMOOTH",
"162 434 OFFCURVE",
"203 443 OFFCURVE",
"242 443 CURVE SMOOTH",
"350 443 OFFCURVE",
"392 368 OFFCURVE",
"392 257 CURVE SMOOTH",
"392 152 OFFCURVE",
"384 28 OFFCURVE",
"383 7 CURVE SMOOTH",
"382 1 OFFCURVE",
"383 0 OFFCURVE",
"389 0 CURVE SMOOTH",
"407 0 LINE SMOOTH",
"413 0 OFFCURVE",
"415 1 OFFCURVE",
"416 5 CURVE SMOOTH",
"417 41 OFFCURVE",
"425 150 OFFCURVE",
"425 253 CURVE SMOOTH",
"425 378 OFFCURVE",
"388 476 OFFCURVE",
"242 476 CURVE SMOOTH",
"192 476 OFFCURVE",
"121 458 OFFCURVE",
"94 450 CURVE SMOOTH",
"82 446 OFFCURVE",
"80 440 OFFCURVE",
"80 435 CURVE SMOOTH",
"80 291 OFFCURVE",
"80 148 OFFCURVE",
"80 4 CURVE SMOOTH",
"80 1 OFFCURVE",
"81 0 OFFCURVE",
"84 0 CURVE SMOOTH"
);
}
);
};
layerId = "707362F1-A677-446A-8636-E10BE3A7FAFF";
paths = (
{
closed = 1;
nodes = (
"109 0 LINE SMOOTH",
"112 0 OFFCURVE",
"113 1 OFFCURVE",
"113 4 CURVE SMOOTH",
"113 136 OFFCURVE",
"113 270 OFFCURVE",
"113 402 CURVE SMOOTH",
"113 416 OFFCURVE",
"124 421 OFFCURVE",
"131 423 CURVE SMOOTH",
"162 435 OFFCURVE",
"203 444 OFFCURVE",
"242 444 CURVE SMOOTH",
"350 444 OFFCURVE",
"392 369 OFFCURVE",
"392 257 CURVE SMOOTH",
"392 152 OFFCURVE",
"384 28 OFFCURVE",
"383 7 CURVE SMOOTH",
"382 1 OFFCURVE",
"383 0 OFFCURVE",
"389 0 CURVE SMOOTH",
"407 0 LINE SMOOTH",
"413 0 OFFCURVE",
"415 1 OFFCURVE",
"416 5 CURVE SMOOTH",
"417 41 OFFCURVE",
"425 150 OFFCURVE",
"425 253 CURVE SMOOTH",
"425 379 OFFCURVE",
"388 477 OFFCURVE",
"242 477 CURVE SMOOTH",
"192 477 OFFCURVE",
"121 459 OFFCURVE",
"94 451 CURVE SMOOTH",
"82 447 OFFCURVE",
"80 441 OFFCURVE",
"80 436 CURVE SMOOTH",
"80 292 OFFCURVE",
"80 148 OFFCURVE",
"80 4 CURVE SMOOTH",
"80 1 OFFCURVE",
"81 0 OFFCURVE",
"84 0 CURVE SMOOTH"
);
}
);
width = 497;
},
{
anchors = (
{
name = bottom;
position = "{238, 0}";
},
{
name = top;
position = "{238, 472}";
}
);
background = {
anchors = (
{
name = bottom;
position = "{238, 0}";
},
{
name = top;
position = "{238, 472}";
}
);
paths = (
{
closed = 1;
nodes = (
"174 0 LINE SMOOTH",
"182 0 OFFCURVE",
"186 5 OFFCURVE",
"186 15 CURVE SMOOTH",
"186 129 OFFCURVE",
"186 253 OFFCURVE",
"186 330 CURVE SMOOTH",
"186 353 OFFCURVE",
"189 360 OFFCURVE",
"203 362 CURVE SMOOTH",
"208 363 OFFCURVE",
"214 363 OFFCURVE",
"223 363 CURVE SMOOTH",
"262 363 OFFCURVE",
"287 349 OFFCURVE",
"287 248 CURVE SMOOTH",
"287 194 OFFCURVE",
"277 32 OFFCURVE",
"276 21 CURVE SMOOTH",
"275 4 OFFCURVE",
"281 0 OFFCURVE",
"302 0 CURVE SMOOTH",
"396 0 LINE SMOOTH",
"417 0 OFFCURVE",
"420 0 OFFCURVE",
"423 28 CURVE SMOOTH",
"431 96 OFFCURVE",
"436 181 OFFCURVE",
"436 250 CURVE SMOOTH",
"436 372 OFFCURVE",
"396 476 OFFCURVE",
"227 476 CURVE SMOOTH",
"178 476 OFFCURVE",
"103 460 OFFCURVE",
"79 452 CURVE SMOOTH",
"48 441 OFFCURVE",
"40 438 OFFCURVE",
"40 422 CURVE SMOOTH",
"40 286 OFFCURVE",
"40 151 OFFCURVE",
"40 15 CURVE SMOOTH",
"40 4 OFFCURVE",
"47 0 OFFCURVE",
"57 0 CURVE SMOOTH"
);
}
);
};
layerId = "D1BC8BBB-1669-4C46-BC21-42BF6808B2B9";
paths = (
{
closed = 1;
nodes = (
"174 0 LINE SMOOTH",
"182 0 OFFCURVE",
"186 5 OFFCURVE",
"186 15 CURVE SMOOTH",
"186 130 OFFCURVE",
"186 255 OFFCURVE",
"186 332 CURVE SMOOTH",
"186 355 OFFCURVE",
"189 362 OFFCURVE",
"203 364 CURVE SMOOTH",
"208 365 OFFCURVE",
"214 365 OFFCURVE",
"223 365 CURVE SMOOTH",
"262 365 OFFCURVE",
"287 351 OFFCURVE",
"287 250 CURVE SMOOTH",
"287 196 OFFCURVE",
"277 32 OFFCURVE",
"276 21 CURVE SMOOTH",
"275 4 OFFCURVE",
"281 0 OFFCURVE",
"302 0 CURVE SMOOTH",
"396 0 LINE SMOOTH",
"417 0 OFFCURVE",
"420 0 OFFCURVE",
"423 28 CURVE SMOOTH",
"431 97 OFFCURVE",
"436 182 OFFCURVE",
"436 252 CURVE SMOOTH",
"436 375 OFFCURVE",
"396 480 OFFCURVE",
"227 480 CURVE SMOOTH",
"178 480 OFFCURVE",
"103 464 OFFCURVE",
"79 456 CURVE SMOOTH",
"48 445 OFFCURVE",
"40 442 OFFCURVE",
"40 426 CURVE SMOOTH",
"40 289 OFFCURVE",
"40 152 OFFCURVE",
"40 15 CURVE SMOOTH",
"40 4 OFFCURVE",
"47 0 OFFCURVE",
"57 0 CURVE SMOOTH"
);
}
);
width = 464;
}
);
leftKerningGroup = n;
note = n;
rightKerningGroup = n;
unicode = 006E;
},
{
glyphname = o;
lastChange = "2021-06-09 01:43:06 +0000";
layers = (
{
anchors = (
{
name = bottom;
position = "{243, 0}";
},
{
name = center;
position = "{243, 236}";
},
{
name = ogonek;
position = "{437, 10}";
},
{
name = top;
position = "{243, 472}";
},
{
name = topright;
position = "{296, 472}";
}
);
background = {
anchors = (
{
name = bottom;
position = "{243, 0}";
},
{
name = center;
position = "{243, 236}";
},
{
name = ogonek;
position = "{437, 10}";
},
{
name = top;
position = "{243, 472}";
},
{
name = topright;
position = "{296, 472}";
}
);
paths = (
{
closed = 1;
nodes = (
"400 -7 OFFCURVE",
"441 94 OFFCURVE",
"441 238 CURVE SMOOTH",
"441 382 OFFCURVE",
"392 483 OFFCURVE",
"243 483 CURVE SMOOTH",
"95 483 OFFCURVE",
"45 382 OFFCURVE",
"45 238 CURVE SMOOTH",
"45 93 OFFCURVE",
"86 -7 OFFCURVE",
"243 -7 CURVE SMOOTH"
);
},
{
closed = 1;
nodes = (
"122 22 OFFCURVE",
"78 101 OFFCURVE",
"78 238 CURVE SMOOTH",
"78 375 OFFCURVE",
"130 453 OFFCURVE",
"243 453 CURVE SMOOTH",
"357 453 OFFCURVE",
"408 374 OFFCURVE",
"408 238 CURVE SMOOTH",
"408 103 OFFCURVE",
"365 22 OFFCURVE",
"243 22 CURVE SMOOTH"
);
}
);
};
layerId = "707362F1-A677-446A-8636-E10BE3A7FAFF";
paths = (
{
closed = 1;
nodes = (
"400 -5 OFFCURVE",
"441 94 OFFCURVE",
"441 236 CURVE SMOOTH",
"441 378 OFFCURVE",
"392 477 OFFCURVE",
"243 477 CURVE SMOOTH",
"95 477 OFFCURVE",
"45 378 OFFCURVE",
"45 236 CURVE SMOOTH",
"45 93 OFFCURVE",
"86 -5 OFFCURVE",
"243 -5 CURVE SMOOTH"
);
},
{
closed = 1;
nodes = (
"122 24 OFFCURVE",
"78 101 OFFCURVE",
"78 236 CURVE SMOOTH",
"78 371 OFFCURVE",
"130 447 OFFCURVE",
"243 447 CURVE SMOOTH",
"357 447 OFFCURVE",
"408 370 OFFCURVE",
"408 236 CURVE SMOOTH",
"408 103 OFFCURVE",
"365 24 OFFCURVE",
"243 24 CURVE SMOOTH"
);
}
);
width = 486;
},
{
anchors = (
{
name = bottom;
position = "{253, 0}";
},
{
name = center;
position = "{253, 236}";
},
{
name = ogonek;
position = "{455, 10}";
},
{
name = top;
position = "{254, 472}";
},
{
name = topright;
position = "{285, 472}";
}
);
background = {
anchors = (
{
name = bottom;
position = "{253, 0}";
},
{
name = center;
position = "{253, 236}";
},
{
name = ogonek;
position = "{455, 10}";
},
{
name = top;
position = "{253, 472}";
},
{
name = topright;
position = "{285, 472}";
}
);
paths = (
{
closed = 1;
nodes = (
"431 -6 OFFCURVE",
"476 103 OFFCURVE",
"476 238 CURVE SMOOTH",
"476 374 OFFCURVE",
"420 477 OFFCURVE",
"253 477 CURVE SMOOTH",
"85 477 OFFCURVE",
"30 374 OFFCURVE",
"30 238 CURVE SMOOTH",
"30 101 OFFCURVE",
"74 -6 OFFCURVE",
"253 -6 CURVE SMOOTH"
);
},
{
closed = 1;
nodes = (
"198 105 OFFCURVE",
"178 151 OFFCURVE",
"178 234 CURVE SMOOTH",
"178 315 OFFCURVE",
"202 358 OFFCURVE",
"251 358 CURVE SMOOTH",
"301 358 OFFCURVE",
"325 315 OFFCURVE",
"325 234 CURVE SMOOTH",
"325 152 OFFCURVE",
"306 105 OFFCURVE",
"251 105 CURVE SMOOTH"
);
}
);
};
layerId = "D1BC8BBB-1669-4C46-BC21-42BF6808B2B9";
paths = (
{
closed = 1;
nodes = (
"431 -8 OFFCURVE",
"476 101 OFFCURVE",
"476 239 CURVE SMOOTH",
"476 376 OFFCURVE",
"420 480 OFFCURVE",
"253 480 CURVE SMOOTH",
"85 480 OFFCURVE",
"30 377 OFFCURVE",
"30 239 CURVE SMOOTH",
"30 99 OFFCURVE",
"74 -8 OFFCURVE",
"253 -8 CURVE SMOOTH"
);
},
{
closed = 1;
nodes = (
"198 103 OFFCURVE",
"178 150 OFFCURVE",
"178 235 CURVE SMOOTH",
"178 317 OFFCURVE",
"202 361 OFFCURVE",
"251 361 CURVE SMOOTH",
"301 361 OFFCURVE",
"325 317 OFFCURVE",
"325 235 CURVE SMOOTH",
"325 151 OFFCURVE",
"306 103 OFFCURVE",
"251 103 CURVE SMOOTH"
);
}
);
width = 506;
}
);
leftKerningGroup = o;
note = o;
rightKerningGroup = o;
unicode = 006F;
},
{
glyphname = p;
lastChange = "2021-06-09 01:47:48 +0000";
layers = (
{
anchors = (
{
name = bottom;
position = "{248, 0}";
},
{
name = top;
position = "{248, 472}";
}
);
background = {
anchors = (
{
name = bottom;
position = "{248, 0}";
},
{
name = top;
position = "{248, 472}";
}
);
paths = (
{
closed = 1;
nodes = (
"83 -112 OFFCURVE",
"84 -117 OFFCURVE",
"88 -117 CURVE SMOOTH",
"110 -117 LINE SMOOTH",
"117 -117 OFFCURVE",
"116 -111 OFFCURVE",
"116 -109 CURVE SMOOTH",
"114 -59 OFFCURVE",
"116 -12 OFFCURVE",
"116 5 CURVE SMOOTH",
"116 11 OFFCURVE",
"120 13 OFFCURVE",
"127 9 CURVE",
"149 0 OFFCURVE",
"212 -7 OFFCURVE",
"249 -7 CURVE SMOOTH",
"396 -7 OFFCURVE",
"446 119 OFFCURVE",
"446 245 CURVE SMOOTH",
"446 407 OFFCURVE",
"389 480 OFFCURVE",
"264 480 CURVE SMOOTH",
"202 480 OFFCURVE",
"152 472 OFFCURVE",
"100 455 CURVE SMOOTH",
"90 452 OFFCURVE",
"88 445 OFFCURVE",
"88 439 CURVE SMOOTH",
"83 359 OFFCURVE",
"81 276 OFFCURVE",
"80 194 CURVE SMOOTH",
"79 93 OFFCURVE",
"80 -9 OFFCURVE",
"83 -110 CURVE SMOOTH"
);
},
{
closed = 1;
nodes = (
"112 92 OFFCURVE",
"114 327 OFFCURVE",
"121 417 CURVE SMOOTH",
"121 424 OFFCURVE",
"130 428 OFFCURVE",
"139 432 CURVE SMOOTH",
"173 444 OFFCURVE",
"217 452 OFFCURVE",
"260 452 CURVE SMOOTH",
"355 452 OFFCURVE",
"413 399 OFFCURVE",
"413 245 CURVE SMOOTH",
"413 61 OFFCURVE",
"320 24 OFFCURVE",
"252 24 CURVE SMOOTH",
"219 24 OFFCURVE",
"169 28 OFFCURVE",
"134 39 CURVE SMOOTH",
"126 41 OFFCURVE",
"114 45 OFFCURVE",
"114 58 CURVE SMOOTH"
);
}
);
};
layerId = "707362F1-A677-446A-8636-E10BE3A7FAFF";
paths = (
{
closed = 1;
nodes = (
"83 -112 OFFCURVE",
"84 -117 OFFCURVE",
"88 -117 CURVE SMOOTH",
"110 -117 LINE SMOOTH",
"117 -117 OFFCURVE",
"116 -111 OFFCURVE",
"116 -109 CURVE SMOOTH",
"114 -59 OFFCURVE",
"116 -12 OFFCURVE",
"116 5 CURVE SMOOTH",
"116 11 OFFCURVE",
"120 13 OFFCURVE",
"127 9 CURVE",
"149 0 OFFCURVE",
"212 -7 OFFCURVE",
"249 -7 CURVE SMOOTH",
"396 -7 OFFCURVE",
"446 119 OFFCURVE",
"446 245 CURVE SMOOTH",
"446 407 OFFCURVE",
"389 480 OFFCURVE",
"264 480 CURVE SMOOTH",
"202 480 OFFCURVE",
"152 472 OFFCURVE",
"100 455 CURVE SMOOTH",
"90 452 OFFCURVE",
"88 445 OFFCURVE",
"88 439 CURVE SMOOTH",
"83 359 OFFCURVE",
"81 276 OFFCURVE",
"80 194 CURVE SMOOTH",
"79 93 OFFCURVE",
"80 -9 OFFCURVE",
"83 -110 CURVE SMOOTH"
);
},
{
closed = 1;
nodes = (
"112 92 OFFCURVE",
"114 327 OFFCURVE",
"121 417 CURVE SMOOTH",
"121 424 OFFCURVE",
"130 428 OFFCURVE",
"139 432 CURVE SMOOTH",
"173 444 OFFCURVE",
"217 452 OFFCURVE",
"260 452 CURVE SMOOTH",
"355 452 OFFCURVE",
"413 399 OFFCURVE",
"413 245 CURVE SMOOTH",
"413 61 OFFCURVE",
"320 24 OFFCURVE",
"252 24 CURVE SMOOTH",
"219 24 OFFCURVE",
"169 28 OFFCURVE",
"134 39 CURVE SMOOTH",
"126 41 OFFCURVE",
"114 45 OFFCURVE",
"114 58 CURVE SMOOTH"
);
}
);
width = 496;
},
{
anchors = (
{
name = bottom;
position = "{242, 0}";
},
{
name = top;
position = "{242, 472}";
}
);
background = {
anchors = (
{
name = bottom;
position = "{242, 0}";
},
{
name = top;
position = "{242, 472}";
}
);
paths = (
{
closed = 1;
nodes = (
"50 -105 OFFCURVE",
"57 -106 OFFCURVE",
"69 -106 CURVE SMOOTH",
"178 -106 LINE SMOOTH",
"200 -106 OFFCURVE",
"197 -100 OFFCURVE",
"194 -79 CURVE SMOOTH",
"193 -72 OFFCURVE",
"191 -26 OFFCURVE",
"192 -12 CURVE SMOOTH",
"193 -2 OFFCURVE",
"200 -6 OFFCURVE",
"213 -7 CURVE SMOOTH",
"254 -11 OFFCURVE",
"311 -5 OFFCURVE",
"348 14 CURVE SMOOTH",
"408 45 OFFCURVE",
"458 114 OFFCURVE",
"458 247 CURVE SMOOTH",
"458 408 OFFCURVE",
"378 481 OFFCURVE",
"246 481 CURVE SMOOTH",
"176 481 OFFCURVE",
"116 466 OFFCURVE",
"93 458 CURVE SMOOTH",
"61 447 OFFCURVE",
"57 440 OFFCURVE",
"53 424 CURVE SMOOTH",
"42 386 OFFCURVE",
"40 275 OFFCURVE",
"40 212 CURVE SMOOTH",
"40 42 OFFCURVE",
"43 -58 OFFCURVE",
"49 -96 CURVE SMOOTH"
);
},
{
closed = 1;
nodes = (
"191 212 OFFCURVE",
"192 281 OFFCURVE",
"194 349 CURVE SMOOTH",
"194 356 OFFCURVE",
"195 359 OFFCURVE",
"198 361 CURVE SMOOTH",
"209 366 OFFCURVE",
"226 369 OFFCURVE",
"245 369 CURVE SMOOTH",
"281 369 OFFCURVE",
"309 341 OFFCURVE",
"309 248 CURVE SMOOTH",
"309 137 OFFCURVE",
"272 122 OFFCURVE",
"245 122 CURVE SMOOTH",
"231 122 OFFCURVE",
"211 127 OFFCURVE",
"197 132 CURVE SMOOTH",
"192 133 OFFCURVE",
"191 136 OFFCURVE",
"191 144 CURVE SMOOTH"
);
}
);
};
layerId = "D1BC8BBB-1669-4C46-BC21-42BF6808B2B9";
paths = (
{
closed = 1;
nodes = (
"50 -105 OFFCURVE",
"57 -106 OFFCURVE",
"69 -106 CURVE SMOOTH",
"178 -106 LINE SMOOTH",
"200 -106 OFFCURVE",
"197 -100 OFFCURVE",
"194 -79 CURVE SMOOTH",
"193 -72 OFFCURVE",
"191 -26 OFFCURVE",
"192 -12 CURVE SMOOTH",
"193 -2 OFFCURVE",
"200 -6 OFFCURVE",
"213 -7 CURVE SMOOTH",
"254 -11 OFFCURVE",
"311 -5 OFFCURVE",
"348 14 CURVE SMOOTH",
"408 45 OFFCURVE",
"458 114 OFFCURVE",
"458 247 CURVE SMOOTH",
"458 408 OFFCURVE",
"378 481 OFFCURVE",
"246 481 CURVE SMOOTH",
"176 481 OFFCURVE",
"116 466 OFFCURVE",
"93 458 CURVE SMOOTH",
"61 447 OFFCURVE",
"57 440 OFFCURVE",
"53 424 CURVE SMOOTH",
"42 386 OFFCURVE",
"40 275 OFFCURVE",
"40 212 CURVE SMOOTH",
"40 42 OFFCURVE",
"43 -58 OFFCURVE",
"49 -96 CURVE SMOOTH"
);
},
{
closed = 1;
nodes = (
"191 212 OFFCURVE",
"192 281 OFFCURVE",
"194 349 CURVE SMOOTH",
"194 356 OFFCURVE",
"195 359 OFFCURVE",
"198 361 CURVE SMOOTH",
"209 366 OFFCURVE",
"226 369 OFFCURVE",
"245 369 CURVE SMOOTH",
"281 369 OFFCURVE",
"309 341 OFFCURVE",
"309 248 CURVE SMOOTH",
"309 137 OFFCURVE",
"272 122 OFFCURVE",
"245 122 CURVE SMOOTH",
"231 122 OFFCURVE",
"211 127 OFFCURVE",
"197 132 CURVE SMOOTH",
"192 133 OFFCURVE",
"191 136 OFFCURVE",
"191 144 CURVE SMOOTH"
);
}
);
width = 483;
}
);
leftKerningGroup = b;
note = p;
rightKerningGroup = o;
unicode = 0070;
},
{
glyphname = q;
lastChange = "2021-06-09 01:47:57 +0000";
layers = (
{
anchors = (
{
name = bottom;
position = "{234, 0}";
},
{
name = top;
position = "{234, 472}";
}
);
background = {
anchors = (
{
name = bottom;
position = "{234, 0}";
},
{
name = top;
position = "{234, 472}";
}
);
paths = (
{
closed = 1;
nodes = (
"271 -7 OFFCURVE",
"317 1 OFFCURVE",
"349 9 CURVE",
"356 12 OFFCURVE",
"361 11 OFFCURVE",
"361 5 CURVE SMOOTH",
"361 -12 OFFCURVE",
"360 -59 OFFCURVE",
"356 -109 CURVE SMOOTH",
"356 -111 OFFCURVE",
"355 -117 OFFCURVE",
"362 -117 CURVE SMOOTH",
"384 -117 LINE SMOOTH",
"388 -117 OFFCURVE",
"389 -112 OFFCURVE",
"389 -110 CURVE SMOOTH",
"401 58 OFFCURVE",
"411 295 OFFCURVE",
"407 439 CURVE SMOOTH",
"407 445 OFFCURVE",
"406 452 OFFCURVE",
"395 455 CURVE SMOOTH",
"343 472 OFFCURVE",
"296 480 OFFCURVE",
"234 480 CURVE SMOOTH",
"109 480 OFFCURVE",
"47 407 OFFCURVE",
"40 245 CURVE SMOOTH",
"33 42 OFFCURVE",
"137 -7 OFFCURVE",
"222 -7 CURVE SMOOTH"
);
},
{
closed = 1;
nodes = (
"80 399 OFFCURVE",
"140 452 OFFCURVE",
"236 452 CURVE SMOOTH",
"279 452 OFFCURVE",
"322 444 OFFCURVE",
"356 432 CURVE SMOOTH",
"366 428 OFFCURVE",
"374 424 OFFCURVE",
"372 417 CURVE",
"376 327 OFFCURVE",
"369 92 OFFCURVE",
"365 58 CURVE",
"365 45 OFFCURVE",
"356 41 OFFCURVE",
"348 39 CURVE SMOOTH",
"309 29 OFFCURVE",
"256 25 OFFCURVE",
"223 25 CURVE SMOOTH",
"158 25 OFFCURVE",
"66 61 OFFCURVE",
"73 245 CURVE SMOOTH"
);
}
);
};
layerId = "707362F1-A677-446A-8636-E10BE3A7FAFF";
paths = (
{
closed = 1;
nodes = (
"271 -7 OFFCURVE",
"317 1 OFFCURVE",
"349 9 CURVE",
"356 12 OFFCURVE",
"361 11 OFFCURVE",
"361 5 CURVE SMOOTH",
"361 -12 OFFCURVE",
"360 -59 OFFCURVE",
"356 -109 CURVE SMOOTH",
"356 -111 OFFCURVE",
"355 -117 OFFCURVE",
"362 -117 CURVE SMOOTH",
"384 -117 LINE SMOOTH",
"388 -117 OFFCURVE",
"389 -112 OFFCURVE",
"389 -110 CURVE SMOOTH",
"401 58 OFFCURVE",
"411 295 OFFCURVE",
"407 439 CURVE SMOOTH",
"407 445 OFFCURVE",
"406 452 OFFCURVE",
"395 455 CURVE SMOOTH",
"343 472 OFFCURVE",
"296 480 OFFCURVE",
"234 480 CURVE SMOOTH",
"109 480 OFFCURVE",
"47 407 OFFCURVE",
"40 245 CURVE SMOOTH",
"33 42 OFFCURVE",
"137 -7 OFFCURVE",
"222 -7 CURVE SMOOTH"
);
},
{
closed = 1;
nodes = (
"80 399 OFFCURVE",
"140 452 OFFCURVE",
"236 452 CURVE SMOOTH",
"279 452 OFFCURVE",
"322 444 OFFCURVE",
"356 432 CURVE SMOOTH",
"366 428 OFFCURVE",
"374 424 OFFCURVE",
"372 417 CURVE",
"376 327 OFFCURVE",
"369 92 OFFCURVE",
"365 58 CURVE",
"365 45 OFFCURVE",
"356 41 OFFCURVE",
"348 39 CURVE SMOOTH",
"309 29 OFFCURVE",
"256 25 OFFCURVE",
"223 25 CURVE SMOOTH",
"158 25 OFFCURVE",
"66 61 OFFCURVE",
"73 245 CURVE SMOOTH"
);
}
);
width = 468;
},
{
anchors = (
{
name = bottom;
position = "{248, 0}";
},
{
name = top;
position = "{248, 472}";
}
);
background = {
anchors = (
{
name = bottom;
position = "{248, 0}";
},
{
name = top;
position = "{248, 472}";
}
);
paths = (
{
closed = 1;
nodes = (
"167 -5 OFFCURVE",
"222 -11 OFFCURVE",
"263 -7 CURVE SMOOTH",
"279 -6 OFFCURVE",
"286 -2 OFFCURVE",
"286 -12 CURVE SMOOTH",
"287 -26 OFFCURVE",
"282 -72 OFFCURVE",
"281 -79 CURVE SMOOTH",
"279 -100 OFFCURVE",
"272 -106 OFFCURVE",
"294 -106 CURVE SMOOTH",
"404 -106 LINE SMOOTH",
"414 -106 OFFCURVE",
"422 -105 OFFCURVE",
"425 -96 CURVE",
"439 -30 OFFCURVE",
"460 367 OFFCURVE",
"446 424 CURVE SMOOTH",
"442 440 OFFCURVE",
"438 447 OFFCURVE",
"409 458 CURVE SMOOTH",
"385 466 OFFCURVE",
"324 481 OFFCURVE",
"255 481 CURVE SMOOTH",
"122 481 OFFCURVE",
"38 408 OFFCURVE",
"31 247 CURVE SMOOTH",
"24 114 OFFCURVE",
"72 45 OFFCURVE",
"131 14 CURVE SMOOTH"
);
},
{
closed = 1;
nodes = (
"186 341 OFFCURVE",
"214 369 OFFCURVE",
"250 369 CURVE SMOOTH",
"269 369 OFFCURVE",
"286 366 OFFCURVE",
"298 361 CURVE",
"300 359 OFFCURVE",
"301 356 OFFCURVE",
"300 349 CURVE",
"299 281 OFFCURVE",
"298 212 OFFCURVE",
"294 144 CURVE SMOOTH",
"294 136 OFFCURVE",
"293 133 OFFCURVE",
"288 132 CURVE SMOOTH",
"273 127 OFFCURVE",
"252 122 OFFCURVE",
"239 122 CURVE SMOOTH",
"211 122 OFFCURVE",
"175 137 OFFCURVE",
"181 248 CURVE SMOOTH"
);
}
);
};
layerId = "D1BC8BBB-1669-4C46-BC21-42BF6808B2B9";
paths = (
{
closed = 1;
nodes = (
"167 -5 OFFCURVE",
"222 -11 OFFCURVE",
"263 -7 CURVE SMOOTH",
"279 -6 OFFCURVE",
"286 -2 OFFCURVE",
"286 -12 CURVE SMOOTH",
"287 -26 OFFCURVE",
"282 -72 OFFCURVE",
"281 -79 CURVE SMOOTH",
"279 -100 OFFCURVE",
"272 -106 OFFCURVE",
"294 -106 CURVE SMOOTH",
"404 -106 LINE SMOOTH",
"414 -106 OFFCURVE",
"422 -105 OFFCURVE",
"425 -96 CURVE",
"439 -30 OFFCURVE",
"460 367 OFFCURVE",
"446 424 CURVE SMOOTH",
"442 440 OFFCURVE",
"438 447 OFFCURVE",
"409 458 CURVE SMOOTH",
"385 466 OFFCURVE",
"324 481 OFFCURVE",
"255 481 CURVE SMOOTH",
"122 481 OFFCURVE",
"38 408 OFFCURVE",
"31 247 CURVE SMOOTH",
"24 114 OFFCURVE",
"72 45 OFFCURVE",
"131 14 CURVE SMOOTH"
);
},
{
closed = 1;
nodes = (
"186 341 OFFCURVE",
"214 369 OFFCURVE",
"250 369 CURVE SMOOTH",
"269 369 OFFCURVE",
"286 366 OFFCURVE",
"298 361 CURVE",
"300 359 OFFCURVE",
"301 356 OFFCURVE",
"300 349 CURVE",
"299 281 OFFCURVE",
"298 212 OFFCURVE",
"294 144 CURVE SMOOTH",
"294 136 OFFCURVE",
"293 133 OFFCURVE",
"288 132 CURVE SMOOTH",
"273 127 OFFCURVE",
"252 122 OFFCURVE",
"239 122 CURVE SMOOTH",
"211 122 OFFCURVE",
"175 137 OFFCURVE",
"181 248 CURVE SMOOTH"
);
}
);
width = 496;
}
);
leftKerningGroup = o;
note = q;
rightKerningGroup = d;
unicode = 0071;
},
{
glyphname = r;
lastChange = "2021-06-09 01:48:02 +0000";
layers = (
{
anchors = (
{
name = bottom;
position = "{77, 0}";
},
{
name = top;
position = "{170, 472}";
}
);
background = {
anchors = (
{
name = bottom;
position = "{77, 0}";
},
{
name = top;
position = "{170, 472}";
}
);
paths = (
{
closed = 1;
nodes = (
"171 477 OFFCURVE",
"114 465 OFFCURVE",
"75 447 CURVE SMOOTH",
"65 442 OFFCURVE",
"60 438 OFFCURVE",
"60 419 CURVE SMOOTH",
"60 4 LINE SMOOTH",
"60 1 OFFCURVE",
"61 0 OFFCURVE",
"64 0 CURVE SMOOTH",
"89 0 LINE SMOOTH",
"92 0 OFFCURVE",
"93 1 OFFCURVE",
"93 4 CURVE SMOOTH",
"93 399 LINE SMOOTH",
"93 418 OFFCURVE",
"104 421 OFFCURVE",
"111 425 CURVE SMOOTH",
"126 432 OFFCURVE",
"182 446 OFFCURVE",
"215 446 CURVE SMOOTH",
"245 446 OFFCURVE",
"274 442 OFFCURVE",
"298 434 CURVE SMOOTH",
"301 433 OFFCURVE",
"304 433 OFFCURVE",
"305 437 CURVE SMOOTH",
"310 458 LINE SMOOTH",
"311 463 OFFCURVE",
"305 464 OFFCURVE",
"303 465 CURVE SMOOTH",
"278 473 OFFCURVE",
"249 477 OFFCURVE",
"215 477 CURVE SMOOTH"
);
}
);
};
layerId = "707362F1-A677-446A-8636-E10BE3A7FAFF";
paths = (
{
closed = 1;
nodes = (
"171 477 OFFCURVE",
"114 465 OFFCURVE",
"75 447 CURVE SMOOTH",
"65 442 OFFCURVE",
"60 438 OFFCURVE",
"60 419 CURVE SMOOTH",
"60 4 LINE SMOOTH",
"60 1 OFFCURVE",
"61 0 OFFCURVE",
"64 0 CURVE SMOOTH",
"89 0 LINE SMOOTH",
"92 0 OFFCURVE",
"93 1 OFFCURVE",
"93 4 CURVE SMOOTH",
"93 399 LINE SMOOTH",
"93 418 OFFCURVE",
"104 421 OFFCURVE",
"111 425 CURVE SMOOTH",
"126 432 OFFCURVE",
"182 446 OFFCURVE",
"215 446 CURVE SMOOTH",
"245 446 OFFCURVE",
"274 442 OFFCURVE",
"298 434 CURVE SMOOTH",
"301 433 OFFCURVE",
"304 433 OFFCURVE",
"305 437 CURVE SMOOTH",
"310 458 LINE SMOOTH",
"311 463 OFFCURVE",
"305 464 OFFCURVE",
"303 465 CURVE SMOOTH",
"278 473 OFFCURVE",
"249 477 OFFCURVE",
"215 477 CURVE SMOOTH"
);
}
);
width = 330;
},
{
anchors = (
{
name = bottom;
position = "{111, 0}";
},
{
name = top;
position = "{185, 472}";
}
);
background = {
anchors = (
{
name = bottom;
position = "{111, 0}";
},
{
name = top;
position = "{185, 472}";
}
);
paths = (
{
closed = 1;
nodes = (
"161 476 OFFCURVE",
"98 466 OFFCURVE",
"58 447 CURVE SMOOTH",
"43 440 OFFCURVE",
"40 438 OFFCURVE",
"40 417 CURVE SMOOTH",
"40 20 LINE SMOOTH",
"40 2 OFFCURVE",
"47 0 OFFCURVE",
"54 0 CURVE SMOOTH",
"166 0 LINE SMOOTH",
"181 0 OFFCURVE",
"186 2 OFFCURVE",
"186 24 CURVE SMOOTH",
"186 330 LINE SMOOTH",
"186 348 OFFCURVE",
"192 350 OFFCURVE",
"198 354 CURVE SMOOTH",
"204 358 OFFCURVE",
"210 361 OFFCURVE",
"242 361 CURVE SMOOTH",
"254 361 OFFCURVE",
"287 358 OFFCURVE",
"310 351 CURVE SMOOTH",
"323 347 OFFCURVE",
"326 348 OFFCURVE",
"329 360 CURVE SMOOTH",
"349 431 LINE SMOOTH",
"351 440 OFFCURVE",
"352 445 OFFCURVE",
"337 452 CURVE SMOOTH",
"302 468 OFFCURVE",
"258 476 OFFCURVE",
"204 476 CURVE SMOOTH"
);
}
);
};
layerId = "D1BC8BBB-1669-4C46-BC21-42BF6808B2B9";
paths = (
{
closed = 1;
nodes = (
"161 476 OFFCURVE",
"98 466 OFFCURVE",
"58 447 CURVE SMOOTH",
"43 440 OFFCURVE",
"40 438 OFFCURVE",
"40 417 CURVE SMOOTH",
"40 20 LINE SMOOTH",
"40 2 OFFCURVE",
"47 0 OFFCURVE",
"54 0 CURVE SMOOTH",
"166 0 LINE SMOOTH",
"181 0 OFFCURVE",
"186 2 OFFCURVE",
"186 24 CURVE SMOOTH",
"186 330 LINE SMOOTH",
"186 348 OFFCURVE",
"192 350 OFFCURVE",
"198 354 CURVE SMOOTH",
"204 358 OFFCURVE",
"210 361 OFFCURVE",
"242 361 CURVE SMOOTH",
"254 361 OFFCURVE",
"287 358 OFFCURVE",
"310 351 CURVE SMOOTH",
"323 347 OFFCURVE",
"326 348 OFFCURVE",
"329 360 CURVE SMOOTH",
"349 431 LINE SMOOTH",
"351 440 OFFCURVE",
"352 445 OFFCURVE",
"337 452 CURVE SMOOTH",
"302 468 OFFCURVE",
"258 476 OFFCURVE",
"204 476 CURVE SMOOTH"
);
}
);
width = 360;
}
);
leftKerningGroup = n;
note = r;
rightKerningGroup = r;
unicode = 0072;
},
{
glyphname = s;
lastChange = "2021-06-09 01:48:05 +0000";
layers = (
{
anchors = (
{
name = bottom;
position = "{193, -5}";
},
{
name = top;
position = "{204, 472}";
}
);
background = {
anchors = (
{
name = bottom;
position = "{176, -5}";
},
{
name = top;
position = "{192, 472}";
}
);
paths = (
{
closed = 1;
nodes = (
"37 35 LINE SMOOTH",
"37 33 OFFCURVE",
"37 31 OFFCURVE",
"38 29 CURVE",
"78 6 OFFCURVE",
"146 -5 OFFCURVE",
"180 -5 CURVE SMOOTH",
"255 -5 OFFCURVE",
"346 31 OFFCURVE",
"346 142 CURVE SMOOTH",
"346 249 OFFCURVE",
"270 255 OFFCURVE",
"198 261 CURVE SMOOTH",
"134 267 OFFCURVE",
"72 273 OFFCURVE",
"72 352 CURVE SMOOTH",
"72 401 OFFCURVE",
"122 447 OFFCURVE",
"215 447 CURVE SMOOTH",
"245 447 OFFCURVE",
"302 432 OFFCURVE",
"324 415 CURVE",
"326 414 OFFCURVE",
"330 413 OFFCURVE",
"331 415 CURVE",
"337 437 LINE",
"337 439 OFFCURVE",
"337 441 OFFCURVE",
"336 442 CURVE SMOOTH",
"308 465 OFFCURVE",
"249 477 OFFCURVE",
"215 477 CURVE SMOOTH",
"115 477 OFFCURVE",
"39 430 OFFCURVE",
"39 352 CURVE SMOOTH",
"39 246 OFFCURVE",
"111 237 OFFCURVE",
"181 231 CURVE SMOOTH",
"248 225 OFFCURVE",
"313 222 OFFCURVE",
"313 142 CURVE SMOOTH",
"313 59 OFFCURVE",
"248 25 OFFCURVE",
"180 25 CURVE SMOOTH",
"146 25 OFFCURVE",
"77 39 OFFCURVE",
"46 60 CURVE",
"44 63 OFFCURVE",
"41 63 OFFCURVE",
"41 60 CURVE SMOOTH"
);
}
);
};
layerId = "707362F1-A677-446A-8636-E10BE3A7FAFF";
paths = (
{
closed = 1;
nodes = (
"37 35 LINE SMOOTH",
"36 31 OFFCURVE",
"37 30 OFFCURVE",
"41 28 CURVE SMOOTH",
"75 7 OFFCURVE",
"146 -5 OFFCURVE",
"173 -5 CURVE SMOOTH",
"255 -5 OFFCURVE",
"346 31 OFFCURVE",
"346 142 CURVE SMOOTH",
"346 227 OFFCURVE",
"293 252 OFFCURVE",
"198 261 CURVE SMOOTH",
"120 268 OFFCURVE",
"72 287 OFFCURVE",
"72 345 CURVE SMOOTH",
"72 401 OFFCURVE",
"122 447 OFFCURVE",
"202 447 CURVE SMOOTH",
"245 447 OFFCURVE",
"301 434 OFFCURVE",
"324 415 CURVE SMOOTH",
"326 413 OFFCURVE",
"330 413 OFFCURVE",
"331 415 CURVE SMOOTH",
"337 437 LINE",
"337 439 OFFCURVE",
"337 441 OFFCURVE",
"336 442 CURVE SMOOTH",
"308 465 OFFCURVE",
"249 477 OFFCURVE",
"202 477 CURVE SMOOTH",
"115 477 OFFCURVE",
"39 430 OFFCURVE",
"39 345 CURVE SMOOTH",
"39 267 OFFCURVE",
"96 238 OFFCURVE",
"181 231 CURVE SMOOTH",
"272 223 OFFCURVE",
"313 205 OFFCURVE",
"313 142 CURVE SMOOTH",
"313 59 OFFCURVE",
"248 25 OFFCURVE",
"180 25 CURVE SMOOTH",
"146 25 OFFCURVE",
"78 38 OFFCURVE",
"46 60 CURVE SMOOTH",
"43 62 OFFCURVE",
"41 63 OFFCURVE",
"41 60 CURVE SMOOTH"
);
}
);
width = 384;
},
{
anchors = (
{
name = bottom;
position = "{208, 0}";
},
{
name = top;
position = "{208, 472}";
}
);
background = {
anchors = (
{
name = bottom;
position = "{208, 0}";
},
{
name = top;
position = "{208, 472}";
}
);
paths = (
{
closed = 1;
nodes = (
"25 54 LINE SMOOTH",
"23 46 OFFCURVE",
"28 41 OFFCURVE",
"34 37 CURVE SMOOTH",
"77 6 OFFCURVE",
"157 -5 OFFCURVE",
"196 -5 CURVE SMOOTH",
"283 -5 OFFCURVE",
"390 33 OFFCURVE",
"390 155 CURVE SMOOTH",
"390 267 OFFCURVE",
"282 298 OFFCURVE",
"233 302 CURVE SMOOTH",
"194 304 OFFCURVE",
"171 317 OFFCURVE",
"171 340 CURVE SMOOTH",
"171 358 OFFCURVE",
"193 369 OFFCURVE",
"229 369 CURVE SMOOTH",
"259 369 OFFCURVE",
"303 350 OFFCURVE",
"334 334 CURVE",
"344 330 OFFCURVE",
"353 333 OFFCURVE",
"355 341 CURVE",
"382 414 LINE",
"386 425 OFFCURVE",
"387 427 OFFCURVE",
"373 437 CURVE SMOOTH",
"334 466 OFFCURVE",
"264 477 OFFCURVE",
"230 477 CURVE SMOOTH",
"119 477 OFFCURVE",
"30 427 OFFCURVE",
"30 336 CURVE SMOOTH",
"30 217 OFFCURVE",
"119 194 OFFCURVE",
"171 185 CURVE SMOOTH",
"253 171 OFFCURVE",
"257 156 OFFCURVE",
"256 140 CURVE SMOOTH",
"254 114 OFFCURVE",
"229 105 OFFCURVE",
"194 105 CURVE SMOOTH",
"156 105 OFFCURVE",
"100 113 OFFCURVE",
"66 132 CURVE",
"57 138 OFFCURVE",
"45 144 OFFCURVE",
"41 127 CURVE SMOOTH"
);
}
);
};
layerId = "D1BC8BBB-1669-4C46-BC21-42BF6808B2B9";
paths = (
{
closed = 1;
nodes = (
"25 54 LINE SMOOTH",
"23 46 OFFCURVE",
"28 41 OFFCURVE",
"34 37 CURVE SMOOTH",
"77 6 OFFCURVE",
"157 -5 OFFCURVE",
"196 -5 CURVE SMOOTH",
"283 -5 OFFCURVE",
"390 33 OFFCURVE",
"390 155 CURVE SMOOTH",
"390 265 OFFCURVE",
"308 279 OFFCURVE",
"240 297 CURVE SMOOTH",
"195 309 OFFCURVE",
"171 316 OFFCURVE",
"171 340 CURVE SMOOTH",
"171 358 OFFCURVE",
"193 369 OFFCURVE",
"215 369 CURVE SMOOTH",
"259 369 OFFCURVE",
"303 350 OFFCURVE",
"334 334 CURVE",
"344 330 OFFCURVE",
"353 333 OFFCURVE",
"355 341 CURVE",
"382 414 LINE",
"386 425 OFFCURVE",
"387 429 OFFCURVE",
"373 437 CURVE SMOOTH",
"333 459 OFFCURVE",
"264 477 OFFCURVE",
"215 477 CURVE SMOOTH",
"119 477 OFFCURVE",
"30 427 OFFCURVE",
"30 324 CURVE SMOOTH",
"30 229 OFFCURVE",
"110 200 OFFCURVE",
"173 185 CURVE SMOOTH",
"236 170 OFFCURVE",
"257 158 OFFCURVE",
"256 136 CURVE SMOOTH",
"255 114 OFFCURVE",
"229 105 OFFCURVE",
"194 105 CURVE SMOOTH",
"156 105 OFFCURVE",
"100 116 OFFCURVE",
"66 132 CURVE SMOOTH",
"56 137 OFFCURVE",
"45 144 OFFCURVE",
"41 127 CURVE SMOOTH"
);
}
);
width = 415;
}
);
leftKerningGroup = s;
note = s;
rightKerningGroup = s;
unicode = 0073;
},
{
glyphname = t;
lastChange = "2021-06-09 03:38:59 +0000";
layers = (
{
anchors = (
{
name = bottom;
position = "{200, 0}";
},
{
name = center;
position = "{171, 236}";
},
{
name = top;
position = "{171, 472}";
},
{
name = topright;
position = "{296, 572}";
}
);
background = {
anchors = (
{
name = bottom;
position = "{171, 0}";
},
{
name = center;
position = "{171, 236}";
},
{
name = top;
position = "{171, 472}";
},
{
name = topright;
position = "{296, 572}";
}
);
paths = (
{
closed = 1;
nodes = (
"225 0 OFFCURVE",
"273 5 OFFCURVE",
"293 14 CURVE SMOOTH",
"300 18 OFFCURVE",
"302 19 OFFCURVE",
"300 25 CURVE SMOOTH",
"294 40 LINE SMOOTH",
"292 44 OFFCURVE",
"291 44 OFFCURVE",
"286 42 CURVE SMOOTH",
"263 34 OFFCURVE",
"242 29 OFFCURVE",
"221 29 CURVE SMOOTH",
"160 29 OFFCURVE",
"137 53 OFFCURVE",
"128 100 CURVE SMOOTH",
"115 160 OFFCURVE",
"118 224 OFFCURVE",
"118 283 CURVE SMOOTH",
"118 333 OFFCURVE",
"120 383 OFFCURVE",
"122 433 CURVE SMOOTH",
"122 439 OFFCURVE",
"127 442 OFFCURVE",
"130 442 CURVE SMOOTH",
"269 442 LINE SMOOTH",
"271 442 OFFCURVE",
"273 446 OFFCURVE",
"273 446 CURVE",
"273 468 LINE SMOOTH",
"273 470 OFFCURVE",
"271 472 OFFCURVE",
"269 472 CURVE SMOOTH",
"130 472 LINE SMOOTH",
"124 472 OFFCURVE",
"122 476 OFFCURVE",
"123 481 CURVE",
"127 572 LINE SMOOTH",
"127 575 OFFCURVE",
"125 576 OFFCURVE",
"123 576 CURVE SMOOTH",
"97 576 LINE SMOOTH",
"95 576 OFFCURVE",
"94 575 OFFCURVE",
"94 572 CURVE SMOOTH",
"89 480 LINE SMOOTH",
"89 473 OFFCURVE",
"86 472 OFFCURVE",
"81 472 CURVE SMOOTH",
"24 472 LINE SMOOTH",
"22 472 OFFCURVE",
"20 468 OFFCURVE",
"20 468 CURVE",
"20 446 LINE",
"20 446 OFFCURVE",
"22 442 OFFCURVE",
"24 442 CURVE SMOOTH",
"81 442 LINE SMOOTH",
"86 442 OFFCURVE",
"89 438 OFFCURVE",
"89 433 CURVE SMOOTH",
"86 385 OFFCURVE",
"85 336 OFFCURVE",
"85 287 CURVE SMOOTH",
"85 218 OFFCURVE",
"82 153 OFFCURVE",
"94 96 CURVE SMOOTH",
"105 34 OFFCURVE",
"138 0 OFFCURVE",
"216 0 CURVE SMOOTH"
);
}
);
};
layerId = "707362F1-A677-446A-8636-E10BE3A7FAFF";
paths = (
{
closed = 1;
nodes = (
"225 0 OFFCURVE",
"273 5 OFFCURVE",
"293 14 CURVE SMOOTH",
"300 18 OFFCURVE",
"302 19 OFFCURVE",
"300 25 CURVE SMOOTH",
"294 40 LINE SMOOTH",
"292 44 OFFCURVE",
"291 44 OFFCURVE",
"286 42 CURVE SMOOTH",
"263 34 OFFCURVE",
"242 29 OFFCURVE",
"221 29 CURVE SMOOTH",
"160 29 OFFCURVE",
"137 53 OFFCURVE",
"128 100 CURVE SMOOTH",
"115 160 OFFCURVE",
"118 224 OFFCURVE",
"118 283 CURVE SMOOTH",
"118 333 OFFCURVE",
"120 383 OFFCURVE",
"122 433 CURVE SMOOTH",
"122 439 OFFCURVE",
"127 442 OFFCURVE",
"130 442 CURVE SMOOTH",
"269 442 LINE SMOOTH",
"271 442 OFFCURVE",
"273 446 OFFCURVE",
"273 446 CURVE",
"273 468 LINE SMOOTH",
"273 470 OFFCURVE",
"271 472 OFFCURVE",
"269 472 CURVE SMOOTH",
"130 472 LINE SMOOTH",
"124 472 OFFCURVE",
"122 476 OFFCURVE",
"123 481 CURVE",
"127 572 LINE SMOOTH",
"127 575 OFFCURVE",
"125 576 OFFCURVE",
"123 576 CURVE SMOOTH",
"97 576 LINE SMOOTH",
"95 576 OFFCURVE",
"94 575 OFFCURVE",
"94 572 CURVE SMOOTH",
"89 480 LINE SMOOTH",
"89 473 OFFCURVE",
"86 472 OFFCURVE",
"81 472 CURVE SMOOTH",
"24 472 LINE SMOOTH",
"22 472 OFFCURVE",
"20 468 OFFCURVE",
"20 468 CURVE",
"20 446 LINE",
"20 446 OFFCURVE",
"22 442 OFFCURVE",
"24 442 CURVE SMOOTH",
"81 442 LINE SMOOTH",
"86 442 OFFCURVE",
"89 438 OFFCURVE",
"89 433 CURVE SMOOTH",
"86 385 OFFCURVE",
"85 336 OFFCURVE",
"85 287 CURVE SMOOTH",
"85 218 OFFCURVE",
"82 153 OFFCURVE",
"94 96 CURVE SMOOTH",
"105 34 OFFCURVE",
"138 0 OFFCURVE",
"216 0 CURVE SMOOTH"
);
}
);
width = 306;
},
{
anchors = (
{
name = bottom;
position = "{205, 10}";
},
{
name = center;
position = "{187, 236}";
},
{
name = top;
position = "{187, 472}";
},
{
name = topright;
position = "{353, 573}";
}
);
background = {
anchors = (
{
name = bottom;
position = "{187, 0}";
},
{
name = center;
position = "{187, 236}";
},
{
name = top;
position = "{187, 472}";
},
{
name = topright;
position = "{353, 573}";
}
);
paths = (
{
closed = 1;
nodes = (
"265 0 OFFCURVE",
"292 5 OFFCURVE",
"317 14 CURVE SMOOTH",
"343 24 OFFCURVE",
"352 31 OFFCURVE",
"347 42 CURVE",
"327 111 LINE",
"321 125 OFFCURVE",
"320 130 OFFCURVE",
"303 120 CURVE",
"295 117 OFFCURVE",
"280 111 OFFCURVE",
"265 111 CURVE SMOOTH",
"249 111 OFFCURVE",
"235 118 OFFCURVE",
"229 140 CURVE SMOOTH",
"220 180 OFFCURVE",
"218 226 OFFCURVE",
"218 270 CURVE SMOOTH",
"219 304 OFFCURVE",
"220 337 OFFCURVE",
"221 368 CURVE SMOOTH",
"221 379 OFFCURVE",
"223 383 OFFCURVE",
"233 383 CURVE SMOOTH",
"305 383 LINE SMOOTH",
"320 383 OFFCURVE",
"323 385 OFFCURVE",
"323 400 CURVE SMOOTH",
"323 453 LINE SMOOTH",
"323 471 OFFCURVE",
"323 472 OFFCURVE",
"307 472 CURVE SMOOTH",
"234 472 LINE SMOOTH",
"226 472 OFFCURVE",
"225 473 OFFCURVE",
"226 490 CURVE SMOOTH",
"231 562 LINE SMOOTH",
"232 570 OFFCURVE",
"223 576 OFFCURVE",
"215 576 CURVE SMOOTH",
"101 576 LINE SMOOTH",
"92 576 OFFCURVE",
"87 570 OFFCURVE",
"87 562 CURVE SMOOTH",
"83 491 LINE SMOOTH",
"82 478 OFFCURVE",
"82 472 OFFCURVE",
"72 472 CURVE SMOOTH",
"33 472 LINE SMOOTH",
"17 472 OFFCURVE",
"15 473 OFFCURVE",
"15 455 CURVE SMOOTH",
"15 399 LINE SMOOTH",
"15 383 OFFCURVE",
"18 383 OFFCURVE",
"30 383 CURVE SMOOTH",
"68 383 LINE SMOOTH",
"74 383 OFFCURVE",
"77 381 OFFCURVE",
"77 373 CURVE SMOOTH",
"75 340 OFFCURVE",
"75 319 OFFCURVE",
"75 282 CURVE SMOOTH",
"75 225 OFFCURVE",
"74 166 OFFCURVE",
"85 110 CURVE SMOOTH",
"100 40 OFFCURVE",
"142 0 OFFCURVE",
"235 0 CURVE SMOOTH"
);
}
);
};
layerId = "D1BC8BBB-1669-4C46-BC21-42BF6808B2B9";
paths = (
{
closed = 1;
nodes = (
"265 0 OFFCURVE",
"292 5 OFFCURVE",
"317 14 CURVE SMOOTH",
"343 24 OFFCURVE",
"352 31 OFFCURVE",
"347 42 CURVE",
"327 111 LINE",
"321 125 OFFCURVE",
"320 130 OFFCURVE",
"303 120 CURVE",
"295 117 OFFCURVE",
"280 111 OFFCURVE",
"265 111 CURVE SMOOTH",
"249 111 OFFCURVE",
"235 118 OFFCURVE",
"229 140 CURVE SMOOTH",
"220 180 OFFCURVE",
"218 226 OFFCURVE",
"218 270 CURVE SMOOTH",
"219 304 OFFCURVE",
"220 337 OFFCURVE",
"221 368 CURVE SMOOTH",
"221 379 OFFCURVE",
"223 383 OFFCURVE",
"233 383 CURVE SMOOTH",
"305 383 LINE SMOOTH",
"320 383 OFFCURVE",
"323 385 OFFCURVE",
"323 400 CURVE SMOOTH",
"323 453 LINE SMOOTH",
"323 471 OFFCURVE",
"323 472 OFFCURVE",
"307 472 CURVE SMOOTH",
"234 472 LINE SMOOTH",
"226 472 OFFCURVE",
"225 473 OFFCURVE",
"226 490 CURVE SMOOTH",
"231 562 LINE SMOOTH",
"232 570 OFFCURVE",
"223 576 OFFCURVE",
"215 576 CURVE SMOOTH",
"101 576 LINE SMOOTH",
"92 576 OFFCURVE",
"87 570 OFFCURVE",
"87 562 CURVE SMOOTH",
"83 491 LINE SMOOTH",
"82 478 OFFCURVE",
"82 472 OFFCURVE",
"72 472 CURVE SMOOTH",
"33 472 LINE SMOOTH",
"17 472 OFFCURVE",
"15 473 OFFCURVE",
"15 455 CURVE SMOOTH",
"15 399 LINE SMOOTH",
"15 383 OFFCURVE",
"18 383 OFFCURVE",
"30 383 CURVE SMOOTH",
"68 383 LINE SMOOTH",
"74 383 OFFCURVE",
"77 381 OFFCURVE",
"77 373 CURVE SMOOTH",
"75 340 OFFCURVE",
"75 319 OFFCURVE",
"75 282 CURVE SMOOTH",
"75 225 OFFCURVE",
"74 166 OFFCURVE",
"85 110 CURVE SMOOTH",
"100 40 OFFCURVE",
"142 0 OFFCURVE",
"235 0 CURVE SMOOTH"
);
}
);
width = 368;
}
);
leftKerningGroup = t;
note = t;
rightKerningGroup = t;
unicode = 0074;
},
{
glyphname = u;
lastChange = "2021-06-09 03:31:56 +0000";
layers = (
{
anchors = (
{
name = bottom;
position = "{243, 0}";
},
{
name = ogonek;
position = "{309, 10}";
},
{
name = top;
position = "{245, 472}";
},
{
name = topright;
position = "{365, 472}";
}
);
background = {
anchors = (
{
name = bottom;
position = "{243, 0}";
},
{
name = ogonek;
position = "{265, 10}";
},
{
name = top;
position = "{243, 472}";
},
{
name = topright;
position = "{365, 472}";
}
);
paths = (
{
closed = 1;
nodes = (
"302 -4 OFFCURVE",
"373 13 OFFCURVE",
"387 19 CURVE SMOOTH",
"409 27 OFFCURVE",
"415 32 OFFCURVE",
"415 48 CURVE SMOOTH",
"415 468 LINE SMOOTH",
"415 471 OFFCURVE",
"413 472 OFFCURVE",
"411 472 CURVE SMOOTH",
"385 472 LINE SMOOTH",
"383 472 OFFCURVE",
"382 471 OFFCURVE",
"382 468 CURVE SMOOTH",
"382 71 LINE SMOOTH",
"382 38 OFFCURVE",
"278 28 OFFCURVE",
"251 28 CURVE SMOOTH",
"145 28 OFFCURVE",
"103 104 OFFCURVE",
"103 215 CURVE SMOOTH",
"103 320 OFFCURVE",
"110 444 OFFCURVE",
"111 465 CURVE SMOOTH",
"112 471 OFFCURVE",
"111 472 OFFCURVE",
"105 472 CURVE SMOOTH",
"88 472 LINE SMOOTH",
"82 472 OFFCURVE",
"79 471 OFFCURVE",
"78 467 CURVE",
"77 431 OFFCURVE",
"70 322 OFFCURVE",
"70 219 CURVE SMOOTH",
"70 94 OFFCURVE",
"107 -4 OFFCURVE",
"253 -4 CURVE SMOOTH"
);
}
);
};
layerId = "707362F1-A677-446A-8636-E10BE3A7FAFF";
paths = (
{
closed = 1;
nodes = (
"302 -4 OFFCURVE",
"373 13 OFFCURVE",
"387 19 CURVE SMOOTH",
"409 27 OFFCURVE",
"415 32 OFFCURVE",
"415 48 CURVE SMOOTH",
"415 468 LINE SMOOTH",
"415 471 OFFCURVE",
"413 472 OFFCURVE",
"411 472 CURVE SMOOTH",
"385 472 LINE SMOOTH",
"383 472 OFFCURVE",
"382 471 OFFCURVE",
"382 468 CURVE SMOOTH",
"382 71 LINE SMOOTH",
"382 38 OFFCURVE",
"278 28 OFFCURVE",
"251 28 CURVE SMOOTH",
"145 28 OFFCURVE",
"103 104 OFFCURVE",
"103 215 CURVE SMOOTH",
"103 320 OFFCURVE",
"110 444 OFFCURVE",
"111 465 CURVE SMOOTH",
"112 471 OFFCURVE",
"111 472 OFFCURVE",
"105 472 CURVE SMOOTH",
"88 472 LINE SMOOTH",
"82 472 OFFCURVE",
"79 471 OFFCURVE",
"78 467 CURVE",
"77 431 OFFCURVE",
"70 322 OFFCURVE",
"70 219 CURVE SMOOTH",
"70 94 OFFCURVE",
"107 -4 OFFCURVE",
"253 -4 CURVE SMOOTH"
);
}
);
width = 495;
},
{
anchors = (
{
name = bottom;
position = "{233, 0}";
},
{
name = ogonek;
position = "{348, 24}";
},
{
name = top;
position = "{243, 472}";
},
{
name = topright;
position = "{301, 472}";
}
);
background = {
anchors = (
{
name = bottom;
position = "{233, 0}";
},
{
name = ogonek;
position = "{273, 20}";
},
{
name = top;
position = "{233, 472}";
},
{
name = topright;
position = "{301, 472}";
}
);
paths = (
{
closed = 1;
nodes = (
"294 -4 OFFCURVE",
"369 12 OFFCURVE",
"393 20 CURVE SMOOTH",
"424 31 OFFCURVE",
"431 34 OFFCURVE",
"431 50 CURVE SMOOTH",
"431 457 LINE SMOOTH",
"431 471 OFFCURVE",
"420 472 OFFCURVE",
"415 472 CURVE SMOOTH",
"295 472 LINE SMOOTH",
"286 472 OFFCURVE",
"286 460 OFFCURVE",
"286 452 CURVE SMOOTH",
"286 125 LINE SMOOTH",
"286 109 OFFCURVE",
"260 109 OFFCURVE",
"249 109 CURVE SMOOTH",
"204 109 OFFCURVE",
"187 139 OFFCURVE",
"187 218 CURVE SMOOTH",
"187 298 OFFCURVE",
"195 440 OFFCURVE",
"196 451 CURVE SMOOTH",
"200 478 OFFCURVE",
"190 472 OFFCURVE",
"170 472 CURVE SMOOTH",
"76 472 LINE SMOOTH",
"55 472 OFFCURVE",
"52 472 OFFCURVE",
"49 444 CURVE SMOOTH",
"40 376 OFFCURVE",
"35 291 OFFCURVE",
"35 222 CURVE SMOOTH",
"35 100 OFFCURVE",
"76 -4 OFFCURVE",
"245 -4 CURVE SMOOTH"
);
}
);
};
layerId = "D1BC8BBB-1669-4C46-BC21-42BF6808B2B9";
paths = (
{
closed = 1;
nodes = (
"294 -4 OFFCURVE",
"369 12 OFFCURVE",
"393 20 CURVE SMOOTH",
"424 31 OFFCURVE",
"431 34 OFFCURVE",
"431 50 CURVE SMOOTH",
"431 457 LINE SMOOTH",
"431 471 OFFCURVE",
"420 472 OFFCURVE",
"415 472 CURVE SMOOTH",
"295 472 LINE SMOOTH",
"286 472 OFFCURVE",
"286 460 OFFCURVE",
"286 452 CURVE SMOOTH",
"286 125 LINE SMOOTH",
"286 109 OFFCURVE",
"260 109 OFFCURVE",
"249 109 CURVE SMOOTH",
"204 109 OFFCURVE",
"187 139 OFFCURVE",
"187 218 CURVE SMOOTH",
"187 298 OFFCURVE",
"195 440 OFFCURVE",
"196 451 CURVE SMOOTH",
"200 478 OFFCURVE",
"190 472 OFFCURVE",
"170 472 CURVE SMOOTH",
"76 472 LINE SMOOTH",
"55 472 OFFCURVE",
"52 472 OFFCURVE",
"49 444 CURVE SMOOTH",
"40 376 OFFCURVE",
"35 291 OFFCURVE",
"35 222 CURVE SMOOTH",
"35 100 OFFCURVE",
"76 -4 OFFCURVE",
"245 -4 CURVE SMOOTH"
);
}
);
width = 471;
}
);
leftKerningGroup = u;
note = u;
rightKerningGroup = l;
rightMetricsKey = l;
unicode = 0075;
},
{
glyphname = v;
lastChange = "2021-06-09 01:48:20 +0000";
layers = (
{
anchors = (
{
name = bottom;
position = "{194, 0}";
},
{
name = top;
position = "{194, 472}";
}
);
background = {
anchors = (
{
name = bottom;
position = "{194, 0}";
},
{
name = top;
position = "{194, 472}";
}
);
paths = (
{
closed = 1;
nodes = (
"212 0 LINE SMOOTH",
"215 0 OFFCURVE",
"218 1 OFFCURVE",
"220 6 CURVE SMOOTH",
"251 67 OFFCURVE",
"278 137 OFFCURVE",
"300 204 CURVE SMOOTH",
"333 306 OFFCURVE",
"355 403 OFFCURVE",
"363 465 CURVE SMOOTH",
"364 471 OFFCURVE",
"362 472 OFFCURVE",
"358 472 CURVE SMOOTH",
"335 472 LINE SMOOTH",
"331 472 OFFCURVE",
"327 471 OFFCURVE",
"326 465 CURVE SMOOTH",
"319 410 OFFCURVE",
"297 317 OFFCURVE",
"272 230 CURVE SMOOTH",
"248 150 OFFCURVE",
"221 76 OFFCURVE",
"200 44 CURVE SMOOTH",
"198 40 OFFCURVE",
"193 39 OFFCURVE",
"191 44 CURVE",
"168 80 OFFCURVE",
"136 168 OFFCURVE",
"110 257 CURVE SMOOTH",
"87 336 OFFCURVE",
"68 416 OFFCURVE",
"62 465 CURVE SMOOTH",
"61 471 OFFCURVE",
"57 472 OFFCURVE",
"54 472 CURVE SMOOTH",
"30 472 LINE SMOOTH",
"27 472 OFFCURVE",
"24 471 OFFCURVE",
"25 465 CURVE SMOOTH",
"34 400 OFFCURVE",
"58 296 OFFCURVE",
"93 190 CURVE SMOOTH",
"114 127 OFFCURVE",
"139 63 OFFCURVE",
"168 6 CURVE SMOOTH",
"171 0 OFFCURVE",
"173 0 OFFCURVE",
"178 0 CURVE SMOOTH"
);
}
);
};
layerId = "707362F1-A677-446A-8636-E10BE3A7FAFF";
paths = (
{
closed = 1;
nodes = (
"212 0 LINE SMOOTH",
"215 0 OFFCURVE",
"218 1 OFFCURVE",
"220 6 CURVE SMOOTH",
"251 67 OFFCURVE",
"278 137 OFFCURVE",
"300 204 CURVE SMOOTH",
"333 306 OFFCURVE",
"355 403 OFFCURVE",
"363 465 CURVE SMOOTH",
"364 471 OFFCURVE",
"362 472 OFFCURVE",
"358 472 CURVE SMOOTH",
"335 472 LINE SMOOTH",
"331 472 OFFCURVE",
"327 471 OFFCURVE",
"326 465 CURVE SMOOTH",
"319 410 OFFCURVE",
"297 317 OFFCURVE",
"272 230 CURVE SMOOTH",
"248 150 OFFCURVE",
"221 76 OFFCURVE",
"200 44 CURVE SMOOTH",
"198 40 OFFCURVE",
"193 39 OFFCURVE",
"191 44 CURVE",
"168 80 OFFCURVE",
"136 168 OFFCURVE",
"110 257 CURVE SMOOTH",
"87 336 OFFCURVE",
"68 416 OFFCURVE",
"62 465 CURVE SMOOTH",
"61 471 OFFCURVE",
"57 472 OFFCURVE",
"54 472 CURVE SMOOTH",
"30 472 LINE SMOOTH",
"27 472 OFFCURVE",
"24 471 OFFCURVE",
"25 465 CURVE SMOOTH",
"34 400 OFFCURVE",
"58 296 OFFCURVE",
"93 190 CURVE SMOOTH",
"114 127 OFFCURVE",
"139 63 OFFCURVE",
"168 6 CURVE SMOOTH",
"171 0 OFFCURVE",
"173 0 OFFCURVE",
"178 0 CURVE SMOOTH"
);
}
);
width = 388;
},
{
anchors = (
{
name = bottom;
position = "{215, 0}";
},
{
name = top;
position = "{215, 472}";
}
);
background = {
anchors = (
{
name = bottom;
position = "{215, 0}";
},
{
name = top;
position = "{215, 472}";
}
);
paths = (
{
closed = 1;
nodes = (
"258 -1 LINE SMOOTH",
"262 -1 OFFCURVE",
"264 0 OFFCURVE",
"267 5 CURVE SMOOTH",
"304 70 OFFCURVE",
"329 129 OFFCURVE",
"349 186 CURVE SMOOTH",
"383 281 OFFCURVE",
"406 373 OFFCURVE",
"419 464 CURVE SMOOTH",
"420 470 OFFCURVE",
"418 471 OFFCURVE",
"414 471 CURVE SMOOTH",
"282 471 LINE SMOOTH",
"280 471 OFFCURVE",
"278 470 OFFCURVE",
"277 466 CURVE",
"274 429 OFFCURVE",
"264 366 OFFCURVE",
"253 308 CURVE SMOOTH",
"242 254 OFFCURVE",
"237 228 OFFCURVE",
"230 206 CURVE SMOOTH",
"226 195 OFFCURVE",
"218 192 OFFCURVE",
"214 206 CURVE SMOOTH",
"204 242 OFFCURVE",
"196 272 OFFCURVE",
"184 332 CURVE SMOOTH",
"173 385 OFFCURVE",
"166 420 OFFCURVE",
"163 457 CURVE SMOOTH",
"162 464 OFFCURVE",
"156 472 OFFCURVE",
"145 472 CURVE SMOOTH",
"22 472 LINE SMOOTH",
"10 472 OFFCURVE",
"8 462 OFFCURVE",
"12 439 CURVE SMOOTH",
"24 370 OFFCURVE",
"42 296 OFFCURVE",
"82 190 CURVE SMOOTH",
"106 127 OFFCURVE",
"130 61 OFFCURVE",
"167 6 CURVE SMOOTH",
"171 0 OFFCURVE",
"173 0 OFFCURVE",
"179 0 CURVE SMOOTH"
);
}
);
};
layerId = "D1BC8BBB-1669-4C46-BC21-42BF6808B2B9";
paths = (
{
closed = 1;
nodes = (
"258 -1 LINE SMOOTH",
"262 -1 OFFCURVE",
"264 0 OFFCURVE",
"267 5 CURVE SMOOTH",
"304 70 OFFCURVE",
"329 129 OFFCURVE",
"349 186 CURVE SMOOTH",
"383 281 OFFCURVE",
"406 373 OFFCURVE",
"419 464 CURVE SMOOTH",
"420 470 OFFCURVE",
"418 471 OFFCURVE",
"414 471 CURVE SMOOTH",
"282 471 LINE SMOOTH",
"280 471 OFFCURVE",
"278 470 OFFCURVE",
"277 466 CURVE",
"274 429 OFFCURVE",
"264 366 OFFCURVE",
"253 308 CURVE SMOOTH",
"242 254 OFFCURVE",
"237 228 OFFCURVE",
"230 206 CURVE SMOOTH",
"226 195 OFFCURVE",
"218 192 OFFCURVE",
"214 206 CURVE SMOOTH",
"204 242 OFFCURVE",
"196 272 OFFCURVE",
"184 332 CURVE SMOOTH",
"173 385 OFFCURVE",
"166 420 OFFCURVE",
"163 457 CURVE SMOOTH",
"162 464 OFFCURVE",
"156 472 OFFCURVE",
"145 472 CURVE SMOOTH",
"22 472 LINE SMOOTH",
"10 472 OFFCURVE",
"8 462 OFFCURVE",
"12 439 CURVE SMOOTH",
"24 370 OFFCURVE",
"42 296 OFFCURVE",
"82 190 CURVE SMOOTH",
"106 127 OFFCURVE",
"130 61 OFFCURVE",
"167 6 CURVE SMOOTH",
"171 0 OFFCURVE",
"173 0 OFFCURVE",
"179 0 CURVE SMOOTH"
);
}
);
width = 429;
}
);
leftKerningGroup = v;
note = v;
rightKerningGroup = v;
unicode = 0076;
},
{
glyphname = w;
lastChange = "2021-06-09 01:48:25 +0000";
layers = (
{
anchors = (
{
name = bottom;
position = "{305, 0}";
},
{
name = top;
position = "{305, 472}";
}
);
background = {
anchors = (
{
name = bottom;
position = "{305, 0}";
},
{
name = top;
position = "{305, 472}";
}
);
paths = (
{
closed = 1;
nodes = (
"171 0 OFFCURVE",
"173 0 OFFCURVE",
"178 0 CURVE SMOOTH",
"212 0 LINE SMOOTH",
"215 0 OFFCURVE",
"218 1 OFFCURVE",
"220 6 CURVE SMOOTH",
"229 25 OFFCURVE",
"239 45 OFFCURVE",
"248 65 CURVE SMOOTH",
"267 110 OFFCURVE",
"285 157 OFFCURVE",
"299 204 CURVE",
"303 212 OFFCURVE",
"308 214 OFFCURVE",
"311 204 CURVE SMOOTH",
"325 154 OFFCURVE",
"358 67 OFFCURVE",
"390 6 CURVE",
"392 0 OFFCURVE",
"395 0 OFFCURVE",
"399 0 CURVE SMOOTH",
"434 0 LINE SMOOTH",
"437 0 OFFCURVE",
"440 1 OFFCURVE",
"442 6 CURVE SMOOTH",
"519 158 OFFCURVE",
"571 362 OFFCURVE",
"585 465 CURVE SMOOTH",
"586 471 OFFCURVE",
"584 472 OFFCURVE",
"580 472 CURVE SMOOTH",
"556 472 LINE SMOOTH",
"553 472 OFFCURVE",
"549 471 OFFCURVE",
"548 465 CURVE SMOOTH",
"535 360 OFFCURVE",
"466 111 OFFCURVE",
"422 44 CURVE SMOOTH",
"419 40 OFFCURVE",
"415 39 OFFCURVE",
"412 44 CURVE SMOOTH",
"389 81 OFFCURVE",
"317 270 OFFCURVE",
"317 317 CURVE SMOOTH",
"317 395 OFFCURVE",
"316 439 OFFCURVE",
"316 465 CURVE SMOOTH",
"316 471 OFFCURVE",
"311 472 OFFCURVE",
"308 472 CURVE SMOOTH",
"286 472 LINE SMOOTH",
"282 472 OFFCURVE",
"281 471 OFFCURVE",
"281 465 CURVE SMOOTH",
"281 439 OFFCURVE",
"282 342 OFFCURVE",
"282 318 CURVE SMOOTH",
"282 269 OFFCURVE",
"242 107 OFFCURVE",
"200 44 CURVE SMOOTH",
"198 40 OFFCURVE",
"193 39 OFFCURVE",
"191 44 CURVE",
"148 111 OFFCURVE",
"75 360 OFFCURVE",
"62 465 CURVE SMOOTH",
"61 471 OFFCURVE",
"57 472 OFFCURVE",
"54 472 CURVE SMOOTH",
"30 472 LINE SMOOTH",
"27 472 OFFCURVE",
"24 471 OFFCURVE",
"25 465 CURVE SMOOTH",
"40 362 OFFCURVE",
"91 158 OFFCURVE",
"168 6 CURVE SMOOTH"
);
}
);
};
layerId = "707362F1-A677-446A-8636-E10BE3A7FAFF";
paths = (
{
closed = 1;
nodes = (
"171 0 OFFCURVE",
"173 0 OFFCURVE",
"178 0 CURVE SMOOTH",
"212 0 LINE SMOOTH",
"215 0 OFFCURVE",
"218 1 OFFCURVE",
"220 6 CURVE SMOOTH",
"229 25 OFFCURVE",
"239 45 OFFCURVE",
"248 65 CURVE SMOOTH",
"267 110 OFFCURVE",
"285 157 OFFCURVE",
"299 204 CURVE",
"303 212 OFFCURVE",
"308 214 OFFCURVE",
"311 204 CURVE SMOOTH",
"325 154 OFFCURVE",
"358 67 OFFCURVE",
"390 6 CURVE",
"392 0 OFFCURVE",
"395 0 OFFCURVE",
"399 0 CURVE SMOOTH",
"434 0 LINE SMOOTH",
"437 0 OFFCURVE",
"440 1 OFFCURVE",
"442 6 CURVE SMOOTH",
"519 158 OFFCURVE",
"571 362 OFFCURVE",
"585 465 CURVE SMOOTH",
"586 471 OFFCURVE",
"584 472 OFFCURVE",
"580 472 CURVE SMOOTH",
"556 472 LINE SMOOTH",
"553 472 OFFCURVE",
"549 471 OFFCURVE",
"548 465 CURVE SMOOTH",
"535 360 OFFCURVE",
"466 111 OFFCURVE",
"422 44 CURVE SMOOTH",
"419 40 OFFCURVE",
"415 39 OFFCURVE",
"412 44 CURVE SMOOTH",
"389 81 OFFCURVE",
"317 270 OFFCURVE",
"317 317 CURVE SMOOTH",
"317 395 OFFCURVE",
"316 439 OFFCURVE",
"316 465 CURVE SMOOTH",
"316 471 OFFCURVE",
"311 472 OFFCURVE",
"308 472 CURVE SMOOTH",
"286 472 LINE SMOOTH",
"282 472 OFFCURVE",
"281 471 OFFCURVE",
"281 465 CURVE SMOOTH",
"281 439 OFFCURVE",
"282 342 OFFCURVE",
"282 318 CURVE SMOOTH",
"282 269 OFFCURVE",
"242 107 OFFCURVE",
"200 44 CURVE SMOOTH",
"198 40 OFFCURVE",
"193 39 OFFCURVE",
"191 44 CURVE",
"148 111 OFFCURVE",
"75 360 OFFCURVE",
"62 465 CURVE SMOOTH",
"61 471 OFFCURVE",
"57 472 OFFCURVE",
"54 472 CURVE SMOOTH",
"30 472 LINE SMOOTH",
"27 472 OFFCURVE",
"24 471 OFFCURVE",
"25 465 CURVE SMOOTH",
"40 362 OFFCURVE",
"91 158 OFFCURVE",
"168 6 CURVE SMOOTH"
);
}
);
width = 610;
},
{
anchors = (
{
name = bottom;
position = "{329, 0}";
},
{
name = top;
position = "{329, 472}";
}
);
background = {
anchors = (
{
name = bottom;
position = "{329, 0}";
},
{
name = top;
position = "{329, 472}";
}
);
paths = (
{
closed = 1;
nodes = (
"165 1 OFFCURVE",
"164 0 OFFCURVE",
"179 0 CURVE SMOOTH",
"249 0 LINE SMOOTH",
"260 0 OFFCURVE",
"266 6 OFFCURVE",
"270 12 CURVE SMOOTH",
"274 18 OFFCURVE",
"288 43 OFFCURVE",
"297 61 CURVE SMOOTH",
"303 73 OFFCURVE",
"320 108 OFFCURVE",
"321 112 CURVE SMOOTH",
"327 130 OFFCURVE",
"334 127 OFFCURVE",
"340 112 CURVE SMOOTH",
"352 80 OFFCURVE",
"379 26 OFFCURVE",
"389 12 CURVE SMOOTH",
"396 2 OFFCURVE",
"398 0 OFFCURVE",
"408 0 CURVE SMOOTH",
"483 0 LINE SMOOTH",
"491 0 OFFCURVE",
"495 6 OFFCURVE",
"503 18 CURVE SMOOTH",
"555 90 OFFCURVE",
"627 315 OFFCURVE",
"645 437 CURVE SMOOTH",
"648 457 OFFCURVE",
"649 472 OFFCURVE",
"634 472 CURVE SMOOTH",
"529 472 LINE SMOOTH",
"515 472 OFFCURVE",
"507 467 OFFCURVE",
"505 453 CURVE SMOOTH",
"489 350 OFFCURVE",
"462 243 OFFCURVE",
"450 194 CURVE SMOOTH",
"448 185 OFFCURVE",
"445 185 OFFCURVE",
"441 194 CURVE SMOOTH",
"430 219 OFFCURVE",
"421 264 OFFCURVE",
"415 315 CURVE SMOOTH",
"409 363 OFFCURVE",
"409 417 OFFCURVE",
"409 456 CURVE SMOOTH",
"409 466 OFFCURVE",
"403 471 OFFCURVE",
"395 471 CURVE SMOOTH",
"267 471 LINE SMOOTH",
"258 471 OFFCURVE",
"252 467 OFFCURVE",
"252 455 CURVE SMOOTH",
"252 428 OFFCURVE",
"254 380 OFFCURVE",
"254 329 CURVE SMOOTH",
"254 293 OFFCURVE",
"243 225 OFFCURVE",
"229 195 CURVE SMOOTH",
"228 192 OFFCURVE",
"224 187 OFFCURVE",
"221 198 CURVE SMOOTH",
"210 235 OFFCURVE",
"183 358 OFFCURVE",
"163 457 CURVE SMOOTH",
"161 467 OFFCURVE",
"156 472 OFFCURVE",
"145 472 CURVE SMOOTH",
"22 472 LINE SMOOTH",
"7 472 OFFCURVE",
"9 454 OFFCURVE",
"13 432 CURVE SMOOTH",
"31 331 OFFCURVE",
"84 158 OFFCURVE",
"156 18 CURVE SMOOTH"
);
}
);
};
layerId = "D1BC8BBB-1669-4C46-BC21-42BF6808B2B9";
paths = (
{
closed = 1;
nodes = (
"165 1 OFFCURVE",
"164 0 OFFCURVE",
"179 0 CURVE SMOOTH",
"249 0 LINE SMOOTH",
"260 0 OFFCURVE",
"266 6 OFFCURVE",
"270 12 CURVE SMOOTH",
"274 18 OFFCURVE",
"288 43 OFFCURVE",
"297 61 CURVE SMOOTH",
"303 73 OFFCURVE",
"320 108 OFFCURVE",
"321 112 CURVE SMOOTH",
"327 130 OFFCURVE",
"334 127 OFFCURVE",
"340 112 CURVE SMOOTH",
"352 80 OFFCURVE",
"379 26 OFFCURVE",
"389 12 CURVE SMOOTH",
"396 2 OFFCURVE",
"398 0 OFFCURVE",
"408 0 CURVE SMOOTH",
"483 0 LINE SMOOTH",
"491 0 OFFCURVE",
"495 6 OFFCURVE",
"503 18 CURVE SMOOTH",
"555 90 OFFCURVE",
"627 315 OFFCURVE",
"645 437 CURVE SMOOTH",
"648 457 OFFCURVE",
"649 472 OFFCURVE",
"634 472 CURVE SMOOTH",
"529 472 LINE SMOOTH",
"515 472 OFFCURVE",
"507 467 OFFCURVE",
"505 453 CURVE SMOOTH",
"489 350 OFFCURVE",
"462 243 OFFCURVE",
"450 194 CURVE SMOOTH",
"448 185 OFFCURVE",
"445 185 OFFCURVE",
"441 194 CURVE SMOOTH",
"430 219 OFFCURVE",
"421 264 OFFCURVE",
"415 315 CURVE SMOOTH",
"409 363 OFFCURVE",
"409 417 OFFCURVE",
"409 456 CURVE SMOOTH",
"409 466 OFFCURVE",
"403 471 OFFCURVE",
"395 471 CURVE SMOOTH",
"267 471 LINE SMOOTH",
"258 471 OFFCURVE",
"252 467 OFFCURVE",
"252 455 CURVE SMOOTH",
"252 428 OFFCURVE",
"254 380 OFFCURVE",
"254 329 CURVE SMOOTH",
"254 293 OFFCURVE",
"243 225 OFFCURVE",
"229 195 CURVE SMOOTH",
"228 192 OFFCURVE",
"224 187 OFFCURVE",
"221 198 CURVE SMOOTH",
"210 235 OFFCURVE",
"183 358 OFFCURVE",
"163 457 CURVE SMOOTH",
"161 467 OFFCURVE",
"156 472 OFFCURVE",
"145 472 CURVE SMOOTH",
"22 472 LINE SMOOTH",
"7 472 OFFCURVE",
"9 454 OFFCURVE",
"13 432 CURVE SMOOTH",
"31 331 OFFCURVE",
"84 158 OFFCURVE",
"156 18 CURVE SMOOTH"
);
}
);
width = 657;
}
);
leftKerningGroup = w;
note = w;
rightKerningGroup = w;
unicode = 0077;
},
{
glyphname = x;
lastChange = "2021-06-09 01:48:27 +0000";
layers = (
{
anchors = (
{
name = bottom;
position = "{187, 0}";
},
{
name = top;
position = "{187, 472}";
}
);
background = {
anchors = (
{
name = bottom;
position = "{187, 0}";
},
{
name = top;
position = "{187, 472}";
}
);
paths = (
{
closed = 1;
nodes = (
"45 0 LINE SMOOTH",
"47 0 OFFCURVE",
"50 0 OFFCURVE",
"52 7 CURVE",
"52 7 OFFCURVE",
"107 165 OFFCURVE",
"169 234 CURVE",
"181 234 OFFCURVE",
"192 234 OFFCURVE",
"204 234 CURVE",
"266 165 OFFCURVE",
"317 21 OFFCURVE",
"322 7 CURVE",
"325 0 OFFCURVE",
"327 0 OFFCURVE",
"329 0 CURVE SMOOTH",
"355 0 LINE SMOOTH",
"359 0 OFFCURVE",
"360 2 OFFCURVE",
"359 6 CURVE",
"355 18 OFFCURVE",
"308 144 OFFCURVE",
"241 238 CURVE SMOOTH",
"236 245 OFFCURVE",
"234 250 OFFCURVE",
"240 256 CURVE",
"302 341 OFFCURVE",
"340 466 OFFCURVE",
"340 466 CURVE",
"341 471 OFFCURVE",
"340 472 OFFCURVE",
"336 472 CURVE SMOOTH",
"313 472 LINE SMOOTH",
"310 472 OFFCURVE",
"308 472 OFFCURVE",
"306 465 CURVE",
"306 465 OFFCURVE",
"260 324 OFFCURVE",
"204 263 CURVE",
"192 263 OFFCURVE",
"181 263 OFFCURVE",
"169 263 CURVE",
"113 324 OFFCURVE",
"67 465 OFFCURVE",
"67 465 CURVE",
"65 472 OFFCURVE",
"63 472 OFFCURVE",
"60 472 CURVE SMOOTH",
"37 472 LINE SMOOTH",
"33 472 OFFCURVE",
"32 471 OFFCURVE",
"33 466 CURVE",
"33 466 OFFCURVE",
"71 342 OFFCURVE",
"132 257 CURVE SMOOTH",
"137 250 OFFCURVE",
"137 244 OFFCURVE",
"132 237 CURVE SMOOTH",
"64 142 OFFCURVE",
"15 6 OFFCURVE",
"15 6 CURVE",
"14 1 OFFCURVE",
"15 0 OFFCURVE",
"19 0 CURVE SMOOTH"
);
}
);
};
layerId = "707362F1-A677-446A-8636-E10BE3A7FAFF";
paths = (
{
closed = 1;
nodes = (
"45 0 LINE SMOOTH",
"47 0 OFFCURVE",
"50 0 OFFCURVE",
"52 7 CURVE",
"52 7 OFFCURVE",
"107 165 OFFCURVE",
"169 234 CURVE",
"181 234 OFFCURVE",
"192 234 OFFCURVE",
"204 234 CURVE",
"266 165 OFFCURVE",
"317 21 OFFCURVE",
"322 7 CURVE",
"325 0 OFFCURVE",
"327 0 OFFCURVE",
"329 0 CURVE SMOOTH",
"355 0 LINE SMOOTH",
"359 0 OFFCURVE",
"360 2 OFFCURVE",
"359 6 CURVE",
"355 18 OFFCURVE",
"308 144 OFFCURVE",
"241 238 CURVE SMOOTH",
"236 245 OFFCURVE",
"234 250 OFFCURVE",
"240 256 CURVE",
"302 341 OFFCURVE",
"340 466 OFFCURVE",
"340 466 CURVE",
"341 471 OFFCURVE",
"340 472 OFFCURVE",
"336 472 CURVE SMOOTH",
"313 472 LINE SMOOTH",
"310 472 OFFCURVE",
"308 472 OFFCURVE",
"306 465 CURVE",
"306 465 OFFCURVE",
"260 324 OFFCURVE",
"204 263 CURVE",
"192 263 OFFCURVE",
"181 263 OFFCURVE",
"169 263 CURVE",
"113 324 OFFCURVE",
"67 465 OFFCURVE",
"67 465 CURVE",
"65 472 OFFCURVE",
"63 472 OFFCURVE",
"60 472 CURVE SMOOTH",
"37 472 LINE SMOOTH",
"33 472 OFFCURVE",
"32 471 OFFCURVE",
"33 466 CURVE",
"33 466 OFFCURVE",
"71 342 OFFCURVE",
"132 257 CURVE SMOOTH",
"137 250 OFFCURVE",
"137 244 OFFCURVE",
"132 237 CURVE SMOOTH",
"64 142 OFFCURVE",
"15 6 OFFCURVE",
"15 6 CURVE",
"14 1 OFFCURVE",
"15 0 OFFCURVE",
"19 0 CURVE SMOOTH"
);
}
);
width = 374;
},
{
anchors = (
{
name = bottom;
position = "{215, 0}";
},
{
name = top;
position = "{215, 472}";
}
);
background = {
anchors = (
{
name = bottom;
position = "{215, 0}";
},
{
name = top;
position = "{215, 472}";
}
);
paths = (
{
closed = 1;
nodes = (
"147 0 LINE SMOOTH",
"160 0 OFFCURVE",
"163 1 OFFCURVE",
"167 15 CURVE",
"167 15 OFFCURVE",
"188 110 OFFCURVE",
"222 168 CURVE",
"234 168 OFFCURVE",
"213 168 OFFCURVE",
"225 168 CURVE",
"246 159 OFFCURVE",
"270 62 OFFCURVE",
"280 19 CURVE",
"282 6 OFFCURVE",
"286 0 OFFCURVE",
"307 0 CURVE SMOOTH",
"409 0 LINE SMOOTH",
"424 0 OFFCURVE",
"424 15 OFFCURVE",
"420 35 CURVE",
"416 47 OFFCURVE",
"407 143 OFFCURVE",
"340 237 CURVE SMOOTH",
"335 244 OFFCURVE",
"333 249 OFFCURVE",
"339 255 CURVE",
"401 340 OFFCURVE",
"417 421 OFFCURVE",
"424 457 CURVE",
"425 471 OFFCURVE",
"413 472 OFFCURVE",
"409 472 CURVE SMOOTH",
"307 472 LINE SMOOTH",
"286 472 OFFCURVE",
"282 466 OFFCURVE",
"280 453 CURVE",
"271 413 OFFCURVE",
"246 310 OFFCURVE",
"225 306 CURVE",
"224 306 OFFCURVE",
"225 306 OFFCURVE",
"224 306 CURVE",
"208 311 OFFCURVE",
"176 419 OFFCURVE",
"167 457 CURVE",
"163 471 OFFCURVE",
"160 472 OFFCURVE",
"149 472 CURVE SMOOTH",
"9 472 LINE SMOOTH",
"5 472 OFFCURVE",
"4 471 OFFCURVE",
"5 466 CURVE",
"5 466 OFFCURVE",
"37 340 OFFCURVE",
"98 255 CURVE SMOOTH",
"103 248 OFFCURVE",
"105 245 OFFCURVE",
"101 238 CURVE SMOOTH",
"52 147 OFFCURVE",
"25 77 OFFCURVE",
"17 40 CURVE",
"16 35 OFFCURVE",
"5 0 OFFCURVE",
"26 0 CURVE SMOOTH"
);
}
);
};
layerId = "D1BC8BBB-1669-4C46-BC21-42BF6808B2B9";
paths = (
{
closed = 1;
nodes = (
"147 0 LINE SMOOTH",
"160 0 OFFCURVE",
"163 1 OFFCURVE",
"167 15 CURVE",
"167 15 OFFCURVE",
"188 110 OFFCURVE",
"222 168 CURVE",
"234 168 OFFCURVE",
"213 168 OFFCURVE",
"225 168 CURVE",
"246 159 OFFCURVE",
"270 62 OFFCURVE",
"280 19 CURVE",
"282 6 OFFCURVE",
"286 0 OFFCURVE",
"307 0 CURVE SMOOTH",
"409 0 LINE SMOOTH",
"424 0 OFFCURVE",
"424 15 OFFCURVE",
"420 35 CURVE",
"416 47 OFFCURVE",
"407 143 OFFCURVE",
"340 237 CURVE SMOOTH",
"335 244 OFFCURVE",
"333 249 OFFCURVE",
"339 255 CURVE",
"401 340 OFFCURVE",
"417 421 OFFCURVE",
"424 457 CURVE",
"425 471 OFFCURVE",
"413 472 OFFCURVE",
"409 472 CURVE SMOOTH",
"307 472 LINE SMOOTH",
"286 472 OFFCURVE",
"282 466 OFFCURVE",
"280 453 CURVE",
"271 413 OFFCURVE",
"246 310 OFFCURVE",
"225 306 CURVE",
"224 306 OFFCURVE",
"225 306 OFFCURVE",
"224 306 CURVE",
"208 311 OFFCURVE",
"176 419 OFFCURVE",
"167 457 CURVE",
"163 471 OFFCURVE",
"160 472 OFFCURVE",
"149 472 CURVE SMOOTH",
"9 472 LINE SMOOTH",
"5 472 OFFCURVE",
"4 471 OFFCURVE",
"5 466 CURVE",
"5 466 OFFCURVE",
"37 340 OFFCURVE",
"98 255 CURVE SMOOTH",
"103 248 OFFCURVE",
"105 245 OFFCURVE",
"101 238 CURVE SMOOTH",
"52 147 OFFCURVE",
"25 77 OFFCURVE",
"17 40 CURVE",
"16 35 OFFCURVE",
"5 0 OFFCURVE",
"26 0 CURVE SMOOTH"
);
}
);
width = 429;
}
);
leftKerningGroup = x;
note = x;
rightKerningGroup = x;
unicode = 0078;
},
{
glyphname = y;
lastChange = "2021-06-09 03:47:45 +0000";
layers = (
{
anchors = (
{
name = bottom;
position = "{286, 0}";
},
{
name = top;
position = "{198, 472}";
}
);
background = {
anchors = (
{
name = bottom;
position = "{286, 0}";
},
{
name = top;
position = "{190, 472}";
}
);
paths = (
{
closed = 1;
nodes = (
"183 33 OFFCURVE",
"179 19 OFFCURVE",
"174 11 CURVE SMOOTH",
"157 -17 OFFCURVE",
"146 -30 OFFCURVE",
"120 -53 CURVE SMOOTH",
"87 -84 OFFCURVE",
"36 -103 OFFCURVE",
"-4 -97 CURVE SMOOTH",
"-9 -96 OFFCURVE",
"-13 -97 OFFCURVE",
"-14 -99 CURVE SMOOTH",
"-21 -119 LINE SMOOTH",
"-22 -123 OFFCURVE",
"-18 -124 OFFCURVE",
"-15 -125 CURVE SMOOTH",
"-3 -127 OFFCURVE",
"9 -127 OFFCURVE",
"20 -127 CURVE SMOOTH",
"199 -127 OFFCURVE",
"280 146 OFFCURVE",
"320 269 CURVE SMOOTH",
"340 333 OFFCURVE",
"356 399 OFFCURVE",
"365 465 CURVE SMOOTH",
"366 471 OFFCURVE",
"364 472 OFFCURVE",
"360 472 CURVE SMOOTH",
"336 472 LINE SMOOTH",
"332 472 OFFCURVE",
"327 471 OFFCURVE",
"327 465 CURVE SMOOTH",
"318 354 OFFCURVE",
"247 140 OFFCURVE",
"205 78 CURVE",
"203 76 OFFCURVE",
"197 73 OFFCURVE",
"192 83 CURVE",
"146 133 OFFCURVE",
"74 358 OFFCURVE",
"64 465 CURVE SMOOTH",
"64 471 OFFCURVE",
"59 472 OFFCURVE",
"56 472 CURVE SMOOTH",
"31 472 LINE SMOOTH",
"28 472 OFFCURVE",
"25 471 OFFCURVE",
"26 465 CURVE SMOOTH",
"41 353 OFFCURVE",
"104 130 OFFCURVE",
"174 45 CURVE SMOOTH"
);
}
);
};
layerId = "707362F1-A677-446A-8636-E10BE3A7FAFF";
paths = (
{
closed = 1;
nodes = (
"183 33 OFFCURVE",
"179 19 OFFCURVE",
"174 11 CURVE SMOOTH",
"157 -17 OFFCURVE",
"146 -30 OFFCURVE",
"120 -53 CURVE SMOOTH",
"87 -84 OFFCURVE",
"36 -103 OFFCURVE",
"-4 -97 CURVE SMOOTH",
"-9 -96 OFFCURVE",
"-13 -97 OFFCURVE",
"-14 -99 CURVE SMOOTH",
"-21 -119 LINE SMOOTH",
"-22 -123 OFFCURVE",
"-18 -124 OFFCURVE",
"-15 -125 CURVE SMOOTH",
"-3 -127 OFFCURVE",
"9 -127 OFFCURVE",
"20 -127 CURVE SMOOTH",
"199 -127 OFFCURVE",
"280 146 OFFCURVE",
"320 269 CURVE SMOOTH",
"340 333 OFFCURVE",
"356 399 OFFCURVE",
"365 465 CURVE SMOOTH",
"366 471 OFFCURVE",
"364 472 OFFCURVE",
"360 472 CURVE SMOOTH",
"336 472 LINE SMOOTH",
"332 472 OFFCURVE",
"327 471 OFFCURVE",
"327 465 CURVE SMOOTH",
"318 354 OFFCURVE",
"247 140 OFFCURVE",
"205 78 CURVE",
"203 76 OFFCURVE",
"197 73 OFFCURVE",
"192 83 CURVE",
"146 133 OFFCURVE",
"74 358 OFFCURVE",
"64 465 CURVE SMOOTH",
"64 471 OFFCURVE",
"59 472 OFFCURVE",
"56 472 CURVE SMOOTH",
"31 472 LINE SMOOTH",
"28 472 OFFCURVE",
"25 471 OFFCURVE",
"26 465 CURVE SMOOTH",
"41 353 OFFCURVE",
"104 130 OFFCURVE",
"174 45 CURVE SMOOTH"
);
}
);
width = 395;
},
{
anchors = (
{
name = bottom;
position = "{356, 0}";
},
{
name = top;
position = "{222, 472}";
}
);
background = {
anchors = (
{
name = bottom;
position = "{356, 0}";
},
{
name = top;
position = "{200, 472}";
}
);
paths = (
{
closed = 1;
nodes = (
"125 92 OFFCURVE",
"133 64 OFFCURVE",
"123 39 CURVE SMOOTH",
"117 24 OFFCURVE",
"104 10 OFFCURVE",
"80 -1 CURVE SMOOTH",
"61 -10 OFFCURVE",
"37 -12 OFFCURVE",
"19 -7 CURVE SMOOTH",
"8 -4 OFFCURVE",
"4 -2 OFFCURVE",
"-3 -15 CURVE SMOOTH",
"-31 -68 LINE SMOOTH",
"-39 -83 OFFCURVE",
"-36 -92 OFFCURVE",
"-19 -101 CURVE SMOOTH",
"-1 -111 OFFCURVE",
"26 -116 OFFCURVE",
"66 -116 CURVE SMOOTH",
"248 -116 OFFCURVE",
"321 112 OFFCURVE",
"353 206 CURVE SMOOTH",
"386 304 OFFCURVE",
"404 365 OFFCURVE",
"419 448 CURVE SMOOTH",
"423 469 OFFCURVE",
"413 472 OFFCURVE",
"399 472 CURVE SMOOTH",
"301 472 LINE SMOOTH",
"285 472 OFFCURVE",
"282 467 OFFCURVE",
"279 452 CURVE SMOOTH",
"263 373 OFFCURVE",
"246 293 OFFCURVE",
"225 217 CURVE",
"223 206 OFFCURVE",
"217 206 OFFCURVE",
"212 216 CURVE",
"191 291 OFFCURVE",
"170 405 OFFCURVE",
"165 442 CURVE SMOOTH",
"162 465 OFFCURVE",
"157 472 OFFCURVE",
"141 472 CURVE SMOOTH",
"26 472 LINE SMOOTH",
"15 472 OFFCURVE",
"10 465 OFFCURVE",
"13 450 CURVE SMOOTH",
"33 336 OFFCURVE",
"66 222 OFFCURVE",
"113 118 CURVE SMOOTH"
);
}
);
};
layerId = "D1BC8BBB-1669-4C46-BC21-42BF6808B2B9";
paths = (
{
closed = 1;
nodes = (
"125 92 OFFCURVE",
"133 64 OFFCURVE",
"123 39 CURVE SMOOTH",
"117 24 OFFCURVE",
"104 10 OFFCURVE",
"80 -1 CURVE SMOOTH",
"61 -10 OFFCURVE",
"37 -12 OFFCURVE",
"19 -7 CURVE SMOOTH",
"8 -4 OFFCURVE",
"4 -2 OFFCURVE",
"-3 -15 CURVE SMOOTH",
"-31 -68 LINE SMOOTH",
"-39 -83 OFFCURVE",
"-36 -92 OFFCURVE",
"-19 -101 CURVE SMOOTH",
"-1 -111 OFFCURVE",
"26 -116 OFFCURVE",
"66 -116 CURVE SMOOTH",
"248 -116 OFFCURVE",
"321 112 OFFCURVE",
"353 206 CURVE SMOOTH",
"386 304 OFFCURVE",
"404 365 OFFCURVE",
"419 448 CURVE SMOOTH",
"423 469 OFFCURVE",
"413 472 OFFCURVE",
"399 472 CURVE SMOOTH",
"301 472 LINE SMOOTH",
"285 472 OFFCURVE",
"282 467 OFFCURVE",
"279 452 CURVE SMOOTH",
"263 373 OFFCURVE",
"246 293 OFFCURVE",
"225 217 CURVE",
"223 206 OFFCURVE",
"217 206 OFFCURVE",
"212 216 CURVE",
"191 291 OFFCURVE",
"170 405 OFFCURVE",
"165 442 CURVE SMOOTH",
"162 465 OFFCURVE",
"157 472 OFFCURVE",
"141 472 CURVE SMOOTH",
"26 472 LINE SMOOTH",
"15 472 OFFCURVE",
"10 465 OFFCURVE",
"13 450 CURVE SMOOTH",
"33 336 OFFCURVE",
"66 222 OFFCURVE",
"113 118 CURVE SMOOTH"
);
}
);
width = 430;
}
);
leftKerningGroup = y;
note = y;
rightKerningGroup = y;
unicode = 0079;
},
{
glyphname = z;
lastChange = "2021-06-09 01:48:32 +0000";
layers = (
{
anchors = (
{
name = bottom;
position = "{169, 0}";
},
{
name = center;
position = "{169, 236}";
},
{
name = top;
position = "{169, 472}";
}
);
background = {
anchors = (
{
name = bottom;
position = "{169, 0}";
},
{
name = center;
position = "{169, 236}";
},
{
name = top;
position = "{169, 472}";
}
);
paths = (
{
closed = 1;
nodes = (
"25 2 OFFCURVE",
"28 0 OFFCURVE",
"31 0 CURVE SMOOTH",
"306 0 LINE SMOOTH",
"308 0 OFFCURVE",
"310 1 OFFCURVE",
"310 4 CURVE SMOOTH",
"310 26 LINE SMOOTH",
"310 28 OFFCURVE",
"308 29 OFFCURVE",
"306 29 CURVE SMOOTH",
"71 29 LINE SMOOTH",
"61 29 OFFCURVE",
"63 39 OFFCURVE",
"64 44 CURVE SMOOTH",
"75 86 OFFCURVE",
"110 150 OFFCURVE",
"150 225 CURVE SMOOTH",
"187 291 OFFCURVE",
"247 379 OFFCURVE",
"300 430 CURVE SMOOTH",
"305 434 OFFCURVE",
"312 445 OFFCURVE",
"312 451 CURVE SMOOTH",
"312 466 LINE SMOOTH",
"312 471 OFFCURVE",
"312 472 OFFCURVE",
"307 472 CURVE SMOOTH",
"50 472 LINE SMOOTH",
"48 472 OFFCURVE",
"46 471 OFFCURVE",
"46 468 CURVE SMOOTH",
"46 446 LINE SMOOTH",
"46 444 OFFCURVE",
"48 442 OFFCURVE",
"50 442 CURVE SMOOTH",
"252 442 LINE SMOOTH",
"260 442 OFFCURVE",
"260 439 OFFCURVE",
"253 432 CURVE SMOOTH",
"221 396 OFFCURVE",
"181 339 OFFCURVE",
"141 274 CURVE SMOOTH",
"85 182 OFFCURVE",
"37 94 OFFCURVE",
"25 6 CURVE"
);
}
);
};
layerId = "707362F1-A677-446A-8636-E10BE3A7FAFF";
paths = (
{
closed = 1;
nodes = (
"25 2 OFFCURVE",
"28 0 OFFCURVE",
"31 0 CURVE SMOOTH",
"306 0 LINE SMOOTH",
"308 0 OFFCURVE",
"310 1 OFFCURVE",
"310 4 CURVE SMOOTH",
"310 26 LINE SMOOTH",
"310 28 OFFCURVE",
"308 29 OFFCURVE",
"306 29 CURVE SMOOTH",
"71 29 LINE SMOOTH",
"61 29 OFFCURVE",
"63 39 OFFCURVE",
"64 44 CURVE SMOOTH",
"75 86 OFFCURVE",
"110 150 OFFCURVE",
"150 225 CURVE SMOOTH",
"187 291 OFFCURVE",
"247 379 OFFCURVE",
"300 430 CURVE SMOOTH",
"305 434 OFFCURVE",
"312 445 OFFCURVE",
"312 451 CURVE SMOOTH",
"312 466 LINE SMOOTH",
"312 471 OFFCURVE",
"312 472 OFFCURVE",
"307 472 CURVE SMOOTH",
"50 472 LINE SMOOTH",
"48 472 OFFCURVE",
"46 471 OFFCURVE",
"46 468 CURVE SMOOTH",
"46 446 LINE SMOOTH",
"46 444 OFFCURVE",
"48 442 OFFCURVE",
"50 442 CURVE SMOOTH",
"252 442 LINE SMOOTH",
"260 442 OFFCURVE",
"260 439 OFFCURVE",
"253 432 CURVE SMOOTH",
"221 396 OFFCURVE",
"181 339 OFFCURVE",
"141 274 CURVE SMOOTH",
"85 182 OFFCURVE",
"37 94 OFFCURVE",
"25 6 CURVE"
);
}
);
width = 342;
},
{
anchors = (
{
name = bottom;
position = "{197, 0}";
},
{
name = center;
position = "{197, 236}";
},
{
name = top;
position = "{197, 472}";
}
);
background = {
anchors = (
{
name = bottom;
position = "{197, 0}";
},
{
name = center;
position = "{197, 236}";
},
{
name = top;
position = "{197, 472}";
}
);
paths = (
{
closed = 1;
nodes = (
"23 2 OFFCURVE",
"28 0 OFFCURVE",
"44 0 CURVE SMOOTH",
"346 0 LINE SMOOTH",
"363 0 OFFCURVE",
"368 0 OFFCURVE",
"368 14 CURVE SMOOTH",
"368 93 LINE SMOOTH",
"368 109 OFFCURVE",
"368 112 OFFCURVE",
"355 112 CURVE SMOOTH",
"193 112 LINE SMOOTH",
"179 112 OFFCURVE",
"179 120 OFFCURVE",
"181 125 CURVE SMOOTH",
"198 162 OFFCURVE",
"224 205 OFFCURVE",
"252 244 CURVE SMOOTH",
"285 290 OFFCURVE",
"321 331 OFFCURVE",
"347 348 CURVE SMOOTH",
"366 361 OFFCURVE",
"368 373 OFFCURVE",
"368 382 CURVE SMOOTH",
"368 452 LINE SMOOTH",
"368 467 OFFCURVE",
"369 472 OFFCURVE",
"352 472 CURVE SMOOTH",
"65 472 LINE SMOOTH",
"49 472 OFFCURVE",
"47 473 OFFCURVE",
"47 455 CURVE SMOOTH",
"47 375 LINE SMOOTH",
"47 360 OFFCURVE",
"50 360 OFFCURVE",
"62 360 CURVE SMOOTH",
"181 360 LINE",
"192 356 OFFCURVE",
"188 352 OFFCURVE",
"185 348 CURVE SMOOTH",
"156 312 OFFCURVE",
"127 273 OFFCURVE",
"102 233 CURVE SMOOTH",
"63 172 OFFCURVE",
"33 107 OFFCURVE",
"26 41 CURVE SMOOTH"
);
}
);
};
layerId = "D1BC8BBB-1669-4C46-BC21-42BF6808B2B9";
paths = (
{
closed = 1;
nodes = (
"23 2 OFFCURVE",
"28 0 OFFCURVE",
"44 0 CURVE SMOOTH",
"346 0 LINE SMOOTH",
"363 0 OFFCURVE",
"368 0 OFFCURVE",
"368 14 CURVE SMOOTH",
"368 93 LINE SMOOTH",
"368 109 OFFCURVE",
"368 112 OFFCURVE",
"355 112 CURVE SMOOTH",
"193 112 LINE SMOOTH",
"179 112 OFFCURVE",
"179 120 OFFCURVE",
"181 125 CURVE SMOOTH",
"198 162 OFFCURVE",
"224 205 OFFCURVE",
"252 244 CURVE SMOOTH",
"285 290 OFFCURVE",
"321 331 OFFCURVE",
"347 348 CURVE SMOOTH",
"366 361 OFFCURVE",
"368 373 OFFCURVE",
"368 382 CURVE SMOOTH",
"368 452 LINE SMOOTH",
"368 467 OFFCURVE",
"369 472 OFFCURVE",
"352 472 CURVE SMOOTH",
"65 472 LINE SMOOTH",
"49 472 OFFCURVE",
"47 473 OFFCURVE",
"47 455 CURVE SMOOTH",
"47 375 LINE SMOOTH",
"47 360 OFFCURVE",
"50 360 OFFCURVE",
"62 360 CURVE SMOOTH",
"181 360 LINE",
"192 356 OFFCURVE",
"188 352 OFFCURVE",
"185 348 CURVE SMOOTH",
"156 312 OFFCURVE",
"127 273 OFFCURVE",
"102 233 CURVE SMOOTH",
"63 172 OFFCURVE",
"33 107 OFFCURVE",
"26 41 CURVE SMOOTH"
);
}
);
width = 393;
}
);
leftKerningGroup = z;
note = z;
rightKerningGroup = z;
unicode = 007A;
},
{
color = 4;
glyphname = A;
lastChange = "2021-06-09 03:44:05 +0000";
layers = (
{
anchors = (
{
name = bottom;
position = "{288, 0}";
},
{
name = ogonek;
position = "{515, 0}";
},
{
name = top;
position = "{288, 672}";
}
);
background = {
anchors = (
{
name = bottom;
position = "{288, 0}";
},
{
name = ogonek;
position = "{502, 10}";
},
{
name = top;
position = "{288, 672}";
}
);
paths = (
{
closed = 1;
nodes = (
"89 0 LINE SMOOTH",
"93 0 OFFCURVE",
"93 1 OFFCURVE",
"93 4 CURVE SMOOTH",
"99 44 OFFCURVE",
"110 98 OFFCURVE",
"123 160 CURVE SMOOTH",
"125 168 OFFCURVE",
"128 170 OFFCURVE",
"135 171 CURVE",
"438 171 LINE SMOOTH",
"446 171 OFFCURVE",
"450 168 OFFCURVE",
"451 162 CURVE SMOOTH",
"464 98 OFFCURVE",
"475 44 OFFCURVE",
"480 5 CURVE",
"482 1 OFFCURVE",
"482 0 OFFCURVE",
"485 0 CURVE SMOOTH",
"511 0 LINE SMOOTH",
"515 0 OFFCURVE",
"515 1 OFFCURVE",
"514 6 CURVE SMOOTH",
"495 151 OFFCURVE",
"397 533 OFFCURVE",
"333 668 CURVE SMOOTH",
"331 673 OFFCURVE",
"328 673 OFFCURVE",
"324 673 CURVE SMOOTH",
"250 673 LINE SMOOTH",
"247 673 OFFCURVE",
"244 671 OFFCURVE",
"243 669 CURVE SMOOTH",
"172 524 OFFCURVE",
"83 168 OFFCURVE",
"60 5 CURVE",
"60 1 OFFCURVE",
"60 0 OFFCURVE",
"64 0 CURVE SMOOTH"
);
},
{
closed = 1;
nodes = (
"134 201 OFFCURVE",
"134 208 OFFCURVE",
"135 211 CURVE SMOOTH",
"170 362 OFFCURVE",
"222 540 OFFCURVE",
"265 637 CURVE SMOOTH",
"267 642 OFFCURVE",
"269 643 OFFCURVE",
"275 643 CURVE SMOOTH",
"284 643 OFFCURVE",
"292 643 OFFCURVE",
"301 643 CURVE SMOOTH",
"305 643 OFFCURVE",
"309 642 OFFCURVE",
"311 638 CURVE SMOOTH",
"368 505 OFFCURVE",
"400 361 OFFCURVE",
"438 218 CURVE",
"440 204 OFFCURVE",
"434 201 OFFCURVE",
"430 201 CURVE SMOOTH",
"142 201 LINE SMOOTH"
);
}
);
};
layerId = "707362F1-A677-446A-8636-E10BE3A7FAFF";
paths = (
{
closed = 1;
nodes = (
"89 0 LINE SMOOTH",
"93 0 OFFCURVE",
"93 1 OFFCURVE",
"93 4 CURVE SMOOTH",
"99 44 OFFCURVE",
"110 98 OFFCURVE",
"123 160 CURVE SMOOTH",
"125 168 OFFCURVE",
"128 170 OFFCURVE",
"135 171 CURVE",
"438 171 LINE SMOOTH",
"446 171 OFFCURVE",
"450 168 OFFCURVE",
"451 162 CURVE SMOOTH",
"464 98 OFFCURVE",
"475 44 OFFCURVE",
"480 5 CURVE",
"482 1 OFFCURVE",
"482 0 OFFCURVE",
"485 0 CURVE SMOOTH",
"511 0 LINE SMOOTH",
"515 0 OFFCURVE",
"515 1 OFFCURVE",
"514 6 CURVE SMOOTH",
"495 151 OFFCURVE",
"397 533 OFFCURVE",
"333 668 CURVE SMOOTH",
"331 673 OFFCURVE",
"328 673 OFFCURVE",
"324 673 CURVE SMOOTH",
"250 673 LINE SMOOTH",
"247 673 OFFCURVE",
"244 671 OFFCURVE",
"243 669 CURVE SMOOTH",
"172 524 OFFCURVE",
"83 168 OFFCURVE",
"60 5 CURVE",
"60 1 OFFCURVE",
"60 0 OFFCURVE",
"64 0 CURVE SMOOTH"
);
},
{
closed = 1;
nodes = (
"134 201 OFFCURVE",
"134 208 OFFCURVE",
"135 211 CURVE SMOOTH",
"170 362 OFFCURVE",
"222 540 OFFCURVE",
"265 637 CURVE SMOOTH",
"267 642 OFFCURVE",
"269 643 OFFCURVE",
"275 643 CURVE SMOOTH",
"301 643 LINE SMOOTH",
"305 643 OFFCURVE",
"309 642 OFFCURVE",
"311 638 CURVE SMOOTH",
"368 505 OFFCURVE",
"400 361 OFFCURVE",
"438 218 CURVE",
"440 204 OFFCURVE",
"434 201 OFFCURVE",
"430 201 CURVE SMOOTH",
"142 201 LINE SMOOTH"
);
}
);
width = 575;
},
{
anchors = (
{
name = bottom;
position = "{275, 0}";
},
{
name = ogonek;
position = "{521, 10}";
},
{
name = top;
position = "{275, 673}";
}
);
background = {
anchors = (
{
name = bottom;
position = "{275, 0}";
},
{
name = ogonek;
position = "{499, 10}";
},
{
name = top;
position = "{275, 673}";
}
);
paths = (
{
closed = 1;
nodes = (
"146 0 LINE SMOOTH",
"158 0 OFFCURVE",
"161 2 OFFCURVE",
"166 32 CURVE SMOOTH",
"171 61 OFFCURVE",
"182 107 OFFCURVE",
"187 133 CURVE SMOOTH",
"189 143 OFFCURVE",
"189 143 OFFCURVE",
"198 143 CURVE SMOOTH",
"352 143 LINE SMOOTH",
"361 143 OFFCURVE",
"361 143 OFFCURVE",
"363 133 CURVE SMOOTH",
"368 107 OFFCURVE",
"379 61 OFFCURVE",
"384 32 CURVE SMOOTH",
"389 2 OFFCURVE",
"392 0 OFFCURVE",
"404 0 CURVE SMOOTH",
"522 0 LINE SMOOTH",
"536 0 OFFCURVE",
"538 8 OFFCURVE",
"533 40 CURVE SMOOTH",
"513 188 OFFCURVE",
"421 513 OFFCURVE",
"349 651 CURVE SMOOTH",
"342 664 OFFCURVE",
"335 669 OFFCURVE",
"324 673 CURVE",
"225 673 LINE SMOOTH",
"214 673 OFFCURVE",
"208 664 OFFCURVE",
"200 651 CURVE",
"129 513 OFFCURVE",
"37 188 OFFCURVE",
"17 40 CURVE SMOOTH",
"12 8 OFFCURVE",
"14 0 OFFCURVE",
"27 0 CURVE SMOOTH"
);
},
{
closed = 1;
nodes = (
"221 258 OFFCURVE",
"220 261 OFFCURVE",
"222 270 CURVE SMOOTH",
"238 328 OFFCURVE",
"254 385 OFFCURVE",
"270 438 CURVE SMOOTH",
"271 443 OFFCURVE",
"273 447 OFFCURVE",
"274 452 CURVE",
"275 448 OFFCURVE",
"276 444 OFFCURVE",
"278 440 CURVE SMOOTH",
"278 439 OFFCURVE",
"279 437 OFFCURVE",
"279 436 CURVE SMOOTH",
"295 384 OFFCURVE",
"311 328 OFFCURVE",
"327 270 CURVE SMOOTH",
"330 261 OFFCURVE",
"329 258 OFFCURVE",
"320 258 CURVE SMOOTH",
"230 258 LINE SMOOTH"
);
},
{
closed = 1;
nodes = (
"146 0 LINE SMOOTH",
"158 0 OFFCURVE",
"161 2 OFFCURVE",
"166 32 CURVE SMOOTH",
"171 61 OFFCURVE",
"182 107 OFFCURVE",
"187 133 CURVE SMOOTH",
"189 143 OFFCURVE",
"189 143 OFFCURVE",
"198 143 CURVE SMOOTH",
"352 143 LINE SMOOTH",
"361 143 OFFCURVE",
"361 143 OFFCURVE",
"363 133 CURVE SMOOTH",
"368 107 OFFCURVE",
"379 61 OFFCURVE",
"384 32 CURVE SMOOTH",
"389 2 OFFCURVE",
"392 0 OFFCURVE",
"404 0 CURVE SMOOTH",
"522 0 LINE SMOOTH",
"536 0 OFFCURVE",
"538 8 OFFCURVE",
"533 40 CURVE SMOOTH",
"513 188 OFFCURVE",
"421 513 OFFCURVE",
"349 651 CURVE SMOOTH",
"342 664 OFFCURVE",
"335 669 OFFCURVE",
"324 673 CURVE",
"225 673 LINE SMOOTH",
"214 673 OFFCURVE",
"208 664 OFFCURVE",
"200 651 CURVE",
"129 513 OFFCURVE",
"37 188 OFFCURVE",
"17 40 CURVE SMOOTH",
"12 8 OFFCURVE",
"14 0 OFFCURVE",
"27 0 CURVE SMOOTH"
);
},
{
closed = 1;
nodes = (
"221 258 OFFCURVE",
"220 261 OFFCURVE",
"222 270 CURVE SMOOTH",
"238 328 OFFCURVE",
"254 385 OFFCURVE",
"270 438 CURVE SMOOTH",
"271 443 OFFCURVE",
"273 447 OFFCURVE",
"274 452 CURVE",
"275 448 OFFCURVE",
"276 444 OFFCURVE",
"278 440 CURVE SMOOTH",
"278 439 OFFCURVE",
"279 437 OFFCURVE",
"279 436 CURVE SMOOTH",
"295 384 OFFCURVE",
"311 328 OFFCURVE",
"327 270 CURVE SMOOTH",
"330 261 OFFCURVE",
"329 258 OFFCURVE",
"320 258 CURVE SMOOTH",
"230 258 LINE SMOOTH"
);
}
);
};
layerId = "D1BC8BBB-1669-4C46-BC21-42BF6808B2B9";
paths = (
{
closed = 1;
nodes = (
"146 0 LINE SMOOTH",
"158 0 OFFCURVE",
"161 2 OFFCURVE",
"166 32 CURVE SMOOTH",
"171 61 OFFCURVE",
"182 107 OFFCURVE",
"187 133 CURVE SMOOTH",
"189 143 OFFCURVE",
"189 143 OFFCURVE",
"198 143 CURVE SMOOTH",
"352 143 LINE SMOOTH",
"361 143 OFFCURVE",
"361 143 OFFCURVE",
"363 133 CURVE SMOOTH",
"368 107 OFFCURVE",
"379 61 OFFCURVE",
"384 32 CURVE SMOOTH",
"389 2 OFFCURVE",
"392 0 OFFCURVE",
"404 0 CURVE SMOOTH",
"522 0 LINE SMOOTH",
"536 0 OFFCURVE",
"538 8 OFFCURVE",
"533 40 CURVE SMOOTH",
"513 188 OFFCURVE",
"421 513 OFFCURVE",
"349 651 CURVE SMOOTH",
"342 664 OFFCURVE",
"335 669 OFFCURVE",
"324 673 CURVE",
"225 673 LINE SMOOTH",
"214 673 OFFCURVE",
"208 664 OFFCURVE",
"200 651 CURVE",
"129 513 OFFCURVE",
"37 188 OFFCURVE",
"17 40 CURVE SMOOTH",
"12 8 OFFCURVE",
"14 0 OFFCURVE",
"27 0 CURVE SMOOTH"
);
},
{
closed = 1;
nodes = (
"221 258 OFFCURVE",
"220 261 OFFCURVE",
"222 270 CURVE SMOOTH",
"235 325 OFFCURVE",
"254 390 OFFCURVE",
"266 435 CURVE SMOOTH",
"268 441 OFFCURVE",
"269 444 OFFCURVE",
"272 444 CURVE SMOOTH",
"276 444 LINE SMOOTH",
"279 444 OFFCURVE",
"281 440 OFFCURVE",
"282 435 CURVE SMOOTH",
"295 389 OFFCURVE",
"314 323 OFFCURVE",
"327 270 CURVE SMOOTH",
"329 261 OFFCURVE",
"329 258 OFFCURVE",
"320 258 CURVE SMOOTH",
"230 258 LINE SMOOTH"
);
}
);
width = 549;
}
);
leftKerningGroup = A;
note = A;
rightKerningGroup = A;
unicode = 0041;
},
{
glyphname = B;
lastChange = "2021-06-09 03:17:17 +0000";
layers = (
{
anchors = (
{
name = bottom;
position = "{261, 0}";
},
{
name = top;
position = "{261, 672}";
}
);
background = {
anchors = (
{
name = bottom;
position = "{261, 0}";
},
{
name = top;
position = "{261, 672}";
}
);
paths = (
{
closed = 1;
nodes = (
"461 263 OFFCURVE",
"418 323 OFFCURVE",
"361 345 CURVE SMOOTH",
"351 348 OFFCURVE",
"354 356 OFFCURVE",
"360 359 CURVE SMOOTH",
"402 380 OFFCURVE",
"434 431 OFFCURVE",
"434 517 CURVE SMOOTH",
"434 662 OFFCURVE",
"342 673 OFFCURVE",
"220 673 CURVE SMOOTH",
"94 673 LINE SMOOTH",
"91 673 OFFCURVE",
"90 671 OFFCURVE",
"90 669 CURVE SMOOTH",
"90 4 LINE SMOOTH",
"90 1 OFFCURVE",
"91 0 OFFCURVE",
"94 0 CURVE SMOOTH",
"281 0 LINE SMOOTH",
"381 0 OFFCURVE",
"461 48 OFFCURVE",
"461 179 CURVE SMOOTH"
);
},
{
closed = 1;
nodes = (
"428 53 OFFCURVE",
"343 29 OFFCURVE",
"286 29 CURVE",
"128 29 LINE SMOOTH",
"124 29 OFFCURVE",
"123 31 OFFCURVE",
"123 34 CURVE SMOOTH",
"123 327 LINE SMOOTH",
"123 330 OFFCURVE",
"124 332 OFFCURVE",
"129 332 CURVE SMOOTH",
"257 332 LINE SMOOTH",
"361 332 OFFCURVE",
"428 301 OFFCURVE",
"428 182 CURVE SMOOTH"
);
},
{
closed = 1;
nodes = (
"401 433 OFFCURVE",
"358 361 OFFCURVE",
"265 361 CURVE SMOOTH",
"128 361 LINE SMOOTH",
"124 361 OFFCURVE",
"123 362 OFFCURVE",
"123 366 CURVE SMOOTH",
"123 638 LINE SMOOTH",
"123 641 OFFCURVE",
"124 643 OFFCURVE",
"128 643 CURVE SMOOTH",
"231 643 LINE SMOOTH",
"328 643 OFFCURVE",
"401 634 OFFCURVE",
"401 517 CURVE SMOOTH"
);
}
);
};
layerId = "707362F1-A677-446A-8636-E10BE3A7FAFF";
paths = (
{
closed = 1;
nodes = (
"461 263 OFFCURVE",
"418 323 OFFCURVE",
"361 345 CURVE SMOOTH",
"351 348 OFFCURVE",
"354 356 OFFCURVE",
"360 359 CURVE SMOOTH",
"402 380 OFFCURVE",
"434 431 OFFCURVE",
"434 517 CURVE SMOOTH",
"434 662 OFFCURVE",
"342 673 OFFCURVE",
"220 673 CURVE SMOOTH",
"94 673 LINE SMOOTH",
"91 673 OFFCURVE",
"90 671 OFFCURVE",
"90 669 CURVE SMOOTH",
"90 4 LINE SMOOTH",
"90 1 OFFCURVE",
"91 0 OFFCURVE",
"94 0 CURVE SMOOTH",
"281 0 LINE SMOOTH",
"381 0 OFFCURVE",
"461 48 OFFCURVE",
"461 179 CURVE SMOOTH"
);
},
{
closed = 1;
nodes = (
"428 53 OFFCURVE",
"343 29 OFFCURVE",
"286 29 CURVE",
"128 29 LINE SMOOTH",
"124 29 OFFCURVE",
"123 31 OFFCURVE",
"123 34 CURVE SMOOTH",
"123 327 LINE SMOOTH",
"123 330 OFFCURVE",
"124 332 OFFCURVE",
"129 332 CURVE SMOOTH",
"257 332 LINE SMOOTH",
"361 332 OFFCURVE",
"428 301 OFFCURVE",
"428 182 CURVE SMOOTH"
);
},
{
closed = 1;
nodes = (
"401 433 OFFCURVE",
"358 361 OFFCURVE",
"265 361 CURVE SMOOTH",
"128 361 LINE SMOOTH",
"124 361 OFFCURVE",
"123 362 OFFCURVE",
"123 366 CURVE SMOOTH",
"123 638 LINE SMOOTH",
"123 641 OFFCURVE",
"124 643 OFFCURVE",
"128 643 CURVE SMOOTH",
"231 643 LINE SMOOTH",
"328 643 OFFCURVE",
"401 634 OFFCURVE",
"401 517 CURVE SMOOTH"
);
}
);
width = 511;
},
{
anchors = (
{
name = bottom;
position = "{282, 0}";
},
{
name = top;
position = "{282, 673}";
}
);
background = {
anchors = (
{
name = bottom;
position = "{282, 0}";
},
{
name = top;
position = "{282, 673}";
}
);
paths = (
{
closed = 1;
nodes = (
"504 258 OFFCURVE",
"468 320 OFFCURVE",
"424 342 CURVE",
"420 345 OFFCURVE",
"416 352 OFFCURVE",
"424 355 CURVE",
"476 381 OFFCURVE",
"496 460 OFFCURVE",
"496 499 CURVE SMOOTH",
"496 662 OFFCURVE",
"385 673 OFFCURVE",
"252 673 CURVE SMOOTH",
"75 673 LINE SMOOTH",
"67 673 OFFCURVE",
"60 667 OFFCURVE",
"60 658 CURVE SMOOTH",
"60 14 LINE SMOOTH",
"60 6 OFFCURVE",
"67 0 OFFCURVE",
"75 0 CURVE SMOOTH",
"292 0 LINE SMOOTH",
"408 0 OFFCURVE",
"504 53 OFFCURVE",
"504 195 CURVE SMOOTH"
);
},
{
closed = 1;
nodes = (
"342 109 OFFCURVE",
"293 104 OFFCURVE",
"260 104 CURVE SMOOTH",
"220 104 LINE SMOOTH",
"212 104 OFFCURVE",
"212 105 OFFCURVE",
"212 111 CURVE SMOOTH",
"212 281 LINE SMOOTH",
"212 287 OFFCURVE",
"213 287 OFFCURVE",
"219 287 CURVE SMOOTH",
"247 287 LINE SMOOTH",
"308 287 OFFCURVE",
"342 278 OFFCURVE",
"342 196 CURVE SMOOTH"
);
},
{
closed = 1;
nodes = (
"336 422 OFFCURVE",
"311 404 OFFCURVE",
"258 404 CURVE SMOOTH",
"220 404 LINE SMOOTH",
"213 404 OFFCURVE",
"212 405 OFFCURVE",
"212 411 CURVE SMOOTH",
"212 560 LINE SMOOTH",
"212 568 OFFCURVE",
"213 569 OFFCURVE",
"219 569 CURVE SMOOTH",
"221 569 LINE SMOOTH",
"296 569 OFFCURVE",
"336 560 OFFCURVE",
"336 492 CURVE SMOOTH"
);
}
);
};
layerId = "D1BC8BBB-1669-4C46-BC21-42BF6808B2B9";
paths = (
{
closed = 1;
nodes = (
"504 258 OFFCURVE",
"468 320 OFFCURVE",
"424 342 CURVE",
"420 345 OFFCURVE",
"416 352 OFFCURVE",
"424 355 CURVE",
"476 381 OFFCURVE",
"496 460 OFFCURVE",
"496 499 CURVE SMOOTH",
"496 662 OFFCURVE",
"385 673 OFFCURVE",
"252 673 CURVE SMOOTH",
"75 673 LINE SMOOTH",
"67 673 OFFCURVE",
"60 667 OFFCURVE",
"60 658 CURVE SMOOTH",
"60 14 LINE SMOOTH",
"60 6 OFFCURVE",
"67 0 OFFCURVE",
"75 0 CURVE SMOOTH",
"292 0 LINE SMOOTH",
"408 0 OFFCURVE",
"504 53 OFFCURVE",
"504 195 CURVE SMOOTH"
);
},
{
closed = 1;
nodes = (
"342 109 OFFCURVE",
"293 104 OFFCURVE",
"260 104 CURVE SMOOTH",
"220 104 LINE SMOOTH",
"212 104 OFFCURVE",
"212 105 OFFCURVE",
"212 111 CURVE SMOOTH",
"212 281 LINE SMOOTH",
"212 287 OFFCURVE",
"213 287 OFFCURVE",
"219 287 CURVE SMOOTH",
"247 287 LINE SMOOTH",
"308 287 OFFCURVE",
"342 278 OFFCURVE",
"342 196 CURVE SMOOTH"
);
},
{
closed = 1;
nodes = (
"336 422 OFFCURVE",
"311 404 OFFCURVE",
"258 404 CURVE SMOOTH",
"220 404 LINE SMOOTH",
"213 404 OFFCURVE",
"212 405 OFFCURVE",
"212 411 CURVE SMOOTH",
"212 560 LINE SMOOTH",
"212 568 OFFCURVE",
"213 569 OFFCURVE",
"219 569 CURVE SMOOTH",
"221 569 LINE SMOOTH",
"296 569 OFFCURVE",
"336 560 OFFCURVE",
"336 492 CURVE SMOOTH"
);
}
);
width = 544;
}
);
leftKerningGroup = H;
leftMetricsKey = D;
note = B;
rightKerningGroup = B;
unicode = 0042;
},
{
glyphname = C;
lastChange = "2021-06-09 03:19:23 +0000";
layers = (
{
anchors = (
{
name = bottom;
position = "{292, 0}";
},
{
name = top;
position = "{284, 672}";
}
);
background = {
anchors = (
{
name = bottom;
position = "{265, 0}";
},
{
name = top;
position = "{284, 672}";
}
);
paths = (
{
closed = 1;
nodes = (
"399 34 LINE SMOOTH",
"399 39 OFFCURVE",
"398 42 OFFCURVE",
"394 40 CURVE SMOOTH",
"380 32 OFFCURVE",
"347 20 OFFCURVE",
"300 20 CURVE SMOOTH",
"119 20 OFFCURVE",
"92 224 OFFCURVE",
"92 349 CURVE SMOOTH",
"92 498 OFFCURVE",
"137 650 OFFCURVE",
"300 650 CURVE SMOOTH",
"347 650 OFFCURVE",
"380 638 OFFCURVE",
"394 630 CURVE SMOOTH",
"398 628 OFFCURVE",
"399 631 OFFCURVE",
"399 636 CURVE SMOOTH",
"399 658 LINE SMOOTH",
"399 662 OFFCURVE",
"397 666 OFFCURVE",
"391 668 CURVE SMOOTH",
"365 676 OFFCURVE",
"314 680 OFFCURVE",
"295 680 CURVE SMOOTH",
"146 680 OFFCURVE",
"58 566 OFFCURVE",
"58 335 CURVE SMOOTH",
"58 106 OFFCURVE",
"152 -9 OFFCURVE",
"295 -9 CURVE SMOOTH",
"314 -9 OFFCURVE",
"365 -6 OFFCURVE",
"391 2 CURVE",
"397 5 OFFCURVE",
"399 8 OFFCURVE",
"399 12 CURVE SMOOTH"
);
}
);
};
layerId = "707362F1-A677-446A-8636-E10BE3A7FAFF";
paths = (
{
closed = 1;
nodes = (
"399 34 LINE SMOOTH",
"399 39 OFFCURVE",
"398 42 OFFCURVE",
"394 40 CURVE SMOOTH",
"380 32 OFFCURVE",
"347 20 OFFCURVE",
"300 20 CURVE SMOOTH",
"119 20 OFFCURVE",
"92 224 OFFCURVE",
"92 349 CURVE SMOOTH",
"92 498 OFFCURVE",
"137 650 OFFCURVE",
"300 650 CURVE SMOOTH",
"347 650 OFFCURVE",
"380 638 OFFCURVE",
"394 630 CURVE SMOOTH",
"398 628 OFFCURVE",
"399 631 OFFCURVE",
"399 636 CURVE SMOOTH",
"399 658 LINE SMOOTH",
"399 662 OFFCURVE",
"397 666 OFFCURVE",
"391 668 CURVE SMOOTH",
"365 676 OFFCURVE",
"314 680 OFFCURVE",
"295 680 CURVE SMOOTH",
"146 680 OFFCURVE",
"58 566 OFFCURVE",
"58 335 CURVE SMOOTH",
"58 106 OFFCURVE",
"152 -9 OFFCURVE",
"295 -9 CURVE SMOOTH",
"314 -9 OFFCURVE",
"365 -6 OFFCURVE",
"391 2 CURVE",
"397 5 OFFCURVE",
"399 8 OFFCURVE",
"399 12 CURVE SMOOTH"
);
}
);
width = 437;
},
{
anchors = (
{
name = bottom;
position = "{314, 0}";
},
{
name = top;
position = "{297, 673}";
}
);
background = {
anchors = (
{
name = bottom;
position = "{291, 0}";
},
{
name = top;
position = "{297, 673}";
}
);
paths = (
{
closed = 1;
nodes = (
"446 124 LINE SMOOTH",
"446 146 OFFCURVE",
"438 147 OFFCURVE",
"408 129 CURVE SMOOTH",
"389 117 OFFCURVE",
"354 107 OFFCURVE",
"322 107 CURVE SMOOTH",
"212 107 OFFCURVE",
"193 242 OFFCURVE",
"193 348 CURVE SMOOTH",
"193 472 OFFCURVE",
"222 563 OFFCURVE",
"322 563 CURVE SMOOTH",
"348 563 OFFCURVE",
"383 555 OFFCURVE",
"412 536 CURVE SMOOTH",
"435 520 OFFCURVE",
"446 523 OFFCURVE",
"446 543 CURVE SMOOTH",
"446 642 LINE SMOOTH",
"446 656 OFFCURVE",
"434 661 OFFCURVE",
"414 667 CURVE SMOOTH",
"385 676 OFFCURVE",
"329 680 OFFCURVE",
"310 680 CURVE SMOOTH",
"139 680 OFFCURVE",
"38 562 OFFCURVE",
"38 335 CURVE SMOOTH",
"38 111 OFFCURVE",
"146 -8 OFFCURVE",
"310 -8 CURVE SMOOTH",
"329 -8 OFFCURVE",
"385 -6 OFFCURVE",
"414 4 CURVE SMOOTH",
"434 9 OFFCURVE",
"446 20 OFFCURVE",
"446 39 CURVE SMOOTH"
);
}
);
};
layerId = "D1BC8BBB-1669-4C46-BC21-42BF6808B2B9";
paths = (
{
closed = 1;
nodes = (
"446 124 LINE SMOOTH",
"446 146 OFFCURVE",
"438 147 OFFCURVE",
"408 129 CURVE SMOOTH",
"389 117 OFFCURVE",
"354 107 OFFCURVE",
"322 107 CURVE SMOOTH",
"212 107 OFFCURVE",
"193 242 OFFCURVE",
"193 348 CURVE SMOOTH",
"193 472 OFFCURVE",
"222 563 OFFCURVE",
"322 563 CURVE SMOOTH",
"348 563 OFFCURVE",
"383 555 OFFCURVE",
"412 536 CURVE SMOOTH",
"435 520 OFFCURVE",
"446 523 OFFCURVE",
"446 543 CURVE SMOOTH",
"446 642 LINE SMOOTH",
"446 656 OFFCURVE",
"434 661 OFFCURVE",
"414 667 CURVE SMOOTH",
"385 676 OFFCURVE",
"329 680 OFFCURVE",
"310 680 CURVE SMOOTH",
"139 680 OFFCURVE",
"38 562 OFFCURVE",
"38 335 CURVE SMOOTH",
"38 111 OFFCURVE",
"146 -8 OFFCURVE",
"310 -8 CURVE SMOOTH",
"329 -8 OFFCURVE",
"385 -6 OFFCURVE",
"414 4 CURVE SMOOTH",
"434 9 OFFCURVE",
"446 20 OFFCURVE",
"446 39 CURVE SMOOTH"
);
}
);
width = 476;
}
);
leftKerningGroup = O;
leftMetricsKey = O;
note = C;
rightKerningGroup = C;
unicode = 0043;
},
{
glyphname = D;
lastChange = "2021-06-09 03:19:23 +0000";
layers = (
{
anchors = (
{
name = bottom;
position = "{245, 0}";
},
{
name = center;
position = "{286, 336}";
},
{
name = top;
position = "{261, 672}";
}
);
background = {
anchors = (
{
name = bottom;
position = "{245, 0}";
},
{
name = center;
position = "{286, 336}";
},
{
name = top;
position = "{261, 672}";
}
);
paths = (
{
closed = 1;
nodes = (
"517 641 OFFCURVE",
"393 673 OFFCURVE",
"300 673 CURVE SMOOTH",
"94 673 LINE SMOOTH",
"91 673 OFFCURVE",
"90 671 OFFCURVE",
"90 669 CURVE SMOOTH",
"90 4 LINE SMOOTH",
"90 1 OFFCURVE",
"91 0 OFFCURVE",
"94 0 CURVE SMOOTH",
"300 0 LINE SMOOTH",
"376 0 OFFCURVE",
"517 54 OFFCURVE",
"517 347 CURVE SMOOTH"
);
},
{
closed = 1;
nodes = (
"484 81 OFFCURVE",
"363 29 OFFCURVE",
"287 29 CURVE SMOOTH",
"128 29 LINE SMOOTH",
"124 29 OFFCURVE",
"123 31 OFFCURVE",
"123 34 CURVE SMOOTH",
"123 638 LINE SMOOTH",
"123 641 OFFCURVE",
"124 643 OFFCURVE",
"128 643 CURVE SMOOTH",
"305 643 LINE SMOOTH",
"378 643 OFFCURVE",
"484 614 OFFCURVE",
"484 347 CURVE SMOOTH"
);
}
);
};
layerId = "707362F1-A677-446A-8636-E10BE3A7FAFF";
paths = (
{
closed = 1;
nodes = (
"517 641 OFFCURVE",
"393 673 OFFCURVE",
"300 673 CURVE SMOOTH",
"94 673 LINE SMOOTH",
"91 673 OFFCURVE",
"90 671 OFFCURVE",
"90 669 CURVE SMOOTH",
"90 4 LINE SMOOTH",
"90 1 OFFCURVE",
"91 0 OFFCURVE",
"94 0 CURVE SMOOTH",
"300 0 LINE SMOOTH",
"376 0 OFFCURVE",
"517 54 OFFCURVE",
"517 347 CURVE SMOOTH"
);
},
{
closed = 1;
nodes = (
"484 81 OFFCURVE",
"363 29 OFFCURVE",
"287 29 CURVE SMOOTH",
"128 29 LINE SMOOTH",
"124 29 OFFCURVE",
"123 31 OFFCURVE",
"123 34 CURVE SMOOTH",
"123 638 LINE SMOOTH",
"123 641 OFFCURVE",
"124 643 OFFCURVE",
"128 643 CURVE SMOOTH",
"305 643 LINE SMOOTH",
"378 643 OFFCURVE",
"484 614 OFFCURVE",
"484 347 CURVE SMOOTH"
);
}
);
width = 575;
},
{
anchors = (
{
name = bottom;
position = "{302, 0}";
},
{
name = center;
position = "{302, 337}";
},
{
name = top;
position = "{271, 673}";
}
);
background = {
anchors = (
{
name = bottom;
position = "{302, 0}";
},
{
name = center;
position = "{302, 337}";
},
{
name = top;
position = "{302, 673}";
}
);
paths = (
{
closed = 1;
nodes = (
"548 638 OFFCURVE",
"386 673 OFFCURVE",
"261 673 CURVE SMOOTH",
"75 673 LINE SMOOTH",
"67 673 OFFCURVE",
"60 667 OFFCURVE",
"60 658 CURVE SMOOTH",
"60 14 LINE SMOOTH",
"60 6 OFFCURVE",
"67 0 OFFCURVE",
"75 0 CURVE SMOOTH",
"261 0 LINE SMOOTH",
"364 0 OFFCURVE",
"548 57 OFFCURVE",
"548 346 CURVE SMOOTH"
);
},
{
closed = 1;
nodes = (
"398 131 OFFCURVE",
"298 116 OFFCURVE",
"238 116 CURVE SMOOTH",
"221 116 LINE SMOOTH",
"213 116 OFFCURVE",
"212 116 OFFCURVE",
"212 126 CURVE SMOOTH",
"212 548 LINE SMOOTH",
"212 557 OFFCURVE",
"212 557 OFFCURVE",
"224 557 CURVE SMOOTH",
"254 557 LINE SMOOTH",
"311 557 OFFCURVE",
"398 560 OFFCURVE",
"398 346 CURVE SMOOTH"
);
}
);
};
layerId = "D1BC8BBB-1669-4C46-BC21-42BF6808B2B9";
paths = (
{
closed = 1;
nodes = (
"548 638 OFFCURVE",
"386 673 OFFCURVE",
"261 673 CURVE SMOOTH",
"75 673 LINE SMOOTH",
"67 673 OFFCURVE",
"60 667 OFFCURVE",
"60 658 CURVE SMOOTH",
"60 14 LINE SMOOTH",
"60 6 OFFCURVE",
"67 0 OFFCURVE",
"75 0 CURVE SMOOTH",
"261 0 LINE SMOOTH",
"364 0 OFFCURVE",
"548 57 OFFCURVE",
"548 346 CURVE SMOOTH"
);
},
{
closed = 1;
nodes = (
"398 131 OFFCURVE",
"298 116 OFFCURVE",
"238 116 CURVE SMOOTH",
"221 116 LINE SMOOTH",
"213 116 OFFCURVE",
"212 116 OFFCURVE",
"212 126 CURVE SMOOTH",
"212 548 LINE SMOOTH",
"212 557 OFFCURVE",
"212 557 OFFCURVE",
"224 557 CURVE SMOOTH",
"254 557 LINE SMOOTH",
"311 557 OFFCURVE",
"398 560 OFFCURVE",
"398 346 CURVE SMOOTH"
);
}
);
width = 586;
}
);
leftKerningGroup = H;
leftMetricsKey = "=H+5";
note = D;
rightKerningGroup = O;
rightMetricsKey = O;
unicode = 0044;
},
{
glyphname = E;
lastChange = "2021-06-09 03:18:21 +0000";
layers = (
{
anchors = (
{
name = bottom;
position = "{240, 0}";
},
{
name = ogonek;
position = "{300, 10}";
},
{
name = top;
position = "{240, 672}";
},
{
name = topleft;
position = "{40, 672}";
}
);
background = {
anchors = (
{
name = bottom;
position = "{240, 0}";
},
{
name = ogonek;
position = "{251, 10}";
},
{
name = top;
position = "{240, 672}";
},
{
name = topleft;
position = "{40, 672}";
}
);
paths = (
{
closed = 1;
nodes = (
"397 0 LINE SMOOTH",
"399 0 OFFCURVE",
"400 1 OFFCURVE",
"400 4 CURVE SMOOTH",
"400 26 LINE SMOOTH",
"400 28 OFFCURVE",
"399 29 OFFCURVE",
"397 29 CURVE SMOOTH",
"130 29 LINE SMOOTH",
"123 29 OFFCURVE",
"123 32 OFFCURVE",
"123 38 CURVE SMOOTH",
"123 317 LINE SMOOTH",
"123 322 OFFCURVE",
"124 324 OFFCURVE",
"129 324 CURVE SMOOTH",
"352 324 LINE SMOOTH",
"354 324 OFFCURVE",
"355 326 OFFCURVE",
"355 328 CURVE SMOOTH",
"355 350 LINE SMOOTH",
"355 353 OFFCURVE",
"354 354 OFFCURVE",
"352 354 CURVE SMOOTH",
"130 354 LINE SMOOTH",
"127 354 OFFCURVE",
"123 358 OFFCURVE",
"123 361 CURVE SMOOTH",
"123 636 LINE SMOOTH",
"123 640 OFFCURVE",
"123 643 OFFCURVE",
"129 643 CURVE SMOOTH",
"397 643 LINE SMOOTH",
"399 643 OFFCURVE",
"400 644 OFFCURVE",
"400 647 CURVE SMOOTH",
"400 669 LINE SMOOTH",
"400 671 OFFCURVE",
"399 673 OFFCURVE",
"397 673 CURVE SMOOTH",
"94 673 LINE SMOOTH",
"91 673 OFFCURVE",
"90 671 OFFCURVE",
"90 669 CURVE SMOOTH",
"90 4 LINE SMOOTH",
"90 1 OFFCURVE",
"91 0 OFFCURVE",
"94 0 CURVE SMOOTH"
);
}
);
};
layerId = "707362F1-A677-446A-8636-E10BE3A7FAFF";
paths = (
{
closed = 1;
nodes = (
"397 0 LINE SMOOTH",
"399 0 OFFCURVE",
"400 1 OFFCURVE",
"400 4 CURVE SMOOTH",
"400 26 LINE SMOOTH",
"400 28 OFFCURVE",
"399 29 OFFCURVE",
"397 29 CURVE SMOOTH",
"130 29 LINE SMOOTH",
"123 29 OFFCURVE",
"123 32 OFFCURVE",
"123 38 CURVE SMOOTH",
"123 317 LINE SMOOTH",
"123 322 OFFCURVE",
"124 324 OFFCURVE",
"129 324 CURVE SMOOTH",
"352 324 LINE SMOOTH",
"354 324 OFFCURVE",
"355 326 OFFCURVE",
"355 328 CURVE SMOOTH",
"355 350 LINE SMOOTH",
"355 353 OFFCURVE",
"354 354 OFFCURVE",
"352 354 CURVE SMOOTH",
"130 354 LINE SMOOTH",
"127 354 OFFCURVE",
"123 358 OFFCURVE",
"123 361 CURVE SMOOTH",
"123 636 LINE SMOOTH",
"123 640 OFFCURVE",
"123 643 OFFCURVE",
"129 643 CURVE SMOOTH",
"397 643 LINE SMOOTH",
"399 643 OFFCURVE",
"400 644 OFFCURVE",
"400 647 CURVE SMOOTH",
"400 669 LINE SMOOTH",
"400 671 OFFCURVE",
"399 673 OFFCURVE",
"397 673 CURVE SMOOTH",
"94 673 LINE SMOOTH",
"91 673 OFFCURVE",
"90 671 OFFCURVE",
"90 669 CURVE SMOOTH",
"90 4 LINE SMOOTH",
"90 1 OFFCURVE",
"91 0 OFFCURVE",
"94 0 CURVE SMOOTH"
);
}
);
width = 440;
},
{
anchors = (
{
name = bottom;
position = "{242, 0}";
},
{
name = ogonek;
position = "{343, 10}";
},
{
name = top;
position = "{242, 673}";
},
{
name = topleft;
position = "{40, 673}";
}
);
background = {
anchors = (
{
name = bottom;
position = "{242, 0}";
},
{
name = ogonek;
position = "{253, 10}";
},
{
name = top;
position = "{242, 673}";
},
{
name = topleft;
position = "{40, 673}";
}
);
paths = (
{
closed = 1;
nodes = (
"411 0 LINE SMOOTH",
"431 0 OFFCURVE",
"434 0 OFFCURVE",
"434 22 CURVE SMOOTH",
"434 94 LINE SMOOTH",
"434 114 OFFCURVE",
"434 116 OFFCURVE",
"412 116 CURVE SMOOTH",
"220 116 LINE SMOOTH",
"212 116 OFFCURVE",
"212 117 OFFCURVE",
"212 125 CURVE SMOOTH",
"212 275 LINE SMOOTH",
"212 282 OFFCURVE",
"213 282 OFFCURVE",
"220 282 CURVE SMOOTH",
"370 282 LINE SMOOTH",
"389 282 OFFCURVE",
"390 283 OFFCURVE",
"390 303 CURVE SMOOTH",
"390 374 LINE SMOOTH",
"390 395 OFFCURVE",
"390 396 OFFCURVE",
"370 396 CURVE SMOOTH",
"220 396 LINE SMOOTH",
"212 396 OFFCURVE",
"212 396 OFFCURVE",
"212 405 CURVE SMOOTH",
"212 549 LINE SMOOTH",
"212 557 OFFCURVE",
"212 557 OFFCURVE",
"221 557 CURVE SMOOTH",
"415 557 LINE SMOOTH",
"431 557 OFFCURVE",
"434 557 OFFCURVE",
"434 576 CURVE SMOOTH",
"434 656 LINE SMOOTH",
"434 673 OFFCURVE",
"434 673 OFFCURVE",
"415 673 CURVE SMOOTH",
"75 673 LINE SMOOTH",
"67 673 OFFCURVE",
"60 667 OFFCURVE",
"60 658 CURVE SMOOTH",
"60 14 LINE SMOOTH",
"60 6 OFFCURVE",
"67 0 OFFCURVE",
"75 0 CURVE SMOOTH"
);
}
);
};
layerId = "D1BC8BBB-1669-4C46-BC21-42BF6808B2B9";
paths = (
{
closed = 1;
nodes = (
"411 0 LINE SMOOTH",
"431 0 OFFCURVE",
"434 0 OFFCURVE",
"434 22 CURVE SMOOTH",
"434 94 LINE SMOOTH",
"434 114 OFFCURVE",
"434 116 OFFCURVE",
"412 116 CURVE SMOOTH",
"220 116 LINE SMOOTH",
"212 116 OFFCURVE",
"212 117 OFFCURVE",
"212 125 CURVE SMOOTH",
"212 275 LINE SMOOTH",
"212 282 OFFCURVE",
"213 282 OFFCURVE",
"220 282 CURVE SMOOTH",
"370 282 LINE SMOOTH",
"389 282 OFFCURVE",
"390 283 OFFCURVE",
"390 303 CURVE SMOOTH",
"390 374 LINE SMOOTH",
"390 395 OFFCURVE",
"390 396 OFFCURVE",
"370 396 CURVE SMOOTH",
"220 396 LINE SMOOTH",
"212 396 OFFCURVE",
"212 396 OFFCURVE",
"212 405 CURVE SMOOTH",
"212 549 LINE SMOOTH",
"212 557 OFFCURVE",
"212 557 OFFCURVE",
"221 557 CURVE SMOOTH",
"415 557 LINE SMOOTH",
"431 557 OFFCURVE",
"434 557 OFFCURVE",
"434 576 CURVE SMOOTH",
"434 656 LINE SMOOTH",
"434 673 OFFCURVE",
"434 673 OFFCURVE",
"415 673 CURVE SMOOTH",
"75 673 LINE SMOOTH",
"67 673 OFFCURVE",
"60 667 OFFCURVE",
"60 658 CURVE SMOOTH",
"60 14 LINE SMOOTH",
"60 6 OFFCURVE",
"67 0 OFFCURVE",
"75 0 CURVE SMOOTH"
);
}
);
width = 458;
}
);
leftKerningGroup = H;
leftMetricsKey = D;
note = E;
rightKerningGroup = E;
unicode = 0045;
},
{
glyphname = F;
lastChange = "2021-06-09 03:42:43 +0000";
layers = (
{
anchors = (
{
name = bottom;
position = "{215, 0}";
},
{
name = top;
position = "{215, 672}";
}
);
background = {
anchors = (
{
name = bottom;
position = "{215, 0}";
},
{
name = top;
position = "{215, 672}";
}
);
paths = (
{
closed = 1;
nodes = (
"119 0 LINE SMOOTH",
"122 0 OFFCURVE",
"123 1 OFFCURVE",
"123 4 CURVE SMOOTH",
"123 317 LINE SMOOTH",
"123 322 OFFCURVE",
"124 324 OFFCURVE",
"129 324 CURVE SMOOTH",
"340 324 LINE SMOOTH",
"343 324 OFFCURVE",
"344 326 OFFCURVE",
"344 328 CURVE SMOOTH",
"344 350 LINE SMOOTH",
"344 353 OFFCURVE",
"343 354 OFFCURVE",
"340 354 CURVE SMOOTH",
"130 354 LINE SMOOTH",
"127 354 OFFCURVE",
"123 358 OFFCURVE",
"123 361 CURVE SMOOTH",
"123 636 LINE SMOOTH",
"123 640 OFFCURVE",
"123 643 OFFCURVE",
"129 643 CURVE SMOOTH",
"397 643 LINE SMOOTH",
"399 643 OFFCURVE",
"400 644 OFFCURVE",
"400 647 CURVE SMOOTH",
"400 669 LINE SMOOTH",
"400 671 OFFCURVE",
"399 673 OFFCURVE",
"397 673 CURVE SMOOTH",
"94 673 LINE SMOOTH",
"91 673 OFFCURVE",
"90 671 OFFCURVE",
"90 669 CURVE SMOOTH",
"90 4 LINE SMOOTH",
"90 1 OFFCURVE",
"91 0 OFFCURVE",
"94 0 CURVE SMOOTH"
);
}
);
};
layerId = "707362F1-A677-446A-8636-E10BE3A7FAFF";
paths = (
{
closed = 1;
nodes = (
"119 0 LINE SMOOTH",
"122 0 OFFCURVE",
"123 1 OFFCURVE",
"123 4 CURVE SMOOTH",
"123 317 LINE SMOOTH",
"123 322 OFFCURVE",
"124 324 OFFCURVE",
"129 324 CURVE SMOOTH",
"340 324 LINE SMOOTH",
"343 324 OFFCURVE",
"344 326 OFFCURVE",
"344 328 CURVE SMOOTH",
"344 350 LINE SMOOTH",
"344 353 OFFCURVE",
"343 354 OFFCURVE",
"340 354 CURVE SMOOTH",
"130 354 LINE SMOOTH",
"127 354 OFFCURVE",
"123 358 OFFCURVE",
"123 361 CURVE SMOOTH",
"123 636 LINE SMOOTH",
"123 640 OFFCURVE",
"123 643 OFFCURVE",
"129 643 CURVE SMOOTH",
"397 643 LINE SMOOTH",
"399 643 OFFCURVE",
"400 644 OFFCURVE",
"400 647 CURVE SMOOTH",
"400 669 LINE SMOOTH",
"400 671 OFFCURVE",
"399 673 OFFCURVE",
"397 673 CURVE SMOOTH",
"94 673 LINE SMOOTH",
"91 673 OFFCURVE",
"90 671 OFFCURVE",
"90 669 CURVE SMOOTH",
"90 4 LINE SMOOTH",
"90 1 OFFCURVE",
"91 0 OFFCURVE",
"94 0 CURVE SMOOTH"
);
}
);
width = 420;
},
{
anchors = (
{
name = bottom;
position = "{232, 0}";
},
{
name = top;
position = "{232, 673}";
}
);
background = {
anchors = (
{
name = bottom;
position = "{232, 0}";
},
{
name = top;
position = "{232, 673}";
}
);
paths = (
{
closed = 1;
nodes = (
"189 0 LINE SMOOTH",
"211 0 OFFCURVE",
"212 0 OFFCURVE",
"212 22 CURVE SMOOTH",
"212 275 LINE SMOOTH",
"212 282 OFFCURVE",
"213 282 OFFCURVE",
"220 282 CURVE SMOOTH",
"370 282 LINE SMOOTH",
"389 282 OFFCURVE",
"390 283 OFFCURVE",
"390 303 CURVE SMOOTH",
"390 374 LINE SMOOTH",
"390 395 OFFCURVE",
"390 396 OFFCURVE",
"370 396 CURVE SMOOTH",
"220 396 LINE SMOOTH",
"212 396 OFFCURVE",
"212 396 OFFCURVE",
"212 405 CURVE SMOOTH",
"212 549 LINE SMOOTH",
"212 557 OFFCURVE",
"212 557 OFFCURVE",
"221 557 CURVE SMOOTH",
"415 557 LINE SMOOTH",
"431 557 OFFCURVE",
"434 557 OFFCURVE",
"434 576 CURVE SMOOTH",
"434 656 LINE SMOOTH",
"434 673 OFFCURVE",
"434 673 OFFCURVE",
"415 673 CURVE SMOOTH",
"75 673 LINE SMOOTH",
"67 673 OFFCURVE",
"60 667 OFFCURVE",
"60 658 CURVE SMOOTH",
"60 14 LINE SMOOTH",
"60 6 OFFCURVE",
"67 0 OFFCURVE",
"75 0 CURVE SMOOTH"
);
}
);
};
layerId = "D1BC8BBB-1669-4C46-BC21-42BF6808B2B9";
paths = (
{
closed = 1;
nodes = (
"189 0 LINE SMOOTH",
"211 0 OFFCURVE",
"212 0 OFFCURVE",
"212 22 CURVE SMOOTH",
"212 275 LINE SMOOTH",
"212 282 OFFCURVE",
"213 282 OFFCURVE",
"220 282 CURVE SMOOTH",
"370 282 LINE SMOOTH",
"389 282 OFFCURVE",
"390 283 OFFCURVE",
"390 303 CURVE SMOOTH",
"390 374 LINE SMOOTH",
"390 395 OFFCURVE",
"390 396 OFFCURVE",
"370 396 CURVE SMOOTH",
"220 396 LINE SMOOTH",
"212 396 OFFCURVE",
"212 396 OFFCURVE",
"212 405 CURVE SMOOTH",
"212 549 LINE SMOOTH",
"212 557 OFFCURVE",
"212 557 OFFCURVE",
"221 557 CURVE SMOOTH",
"415 557 LINE SMOOTH",
"431 557 OFFCURVE",
"434 557 OFFCURVE",
"434 576 CURVE SMOOTH",
"434 656 LINE SMOOTH",
"434 673 OFFCURVE",
"434 673 OFFCURVE",
"415 673 CURVE SMOOTH",
"75 673 LINE SMOOTH",
"67 673 OFFCURVE",
"60 667 OFFCURVE",
"60 658 CURVE SMOOTH",
"60 14 LINE SMOOTH",
"60 6 OFFCURVE",
"67 0 OFFCURVE",
"75 0 CURVE SMOOTH"
);
}
);
width = 450;
}
);
leftKerningGroup = H;
leftMetricsKey = D;
note = F;
rightKerningGroup = F;
unicode = 0046;
},
{
glyphname = G;
lastChange = "2021-06-09 03:44:20 +0000";
layers = (
{
anchors = (
{
name = bottom;
position = "{309, 0}";
},
{
name = top;
position = "{343, 672}";
}
);
background = {
anchors = (
{
name = bottom;
position = "{309, 0}";
},
{
name = top;
position = "{343, 672}";
}
);
paths = (
{
closed = 1;
nodes = (
"479 347 LINE SMOOTH",
"479 354 OFFCURVE",
"478 356 OFFCURVE",
"470 356 CURVE SMOOTH",
"267 356 LINE SMOOTH",
"266 356 OFFCURVE",
"264 353 OFFCURVE",
"264 353 CURVE",
"264 330 LINE",
"264 330 OFFCURVE",
"266 327 OFFCURVE",
"267 327 CURVE SMOOTH",
"435 327 LINE SMOOTH",
"442 327 OFFCURVE",
"446 324 OFFCURVE",
"446 315 CURVE SMOOTH",
"446 32 LINE",
"439 26 OFFCURVE",
"417 22 OFFCURVE",
"385 22 CURVE SMOOTH",
"258 22 OFFCURVE",
"82 81 OFFCURVE",
"82 332 CURVE SMOOTH",
"82 572 OFFCURVE",
"256 649 OFFCURVE",
"358 649 CURVE SMOOTH",
"396 649 OFFCURVE",
"436 648 OFFCURVE",
"469 629 CURVE SMOOTH",
"473 627 OFFCURVE",
"474 630 OFFCURVE",
"474 635 CURVE SMOOTH",
"474 657 LINE SMOOTH",
"474 661 OFFCURVE",
"472 664 OFFCURVE",
"466 667 CURVE",
"437 676 OFFCURVE",
"389 678 OFFCURVE",
"358 678 CURVE SMOOTH",
"183 678 OFFCURVE",
"48 545 OFFCURVE",
"48 324 CURVE SMOOTH",
"48 107 OFFCURVE",
"177 -6 OFFCURVE",
"401 -6 CURVE SMOOTH",
"434 -6 OFFCURVE",
"479 -4 OFFCURVE",
"479 18 CURVE SMOOTH"
);
}
);
};
layerId = "707362F1-A677-446A-8636-E10BE3A7FAFF";
paths = (
{
closed = 1;
nodes = (
"479 347 LINE SMOOTH",
"479 354 OFFCURVE",
"478 356 OFFCURVE",
"470 356 CURVE SMOOTH",
"267 356 LINE SMOOTH",
"266 356 OFFCURVE",
"264 353 OFFCURVE",
"264 353 CURVE",
"264 330 LINE",
"264 330 OFFCURVE",
"266 327 OFFCURVE",
"267 327 CURVE SMOOTH",
"435 327 LINE SMOOTH",
"442 327 OFFCURVE",
"446 324 OFFCURVE",
"446 315 CURVE SMOOTH",
"446 32 LINE",
"439 26 OFFCURVE",
"417 22 OFFCURVE",
"385 22 CURVE SMOOTH",
"258 22 OFFCURVE",
"82 81 OFFCURVE",
"82 332 CURVE SMOOTH",
"82 572 OFFCURVE",
"256 649 OFFCURVE",
"358 649 CURVE SMOOTH",
"396 649 OFFCURVE",
"436 648 OFFCURVE",
"469 629 CURVE SMOOTH",
"473 627 OFFCURVE",
"474 630 OFFCURVE",
"474 635 CURVE SMOOTH",
"474 657 LINE SMOOTH",
"474 661 OFFCURVE",
"472 664 OFFCURVE",
"466 667 CURVE",
"437 676 OFFCURVE",
"389 678 OFFCURVE",
"358 678 CURVE SMOOTH",
"183 678 OFFCURVE",
"48 545 OFFCURVE",
"48 324 CURVE SMOOTH",
"48 107 OFFCURVE",
"177 -6 OFFCURVE",
"401 -6 CURVE SMOOTH",
"434 -6 OFFCURVE",
"479 -4 OFFCURVE",
"479 18 CURVE SMOOTH"
);
}
);
width = 549;
},
{
anchors = (
{
name = bottom;
position = "{287, 0}";
},
{
name = top;
position = "{347, 673}";
}
);
background = {
anchors = (
{
name = bottom;
position = "{287, 0}";
},
{
name = top;
position = "{287, 673}";
}
);
paths = (
{
closed = 1;
nodes = (
"530 375 LINE SMOOTH",
"530 398 OFFCURVE",
"530 399 OFFCURVE",
"508 399 CURVE SMOOTH",
"269 399 LINE SMOOTH",
"253 399 OFFCURVE",
"251 396 OFFCURVE",
"251 380 CURVE SMOOTH",
"251 299 LINE SMOOTH",
"251 283 OFFCURVE",
"254 283 OFFCURVE",
"269 283 CURVE SMOOTH",
"372 283 LINE SMOOTH",
"379 283 OFFCURVE",
"379 282 OFFCURVE",
"379 276 CURVE SMOOTH",
"379 124 LINE SMOOTH",
"379 114 OFFCURVE",
"373 110 OFFCURVE",
"358 110 CURVE SMOOTH",
"304 110 OFFCURVE",
"189 132 OFFCURVE",
"189 332 CURVE SMOOTH",
"189 526 OFFCURVE",
"312 562 OFFCURVE",
"385 562 CURVE SMOOTH",
"430 562 OFFCURVE",
"462 552 OFFCURVE",
"495 533 CURVE SMOOTH",
"511 523 OFFCURVE",
"526 529 OFFCURVE",
"526 558 CURVE SMOOTH",
"526 638 LINE SMOOTH",
"526 658 OFFCURVE",
"518 657 OFFCURVE",
"497 664 CURVE SMOOTH",
"467 674 OFFCURVE",
"409 678 OFFCURVE",
"352 678 CURVE SMOOTH",
"163 678 OFFCURVE",
"28 544 OFFCURVE",
"28 326 CURVE SMOOTH",
"28 109 OFFCURVE",
"148 -6 OFFCURVE",
"392 -6 CURVE SMOOTH",
"469 -6 OFFCURVE",
"530 5 OFFCURVE",
"530 34 CURVE SMOOTH"
);
}
);
};
layerId = "D1BC8BBB-1669-4C46-BC21-42BF6808B2B9";
paths = (
{
closed = 1;
nodes = (
"530 375 LINE SMOOTH",
"530 398 OFFCURVE",
"530 399 OFFCURVE",
"508 399 CURVE SMOOTH",
"269 399 LINE SMOOTH",
"253 399 OFFCURVE",
"251 396 OFFCURVE",
"251 380 CURVE SMOOTH",
"251 299 LINE SMOOTH",
"251 283 OFFCURVE",
"254 283 OFFCURVE",
"269 283 CURVE SMOOTH",
"372 283 LINE SMOOTH",
"379 283 OFFCURVE",
"379 282 OFFCURVE",
"379 276 CURVE SMOOTH",
"379 124 LINE SMOOTH",
"379 114 OFFCURVE",
"373 110 OFFCURVE",
"358 110 CURVE SMOOTH",
"304 110 OFFCURVE",
"189 132 OFFCURVE",
"189 332 CURVE SMOOTH",
"189 526 OFFCURVE",
"312 562 OFFCURVE",
"385 562 CURVE SMOOTH",
"430 562 OFFCURVE",
"462 552 OFFCURVE",
"495 533 CURVE SMOOTH",
"511 523 OFFCURVE",
"526 529 OFFCURVE",
"526 558 CURVE SMOOTH",
"526 638 LINE SMOOTH",
"526 658 OFFCURVE",
"518 657 OFFCURVE",
"497 664 CURVE SMOOTH",
"467 674 OFFCURVE",
"409 678 OFFCURVE",
"352 678 CURVE SMOOTH",
"163 678 OFFCURVE",
"28 544 OFFCURVE",
"28 326 CURVE SMOOTH",
"28 109 OFFCURVE",
"148 -6 OFFCURVE",
"392 -6 CURVE SMOOTH",
"469 -6 OFFCURVE",
"530 5 OFFCURVE",
"530 34 CURVE SMOOTH"
);
}
);
width = 580;
}
);
leftKerningGroup = O;
leftMetricsKey = "=O-10";
note = G;
rightKerningGroup = G;
unicode = 0047;
},
{
glyphname = H;
lastChange = "2021-06-09 03:15:10 +0000";
layers = (
{
anchors = (
{
name = bottom;
position = "{305, 0}";
},
{
name = center;
position = "{305, 336}";
},
{
name = top;
position = "{305, 672}";
},
{
name = topleft;
position = "{30, 672}";
}
);
background = {
anchors = (
{
name = bottom;
position = "{305, 0}";
},
{
name = center;
position = "{305, 336}";
},
{
name = top;
position = "{305, 672}";
},
{
name = topleft;
position = "{30, 672}";
}
);
paths = (
{
closed = 1;
nodes = (
"112 0 OFFCURVE",
"120 0 OFFCURVE",
"129 0 CURVE SMOOTH",
"131 0 OFFCURVE",
"132 1 OFFCURVE",
"132 4 CURVE SMOOTH",
"114 131 OFFCURVE",
"117 282 OFFCURVE",
"118 316 CURVE SMOOTH",
"118 322 OFFCURVE",
"122 324 OFFCURVE",
"126 324 CURVE SMOOTH",
"245 324 OFFCURVE",
"365 324 OFFCURVE",
"484 324 CURVE SMOOTH",
"487 324 OFFCURVE",
"491 322 OFFCURVE",
"491 316 CURVE SMOOTH",
"492 288 OFFCURVE",
"496 132 OFFCURVE",
"478 4 CURVE SMOOTH",
"478 1 OFFCURVE",
"479 0 OFFCURVE",
"481 0 CURVE SMOOTH",
"490 0 OFFCURVE",
"498 0 OFFCURVE",
"507 0 CURVE SMOOTH",
"509 0 OFFCURVE",
"511 1 OFFCURVE",
"511 4 CURVE SMOOTH",
"519 70 OFFCURVE",
"525 202 OFFCURVE",
"525 334 CURVE SMOOTH",
"525 468 OFFCURVE",
"518 604 OFFCURVE",
"510 669 CURVE SMOOTH",
"510 671 OFFCURVE",
"507 673 OFFCURVE",
"506 673 CURVE SMOOTH",
"498 673 OFFCURVE",
"489 673 OFFCURVE",
"481 673 CURVE SMOOTH",
"479 673 OFFCURVE",
"478 671 OFFCURVE",
"477 670 CURVE",
"491 507 OFFCURVE",
"491 372 OFFCURVE",
"491 362 CURVE SMOOTH",
"491 354 OFFCURVE",
"487 354 OFFCURVE",
"484 354 CURVE SMOOTH",
"364 354 OFFCURVE",
"245 354 OFFCURVE",
"125 354 CURVE SMOOTH",
"122 354 OFFCURVE",
"119 355 OFFCURVE",
"119 362 CURVE SMOOTH",
"119 381 OFFCURVE",
"119 509 OFFCURVE",
"133 670 CURVE",
"132 671 OFFCURVE",
"131 673 OFFCURVE",
"129 673 CURVE SMOOTH",
"121 673 OFFCURVE",
"112 673 OFFCURVE",
"104 673 CURVE SMOOTH",
"103 673 OFFCURVE",
"100 671 OFFCURVE",
"100 669 CURVE SMOOTH",
"92 604 OFFCURVE",
"85 468 OFFCURVE",
"85 334 CURVE SMOOTH",
"85 202 OFFCURVE",
"91 70 OFFCURVE",
"99 4 CURVE SMOOTH",
"99 1 OFFCURVE",
"102 0 OFFCURVE",
"103 0 CURVE SMOOTH"
);
}
);
};
layerId = "707362F1-A677-446A-8636-E10BE3A7FAFF";
paths = (
{
closed = 1;
nodes = (
"112 0 OFFCURVE",
"120 0 OFFCURVE",
"129 0 CURVE SMOOTH",
"131 0 OFFCURVE",
"132 1 OFFCURVE",
"132 4 CURVE SMOOTH",
"114 131 OFFCURVE",
"117 282 OFFCURVE",
"118 316 CURVE SMOOTH",
"118 322 OFFCURVE",
"122 324 OFFCURVE",
"126 324 CURVE SMOOTH",
"245 324 OFFCURVE",
"365 324 OFFCURVE",
"484 324 CURVE SMOOTH",
"487 324 OFFCURVE",
"491 322 OFFCURVE",
"491 316 CURVE SMOOTH",
"492 288 OFFCURVE",
"496 132 OFFCURVE",
"478 4 CURVE SMOOTH",
"478 1 OFFCURVE",
"479 0 OFFCURVE",
"481 0 CURVE SMOOTH",
"490 0 OFFCURVE",
"498 0 OFFCURVE",
"507 0 CURVE SMOOTH",
"509 0 OFFCURVE",
"511 1 OFFCURVE",
"511 4 CURVE SMOOTH",
"519 70 OFFCURVE",
"525 202 OFFCURVE",
"525 334 CURVE SMOOTH",
"525 468 OFFCURVE",
"518 604 OFFCURVE",
"510 669 CURVE SMOOTH",
"510 671 OFFCURVE",
"507 673 OFFCURVE",
"506 673 CURVE SMOOTH",
"498 673 OFFCURVE",
"489 673 OFFCURVE",
"481 673 CURVE SMOOTH",
"479 673 OFFCURVE",
"478 671 OFFCURVE",
"477 670 CURVE",
"491 507 OFFCURVE",
"491 372 OFFCURVE",
"491 362 CURVE SMOOTH",
"491 354 OFFCURVE",
"487 354 OFFCURVE",
"484 354 CURVE SMOOTH",
"364 354 OFFCURVE",
"245 354 OFFCURVE",
"125 354 CURVE SMOOTH",
"122 354 OFFCURVE",
"119 355 OFFCURVE",
"119 362 CURVE SMOOTH",
"119 381 OFFCURVE",
"119 509 OFFCURVE",
"133 670 CURVE",
"132 671 OFFCURVE",
"131 673 OFFCURVE",
"129 673 CURVE SMOOTH",
"121 673 OFFCURVE",
"112 673 OFFCURVE",
"104 673 CURVE SMOOTH",
"103 673 OFFCURVE",
"100 671 OFFCURVE",
"100 669 CURVE SMOOTH",
"92 604 OFFCURVE",
"85 468 OFFCURVE",
"85 334 CURVE SMOOTH",
"85 202 OFFCURVE",
"91 70 OFFCURVE",
"99 4 CURVE SMOOTH",
"99 1 OFFCURVE",
"102 0 OFFCURVE",
"103 0 CURVE SMOOTH"
);
}
);
width = 610;
},
{
anchors = (
{
name = bottom;
position = "{306, 0}";
},
{
name = center;
position = "{306, 337}";
},
{
name = top;
position = "{306, 673}";
},
{
name = topleft;
position = "{35, 673}";
}
);
background = {
anchors = (
{
name = bottom;
position = "{306, 0}";
},
{
name = center;
position = "{306, 337}";
},
{
name = top;
position = "{306, 673}";
},
{
name = topleft;
position = "{35, 673}";
}
);
paths = (
{
closed = 1;
nodes = (
"134 0 OFFCURVE",
"175 0 OFFCURVE",
"215 0 CURVE SMOOTH",
"222 0 OFFCURVE",
"223 4 OFFCURVE",
"222 14 CURVE SMOOTH",
"214 77 OFFCURVE",
"208 173 OFFCURVE",
"207 270 CURVE SMOOTH",
"207 281 OFFCURVE",
"208 282 OFFCURVE",
"220 282 CURVE SMOOTH",
"277 282 OFFCURVE",
"334 282 OFFCURVE",
"391 282 CURVE SMOOTH",
"403 282 OFFCURVE",
"405 281 OFFCURVE",
"405 270 CURVE SMOOTH",
"404 173 OFFCURVE",
"397 77 OFFCURVE",
"389 14 CURVE SMOOTH",
"388 4 OFFCURVE",
"389 0 OFFCURVE",
"396 0 CURVE SMOOTH",
"436 0 OFFCURVE",
"477 0 OFFCURVE",
"517 0 CURVE SMOOTH",
"528 0 OFFCURVE",
"539 1 OFFCURVE",
"540 14 CURVE SMOOTH",
"548 85 OFFCURVE",
"556 217 OFFCURVE",
"556 348 CURVE SMOOTH",
"557 468 OFFCURVE",
"552 587 OFFCURVE",
"537 658 CURVE SMOOTH",
"536 667 OFFCURVE",
"524 673 OFFCURVE",
"516 673 CURVE SMOOTH",
"476 673 OFFCURVE",
"435 673 OFFCURVE",
"395 673 CURVE SMOOTH",
"388 673 OFFCURVE",
"385 668 OFFCURVE",
"386 658 CURVE SMOOTH",
"392 612 OFFCURVE",
"399 511 OFFCURVE",
"404 412 CURVE SMOOTH",
"404 398 OFFCURVE",
"399 396 OFFCURVE",
"389 396 CURVE SMOOTH",
"334 396 OFFCURVE",
"278 396 OFFCURVE",
"223 396 CURVE SMOOTH",
"207 396 OFFCURVE",
"208 398 OFFCURVE",
"208 412 CURVE SMOOTH",
"212 511 OFFCURVE",
"219 612 OFFCURVE",
"225 658 CURVE SMOOTH",
"226 668 OFFCURVE",
"223 673 OFFCURVE",
"216 673 CURVE SMOOTH",
"176 673 OFFCURVE",
"135 673 OFFCURVE",
"95 673 CURVE SMOOTH",
"87 673 OFFCURVE",
"75 667 OFFCURVE",
"74 658 CURVE SMOOTH",
"59 587 OFFCURVE",
"55 470 OFFCURVE",
"55 351 CURVE SMOOTH",
"56 219 OFFCURVE",
"63 86 OFFCURVE",
"71 14 CURVE SMOOTH",
"72 1 OFFCURVE",
"84 0 OFFCURVE",
"94 0 CURVE SMOOTH"
);
}
);
};
layerId = "D1BC8BBB-1669-4C46-BC21-42BF6808B2B9";
paths = (
{
closed = 1;
nodes = (
"134 0 OFFCURVE",
"175 0 OFFCURVE",
"215 0 CURVE SMOOTH",
"222 0 OFFCURVE",
"223 4 OFFCURVE",
"222 14 CURVE SMOOTH",
"214 77 OFFCURVE",
"208 173 OFFCURVE",
"207 270 CURVE SMOOTH",
"207 281 OFFCURVE",
"208 282 OFFCURVE",
"220 282 CURVE SMOOTH",
"277 282 OFFCURVE",
"334 282 OFFCURVE",
"391 282 CURVE SMOOTH",
"403 282 OFFCURVE",
"405 281 OFFCURVE",
"405 270 CURVE SMOOTH",
"404 173 OFFCURVE",
"397 77 OFFCURVE",
"389 14 CURVE SMOOTH",
"388 4 OFFCURVE",
"389 0 OFFCURVE",
"396 0 CURVE SMOOTH",
"436 0 OFFCURVE",
"477 0 OFFCURVE",
"517 0 CURVE SMOOTH",
"528 0 OFFCURVE",
"539 1 OFFCURVE",
"540 14 CURVE SMOOTH",
"548 85 OFFCURVE",
"556 217 OFFCURVE",
"556 348 CURVE SMOOTH",
"557 468 OFFCURVE",
"552 587 OFFCURVE",
"537 658 CURVE SMOOTH",
"536 667 OFFCURVE",
"524 673 OFFCURVE",
"516 673 CURVE SMOOTH",
"476 673 OFFCURVE",
"435 673 OFFCURVE",
"395 673 CURVE SMOOTH",
"388 673 OFFCURVE",
"385 668 OFFCURVE",
"386 658 CURVE SMOOTH",
"392 612 OFFCURVE",
"399 511 OFFCURVE",
"404 412 CURVE SMOOTH",
"404 398 OFFCURVE",
"399 396 OFFCURVE",
"389 396 CURVE SMOOTH",
"334 396 OFFCURVE",
"278 396 OFFCURVE",
"223 396 CURVE SMOOTH",
"207 396 OFFCURVE",
"208 398 OFFCURVE",
"208 412 CURVE SMOOTH",
"212 511 OFFCURVE",
"219 612 OFFCURVE",
"225 658 CURVE SMOOTH",
"226 668 OFFCURVE",
"223 673 OFFCURVE",
"216 673 CURVE SMOOTH",
"176 673 OFFCURVE",
"135 673 OFFCURVE",
"95 673 CURVE SMOOTH",
"87 673 OFFCURVE",
"75 667 OFFCURVE",
"74 658 CURVE SMOOTH",
"59 587 OFFCURVE",
"55 470 OFFCURVE",
"55 351 CURVE SMOOTH",
"56 219 OFFCURVE",
"63 86 OFFCURVE",
"71 14 CURVE SMOOTH",
"72 1 OFFCURVE",
"84 0 OFFCURVE",
"94 0 CURVE SMOOTH"
);
}
);
width = 611;
}
);
leftKerningGroup = H;
note = H;
rightKerningGroup = H;
unicode = 0048;
},
{
glyphname = I;
lastChange = "2021-06-09 03:44:24 +0000";
layers = (
{
anchors = (
{
name = bottom;
position = "{107, 0}";
},
{
name = ogonek;
position = "{124, 4}";
},
{
name = top;
position = "{107, 672}";
},
{
name = topleft;
position = "{30, 672}";
}
);
background = {
anchors = (
{
name = bottom;
position = "{107, 0}";
},
{
name = ogonek;
position = "{110, 10}";
},
{
name = top;
position = "{107, 672}";
},
{
name = topleft;
position = "{30, 672}";
}
);
paths = (
{
closed = 1;
nodes = (
"123 669 LINE SMOOTH",
"123 671 OFFCURVE",
"121 673 OFFCURVE",
"119 673 CURVE SMOOTH",
"93 673 LINE SMOOTH",
"91 673 OFFCURVE",
"90 671 OFFCURVE",
"90 669 CURVE SMOOTH",
"90 4 LINE SMOOTH",
"90 1 OFFCURVE",
"91 0 OFFCURVE",
"93 0 CURVE SMOOTH",
"119 0 LINE SMOOTH",
"121 0 OFFCURVE",
"123 1 OFFCURVE",
"123 4 CURVE SMOOTH"
);
}
);
};
layerId = "707362F1-A677-446A-8636-E10BE3A7FAFF";
paths = (
{
closed = 1;
nodes = (
"123 669 LINE SMOOTH",
"123 671 OFFCURVE",
"121 673 OFFCURVE",
"119 673 CURVE SMOOTH",
"93 673 LINE SMOOTH",
"91 673 OFFCURVE",
"90 671 OFFCURVE",
"90 669 CURVE SMOOTH",
"90 4 LINE SMOOTH",
"90 1 OFFCURVE",
"91 0 OFFCURVE",
"93 0 CURVE SMOOTH",
"119 0 LINE SMOOTH",
"121 0 OFFCURVE",
"123 1 OFFCURVE",
"123 4 CURVE SMOOTH"
);
}
);
width = 213;
},
{
anchors = (
{
name = bottom;
position = "{136, 0}";
},
{
name = ogonek;
position = "{202, 11}";
},
{
name = top;
position = "{136, 673}";
},
{
name = topleft;
position = "{30, 673}";
}
);
background = {
anchors = (
{
name = bottom;
position = "{136, 0}";
},
{
name = ogonek;
position = "{142, 10}";
},
{
name = top;
position = "{136, 673}";
},
{
name = topleft;
position = "{30, 673}";
}
);
paths = (
{
closed = 1;
nodes = (
"211 658 LINE SMOOTH",
"211 667 OFFCURVE",
"204 673 OFFCURVE",
"196 673 CURVE SMOOTH",
"76 673 LINE SMOOTH",
"66 673 OFFCURVE",
"60 667 OFFCURVE",
"60 658 CURVE SMOOTH",
"60 14 LINE SMOOTH",
"60 6 OFFCURVE",
"66 0 OFFCURVE",
"76 0 CURVE SMOOTH",
"196 0 LINE SMOOTH",
"204 0 OFFCURVE",
"211 6 OFFCURVE",
"211 14 CURVE SMOOTH"
);
}
);
};
layerId = "D1BC8BBB-1669-4C46-BC21-42BF6808B2B9";
paths = (
{
closed = 1;
nodes = (
"211 658 LINE SMOOTH",
"211 667 OFFCURVE",
"204 673 OFFCURVE",
"196 673 CURVE SMOOTH",
"76 673 LINE SMOOTH",
"66 673 OFFCURVE",
"60 667 OFFCURVE",
"60 658 CURVE SMOOTH",
"60 14 LINE SMOOTH",
"60 6 OFFCURVE",
"66 0 OFFCURVE",
"76 0 CURVE SMOOTH",
"196 0 LINE SMOOTH",
"204 0 OFFCURVE",
"211 6 OFFCURVE",
"211 14 CURVE SMOOTH"
);
}
);
width = 271;
}
);
leftKerningGroup = H;
leftMetricsKey = D;
note = I;
rightKerningGroup = H;
rightMetricsKey = "=H+5";
unicode = 0049;
},
{
glyphname = J;
lastChange = "2021-06-09 03:15:27 +0000";
layers = (
{
anchors = (
{
name = bottom;
position = "{118, 0}";
},
{
name = top;
position = "{118, 672}";
}
);
background = {
anchors = (
{
name = bottom;
position = "{118, 0}";
},
{
name = top;
position = "{118, 672}";
}
);
paths = (
{
closed = 1;
nodes = (
"195 669 LINE SMOOTH",
"195 671 OFFCURVE",
"194 673 OFFCURVE",
"192 673 CURVE SMOOTH",
"166 673 LINE SMOOTH",
"163 673 OFFCURVE",
"162 671 OFFCURVE",
"162 669 CURVE SMOOTH",
"162 138 LINE SMOOTH",
"162 52 OFFCURVE",
"130 27 OFFCURVE",
"71 27 CURVE SMOOTH",
"47 27 OFFCURVE",
"22 27 OFFCURVE",
"-2 27 CURVE SMOOTH",
"-8 27 OFFCURVE",
"-10 26 OFFCURVE",
"-10 22 CURVE SMOOTH",
"-10 4 LINE SMOOTH",
"-10 1 OFFCURVE",
"-9 0 OFFCURVE",
"-4 0 CURVE SMOOTH",
"73 -1 LINE SMOOTH",
"162 -2 OFFCURVE",
"195 34 OFFCURVE",
"195 168 CURVE SMOOTH"
);
}
);
};
layerId = "707362F1-A677-446A-8636-E10BE3A7FAFF";
paths = (
{
closed = 1;
nodes = (
"195 669 LINE SMOOTH",
"195 671 OFFCURVE",
"194 673 OFFCURVE",
"192 673 CURVE SMOOTH",
"166 673 LINE SMOOTH",
"163 673 OFFCURVE",
"162 671 OFFCURVE",
"162 669 CURVE SMOOTH",
"162 138 LINE SMOOTH",
"162 52 OFFCURVE",
"130 27 OFFCURVE",
"71 27 CURVE SMOOTH",
"47 27 OFFCURVE",
"22 27 OFFCURVE",
"-2 27 CURVE SMOOTH",
"-8 27 OFFCURVE",
"-10 26 OFFCURVE",
"-10 22 CURVE SMOOTH",
"-10 4 LINE SMOOTH",
"-10 1 OFFCURVE",
"-9 0 OFFCURVE",
"-4 0 CURVE SMOOTH",
"73 -1 LINE SMOOTH",
"162 -2 OFFCURVE",
"195 34 OFFCURVE",
"195 168 CURVE SMOOTH"
);
}
);
width = 280;
},
{
anchors = (
{
name = bottom;
position = "{161, 0}";
},
{
name = top;
position = "{161, 673}";
}
);
background = {
anchors = (
{
name = bottom;
position = "{161, 0}";
},
{
name = top;
position = "{161, 673}";
}
);
paths = (
{
closed = 1;
nodes = (
"281 658 LINE SMOOTH",
"281 667 OFFCURVE",
"273 673 OFFCURVE",
"266 673 CURVE SMOOTH",
"144 673 LINE SMOOTH",
"136 673 OFFCURVE",
"130 667 OFFCURVE",
"130 658 CURVE SMOOTH",
"130 178 LINE SMOOTH",
"129 126 OFFCURVE",
"122 113 OFFCURVE",
"85 113 CURVE SMOOTH",
"71 113 OFFCURVE",
"35 116 OFFCURVE",
"20 117 CURVE SMOOTH",
"13 118 OFFCURVE",
"10 114 OFFCURVE",
"10 104 CURVE SMOOTH",
"10 19 LINE SMOOTH",
"10 4 OFFCURVE",
"36 0 OFFCURVE",
"50 0 CURVE SMOOTH",
"124 0 LINE SMOOTH",
"240 0 OFFCURVE",
"281 44 OFFCURVE",
"281 184 CURVE SMOOTH"
);
}
);
};
layerId = "D1BC8BBB-1669-4C46-BC21-42BF6808B2B9";
paths = (
{
closed = 1;
nodes = (
"281 658 LINE SMOOTH",
"281 667 OFFCURVE",
"273 673 OFFCURVE",
"266 673 CURVE SMOOTH",
"144 673 LINE SMOOTH",
"136 673 OFFCURVE",
"130 667 OFFCURVE",
"130 658 CURVE SMOOTH",
"130 178 LINE SMOOTH",
"129 126 OFFCURVE",
"122 113 OFFCURVE",
"85 113 CURVE SMOOTH",
"71 113 OFFCURVE",
"35 116 OFFCURVE",
"20 117 CURVE SMOOTH",
"13 118 OFFCURVE",
"10 114 OFFCURVE",
"10 104 CURVE SMOOTH",
"10 19 LINE SMOOTH",
"10 4 OFFCURVE",
"36 0 OFFCURVE",
"50 0 CURVE SMOOTH",
"124 0 LINE SMOOTH",
"240 0 OFFCURVE",
"281 44 OFFCURVE",
"281 184 CURVE SMOOTH"
);
}
);
width = 336;
}
);
leftKerningGroup = J;
note = J;
rightKerningGroup = H;
rightMetricsKey = H;
unicode = 004A;
},
{
glyphname = K;
lastChange = "2021-06-09 03:20:15 +0000";
layers = (
{
anchors = (
{
name = bottom;
position = "{275, 0}";
},
{
name = top;
position = "{275, 672}";
}
);
background = {
anchors = (
{
name = bottom;
position = "{275, 0}";
},
{
name = top;
position = "{275, 672}";
}
);
paths = (
{
closed = 1;
nodes = (
"102 0 OFFCURVE",
"111 0 OFFCURVE",
"119 0 CURVE SMOOTH",
"122 0 OFFCURVE",
"123 1 OFFCURVE",
"123 4 CURVE SMOOTH",
"123 108 OFFCURVE",
"123 213 OFFCURVE",
"123 317 CURVE SMOOTH",
"123 324 OFFCURVE",
"130 324 OFFCURVE",
"130 324 CURVE",
"166 324 OFFCURVE",
"203 324 OFFCURVE",
"239 324 CURVE SMOOTH",
"243 324 OFFCURVE",
"249 323 OFFCURVE",
"250 313 CURVE SMOOTH",
"259 234 OFFCURVE",
"322 99 OFFCURVE",
"384 46 CURVE SMOOTH",
"417 18 OFFCURVE",
"458 0 OFFCURVE",
"507 0 CURVE SMOOTH",
"510 0 OFFCURVE",
"510 1 OFFCURVE",
"510 5 CURVE SMOOTH",
"510 24 LINE SMOOTH",
"510 26 OFFCURVE",
"505 28 OFFCURVE",
"502 28 CURVE SMOOTH",
"468 28 OFFCURVE",
"436 44 OFFCURVE",
"407 68 CURVE SMOOTH",
"351 119 OFFCURVE",
"287 247 OFFCURVE",
"281 327 CURVE SMOOTH",
"281 333 OFFCURVE",
"281 340 OFFCURVE",
"287 352 CURVE SMOOTH",
"341 458 OFFCURVE",
"395 563 OFFCURVE",
"449 669 CURVE",
"450 670 OFFCURVE",
"448 673 OFFCURVE",
"445 673 CURVE SMOOTH",
"436 673 OFFCURVE",
"428 673 OFFCURVE",
"419 673 CURVE SMOOTH",
"417 673 OFFCURVE",
"417 670 OFFCURVE",
"416 669 CURVE",
"363 567 OFFCURVE",
"311 465 OFFCURVE",
"258 363 CURVE",
"254 358 OFFCURVE",
"250 354 OFFCURVE",
"240 354 CURVE SMOOTH",
"130 354 LINE SMOOTH",
"123 354 OFFCURVE",
"123 358 OFFCURVE",
"123 362 CURVE SMOOTH",
"123 464 OFFCURVE",
"123 567 OFFCURVE",
"123 669 CURVE SMOOTH",
"123 671 OFFCURVE",
"122 673 OFFCURVE",
"119 673 CURVE SMOOTH",
"111 673 OFFCURVE",
"102 673 OFFCURVE",
"94 673 CURVE SMOOTH",
"91 673 OFFCURVE",
"90 671 OFFCURVE",
"90 669 CURVE SMOOTH",
"90 447 OFFCURVE",
"90 226 OFFCURVE",
"90 4 CURVE SMOOTH",
"90 1 OFFCURVE",
"91 0 OFFCURVE",
"94 0 CURVE SMOOTH"
);
}
);
};
layerId = "707362F1-A677-446A-8636-E10BE3A7FAFF";
paths = (
{
closed = 1;
nodes = (
"102 0 OFFCURVE",
"111 0 OFFCURVE",
"119 0 CURVE SMOOTH",
"122 0 OFFCURVE",
"123 1 OFFCURVE",
"123 4 CURVE SMOOTH",
"123 108 OFFCURVE",
"123 213 OFFCURVE",
"123 317 CURVE SMOOTH",
"123 324 OFFCURVE",
"130 324 OFFCURVE",
"130 324 CURVE",
"166 324 OFFCURVE",
"203 324 OFFCURVE",
"239 324 CURVE SMOOTH",
"243 324 OFFCURVE",
"249 323 OFFCURVE",
"250 313 CURVE SMOOTH",
"259 234 OFFCURVE",
"322 99 OFFCURVE",
"384 46 CURVE SMOOTH",
"417 18 OFFCURVE",
"458 0 OFFCURVE",
"507 0 CURVE SMOOTH",
"510 0 OFFCURVE",
"510 1 OFFCURVE",
"510 5 CURVE SMOOTH",
"510 24 LINE SMOOTH",
"510 26 OFFCURVE",
"505 28 OFFCURVE",
"502 28 CURVE SMOOTH",
"468 28 OFFCURVE",
"436 44 OFFCURVE",
"407 68 CURVE SMOOTH",
"351 119 OFFCURVE",
"287 247 OFFCURVE",
"281 327 CURVE SMOOTH",
"281 333 OFFCURVE",
"281 340 OFFCURVE",
"287 352 CURVE SMOOTH",
"341 458 OFFCURVE",
"395 563 OFFCURVE",
"449 669 CURVE",
"450 670 OFFCURVE",
"448 673 OFFCURVE",
"445 673 CURVE SMOOTH",
"436 673 OFFCURVE",
"428 673 OFFCURVE",
"419 673 CURVE SMOOTH",
"417 673 OFFCURVE",
"417 670 OFFCURVE",
"416 669 CURVE",
"363 567 OFFCURVE",
"311 465 OFFCURVE",
"258 363 CURVE",
"254 358 OFFCURVE",
"250 354 OFFCURVE",
"240 354 CURVE SMOOTH",
"130 354 LINE SMOOTH",
"123 354 OFFCURVE",
"123 358 OFFCURVE",
"123 362 CURVE SMOOTH",
"123 464 OFFCURVE",
"123 567 OFFCURVE",
"123 669 CURVE SMOOTH",
"123 671 OFFCURVE",
"122 673 OFFCURVE",
"119 673 CURVE SMOOTH",
"111 673 OFFCURVE",
"102 673 OFFCURVE",
"94 673 CURVE SMOOTH",
"91 673 OFFCURVE",
"90 671 OFFCURVE",
"90 669 CURVE SMOOTH",
"90 447 OFFCURVE",
"90 226 OFFCURVE",
"90 4 CURVE SMOOTH",
"90 1 OFFCURVE",
"91 0 OFFCURVE",
"94 0 CURVE SMOOTH"
);
}
);
width = 510;
},
{
anchors = (
{
name = bottom;
position = "{298, 0}";
},
{
name = top;
position = "{298, 673}";
}
);
background = {
anchors = (
{
name = bottom;
position = "{298, 0}";
},
{
name = top;
position = "{298, 673}";
}
);
paths = (
{
closed = 1;
nodes = (
"72 0 OFFCURVE",
"200 0 OFFCURVE",
"208 0 CURVE SMOOTH",
"211 0 OFFCURVE",
"212 1 OFFCURVE",
"212 4 CURVE SMOOTH",
"212 108 OFFCURVE",
"212 127 OFFCURVE",
"212 231 CURVE SMOOTH",
"212 238 OFFCURVE",
"215 238 OFFCURVE",
"215 238 CURVE",
"216 238 OFFCURVE",
"215 238 OFFCURVE",
"217 238 CURVE SMOOTH",
"218 238 OFFCURVE",
"225 233 OFFCURVE",
"229 223 CURVE SMOOTH",
"256 149 OFFCURVE",
"294 92 OFFCURVE",
"341 55 CURVE SMOOTH",
"400 9 OFFCURVE",
"455 0 OFFCURVE",
"547 0 CURVE SMOOTH",
"550 0 OFFCURVE",
"550 1 OFFCURVE",
"550 5 CURVE SMOOTH",
"550 133 LINE SMOOTH",
"550 135 OFFCURVE",
"545 137 OFFCURVE",
"542 137 CURVE SMOOTH",
"493 137 OFFCURVE",
"460 155 OFFCURVE",
"433 182 CURVE SMOOTH",
"391 223 OFFCURVE",
"356 285 OFFCURVE",
"356 337 CURVE SMOOTH",
"356 346 OFFCURVE",
"357 355 OFFCURVE",
"362 367 CURVE SMOOTH",
"407 473 OFFCURVE",
"448 542 OFFCURVE",
"506 634 CURVE",
"520 665 OFFCURVE",
"525 673 OFFCURVE",
"509 673 CURVE SMOOTH",
"500 673 OFFCURVE",
"379 673 OFFCURVE",
"370 673 CURVE SMOOTH",
"362 673 OFFCURVE",
"356 671 OFFCURVE",
"349 659 CURVE",
"296 557 OFFCURVE",
"280 535 OFFCURVE",
"227 433 CURVE",
"224 428 OFFCURVE",
"220 422 OFFCURVE",
"217 422 CURVE SMOOTH",
"215 422 LINE SMOOTH",
"212 422 OFFCURVE",
"212 426 OFFCURVE",
"212 430 CURVE SMOOTH",
"212 532 OFFCURVE",
"212 567 OFFCURVE",
"212 669 CURVE SMOOTH",
"212 671 OFFCURVE",
"211 673 OFFCURVE",
"208 673 CURVE SMOOTH",
"200 673 OFFCURVE",
"72 673 OFFCURVE",
"64 673 CURVE SMOOTH",
"61 673 OFFCURVE",
"60 671 OFFCURVE",
"60 669 CURVE SMOOTH",
"60 447 OFFCURVE",
"60 226 OFFCURVE",
"60 4 CURVE SMOOTH",
"60 1 OFFCURVE",
"61 0 OFFCURVE",
"64 0 CURVE SMOOTH"
);
}
);
};
layerId = "D1BC8BBB-1669-4C46-BC21-42BF6808B2B9";
paths = (
{
closed = 1;
nodes = (
"72 0 OFFCURVE",
"200 0 OFFCURVE",
"208 0 CURVE SMOOTH",
"211 0 OFFCURVE",
"212 1 OFFCURVE",
"212 4 CURVE SMOOTH",
"212 108 OFFCURVE",
"212 127 OFFCURVE",
"212 231 CURVE SMOOTH",
"212 238 OFFCURVE",
"215 238 OFFCURVE",
"215 238 CURVE",
"216 238 OFFCURVE",
"215 238 OFFCURVE",
"217 238 CURVE SMOOTH",
"218 238 OFFCURVE",
"225 233 OFFCURVE",
"229 223 CURVE SMOOTH",
"256 149 OFFCURVE",
"294 92 OFFCURVE",
"341 55 CURVE SMOOTH",
"400 9 OFFCURVE",
"455 0 OFFCURVE",
"547 0 CURVE SMOOTH",
"550 0 OFFCURVE",
"550 1 OFFCURVE",
"550 5 CURVE SMOOTH",
"550 133 LINE SMOOTH",
"550 135 OFFCURVE",
"545 137 OFFCURVE",
"542 137 CURVE SMOOTH",
"493 137 OFFCURVE",
"460 155 OFFCURVE",
"433 182 CURVE SMOOTH",
"391 223 OFFCURVE",
"356 285 OFFCURVE",
"356 337 CURVE SMOOTH",
"356 346 OFFCURVE",
"357 355 OFFCURVE",
"362 367 CURVE SMOOTH",
"407 473 OFFCURVE",
"448 542 OFFCURVE",
"506 634 CURVE",
"520 665 OFFCURVE",
"525 673 OFFCURVE",
"509 673 CURVE SMOOTH",
"500 673 OFFCURVE",
"379 673 OFFCURVE",
"370 673 CURVE SMOOTH",
"362 673 OFFCURVE",
"356 671 OFFCURVE",
"349 659 CURVE",
"296 557 OFFCURVE",
"280 535 OFFCURVE",
"227 433 CURVE",
"224 428 OFFCURVE",
"220 422 OFFCURVE",
"217 422 CURVE SMOOTH",
"215 422 LINE SMOOTH",
"212 422 OFFCURVE",
"212 426 OFFCURVE",
"212 430 CURVE SMOOTH",
"212 532 OFFCURVE",
"212 567 OFFCURVE",
"212 669 CURVE SMOOTH",
"212 671 OFFCURVE",
"211 673 OFFCURVE",
"208 673 CURVE SMOOTH",
"200 673 OFFCURVE",
"72 673 OFFCURVE",
"64 673 CURVE SMOOTH",
"61 673 OFFCURVE",
"60 671 OFFCURVE",
"60 669 CURVE SMOOTH",
"60 447 OFFCURVE",
"60 226 OFFCURVE",
"60 4 CURVE SMOOTH",
"60 1 OFFCURVE",
"61 0 OFFCURVE",
"64 0 CURVE SMOOTH"
);
}
);
width = 566;
}
);
leftKerningGroup = H;
leftMetricsKey = D;
note = K;
rightKerningGroup = K;
unicode = 004B;
},
{
glyphname = L;
lastChange = "2021-06-09 03:50:36 +0000";
layers = (
{
anchors = (
{
name = bottom;
position = "{223, 0}";
},
{
name = center;
position = "{223, 336}";
},
{
name = top;
position = "{111, 672}";
},
{
name = topright;
position = "{243, 672}";
}
);
background = {
anchors = (
{
name = bottom;
position = "{223, 0}";
},
{
name = center;
position = "{223, 336}";
},
{
name = top;
position = "{111, 672}";
},
{
name = topright;
position = "{243, 672}";
}
);
paths = (
{
closed = 1;
nodes = (
"396 0 LINE SMOOTH",
"399 0 OFFCURVE",
"400 1 OFFCURVE",
"400 4 CURVE SMOOTH",
"400 26 LINE SMOOTH",
"400 28 OFFCURVE",
"399 29 OFFCURVE",
"396 29 CURVE SMOOTH",
"130 29 LINE SMOOTH",
"123 29 OFFCURVE",
"123 32 OFFCURVE",
"123 38 CURVE SMOOTH",
"123 669 LINE SMOOTH",
"123 671 OFFCURVE",
"121 673 OFFCURVE",
"119 673 CURVE SMOOTH",
"93 673 LINE SMOOTH",
"91 673 OFFCURVE",
"90 671 OFFCURVE",
"90 669 CURVE SMOOTH",
"90 4 LINE SMOOTH",
"90 1 OFFCURVE",
"91 0 OFFCURVE",
"93 0 CURVE SMOOTH"
);
}
);
};
layerId = "707362F1-A677-446A-8636-E10BE3A7FAFF";
paths = (
{
closed = 1;
nodes = (
"396 0 LINE SMOOTH",
"399 0 OFFCURVE",
"400 1 OFFCURVE",
"400 4 CURVE SMOOTH",
"400 26 LINE SMOOTH",
"400 28 OFFCURVE",
"399 29 OFFCURVE",
"396 29 CURVE SMOOTH",
"130 29 LINE SMOOTH",
"123 29 OFFCURVE",
"123 32 OFFCURVE",
"123 38 CURVE SMOOTH",
"123 669 LINE SMOOTH",
"123 671 OFFCURVE",
"121 673 OFFCURVE",
"119 673 CURVE SMOOTH",
"93 673 LINE SMOOTH",
"91 673 OFFCURVE",
"90 671 OFFCURVE",
"90 669 CURVE SMOOTH",
"90 4 LINE SMOOTH",
"90 1 OFFCURVE",
"91 0 OFFCURVE",
"93 0 CURVE SMOOTH"
);
}
);
width = 414;
},
{
anchors = (
{
name = bottom;
position = "{237, 0}";
},
{
name = center;
position = "{237, 337}";
},
{
name = top;
position = "{132, 673}";
},
{
name = topright;
position = "{311, 673}";
}
);
background = {
anchors = (
{
name = bottom;
position = "{237, 0}";
},
{
name = center;
position = "{237, 337}";
},
{
name = top;
position = "{132, 673}";
},
{
name = topright;
position = "{311, 673}";
}
);
paths = (
{
closed = 1;
nodes = (
"411 0 LINE SMOOTH",
"432 0 OFFCURVE",
"433 0 OFFCURVE",
"433 22 CURVE SMOOTH",
"433 94 LINE SMOOTH",
"433 114 OFFCURVE",
"433 116 OFFCURVE",
"412 116 CURVE SMOOTH",
"220 116 LINE SMOOTH",
"211 116 OFFCURVE",
"211 117 OFFCURVE",
"211 125 CURVE SMOOTH",
"211 654 LINE SMOOTH",
"211 669 OFFCURVE",
"208 673 OFFCURVE",
"192 673 CURVE SMOOTH",
"76 673 LINE SMOOTH",
"66 673 OFFCURVE",
"60 667 OFFCURVE",
"60 658 CURVE SMOOTH",
"60 14 LINE SMOOTH",
"60 6 OFFCURVE",
"66 0 OFFCURVE",
"76 0 CURVE SMOOTH"
);
}
);
};
layerId = "D1BC8BBB-1669-4C46-BC21-42BF6808B2B9";
paths = (
{
closed = 1;
nodes = (
"411 0 LINE SMOOTH",
"432 0 OFFCURVE",
"433 0 OFFCURVE",
"433 22 CURVE SMOOTH",
"433 94 LINE SMOOTH",
"433 114 OFFCURVE",
"433 116 OFFCURVE",
"412 116 CURVE SMOOTH",
"220 116 LINE SMOOTH",
"211 116 OFFCURVE",
"211 117 OFFCURVE",
"211 125 CURVE SMOOTH",
"211 654 LINE SMOOTH",
"211 669 OFFCURVE",
"208 673 OFFCURVE",
"192 673 CURVE SMOOTH",
"76 673 LINE SMOOTH",
"66 673 OFFCURVE",
"60 667 OFFCURVE",
"60 658 CURVE SMOOTH",
"60 14 LINE SMOOTH",
"60 6 OFFCURVE",
"66 0 OFFCURVE",
"76 0 CURVE SMOOTH"
);
}
);
width = 443;
}
);
leftKerningGroup = H;
leftMetricsKey = D;
note = L;
rightKerningGroup = L;
unicode = 004C;
},
